MerriweatherSans-Light.ufo
<glyph name="exclam" format="2">
  <advance width="586"/>
  <unicode hex="0021"/>
  <outline>
    <contour>
      <point x="226" y="462" type="line"/>
      <point x="372" y="462" type="line"/>
      <point x="388" y="1738" type="line"/>
      <point x="206" y="1738" type="line"/>
    </contour>
    <contour>
      <point x="288" y="-16" type="curve" smooth="yes"/>
      <point x="352" y="-16"/>
      <point x="410" y="42"/>
      <point x="408" y="122" type="curve" smooth="yes"/>
      <point x="406" y="188"/>
      <point x="370" y="244"/>
      <point x="298" y="244" type="curve" smooth="yes"/>
      <point x="236" y="244"/>
      <point x="178" y="182"/>
      <point x="180" y="106" type="curve" smooth="yes"/>
      <point x="182" y="34"/>
      <point x="230" y="-16"/>
    </contour>
  </outline>
</glyph>
<glyph name="numbersign" format="2">
  <advance width="1458"/>
  <unicode hex="0023"/>
  <outline>
    <contour>
      <point x="336" y="0" type="line"/>
      <point x="476" y="0" type="line"/>
      <point x="600" y="1336" type="line"/>
      <point x="458" y="1336" type="line"/>
    </contour>
    <contour>
      <point x="844" y="0" type="line"/>
      <point x="982" y="0" type="line"/>
      <point x="1104" y="1336" type="line"/>
      <point x="962" y="1336" type="line"/>
    </contour>
    <contour>
      <point x="1298" y="892" type="line"/>
      <point x="1298" y="1006" type="line"/>
      <point x="196" y="1006" type="line"/>
      <point x="196" y="892" type="line"/>
    </contour>
    <contour>
      <point x="1254" y="350" type="line"/>
      <point x="1254" y="466" type="line"/>
      <point x="160" y="466" type="line"/>
      <point x="160" y="350" type="line"/>
    </contour>
  </outline>
</glyph>
<glyph name="dollar" format="2">
  <advance width="1350"/>
  <unicode hex="0024"/>
  <outline>
    <contour>
      <point x="638" y="1476" type="line"/>
      <point x="760" y="1476" type="line"/>
      <point x="762" y="1710" type="line"/>
      <point x="642" y="1710" type="line"/>
    </contour>
    <contour>
      <point x="594" y="-230" type="line"/>
      <point x="716" y="-230" type="line"/>
      <point x="718" y="6" type="line"/>
      <point x="596" y="6" type="line"/>
    </contour>
    <component base="S" xOffset="100"/>
  </outline>
</glyph>
<glyph name="percent" format="2">
  <advance width="1898"/>
  <unicode hex="0025"/>
  <outline>
    <contour>
      <point x="420" y="670" type="curve" smooth="yes"/>
      <point x="612" y="674"/>
      <point x="788" y="812"/>
      <point x="788" y="1066" type="curve" smooth="yes"/>
      <point x="788" y="1284"/>
      <point x="684" y="1462"/>
      <point x="450" y="1458" type="curve" smooth="yes"/>
      <point x="258" y="1452"/>
      <point x="84" y="1312"/>
      <point x="84" y="1058" type="curve" smooth="yes"/>
      <point x="84" y="848"/>
      <point x="208" y="666"/>
    </contour>
    <contour>
      <point x="554" y="0" type="line"/>
      <point x="696" y="0" type="line"/>
      <point x="1338" y="1494" type="line"/>
      <point x="1196" y="1494" type="line"/>
    </contour>
    <contour>
      <point x="430" y="780" type="curve" smooth="yes"/>
      <point x="304" y="778"/>
      <point x="228" y="904"/>
      <point x="228" y="1064" type="curve" smooth="yes"/>
      <point x="228" y="1238"/>
      <point x="314" y="1346"/>
      <point x="440" y="1348" type="curve" smooth="yes"/>
      <point x="572" y="1350"/>
      <point x="642" y="1230"/>
      <point x="642" y="1060" type="curve" smooth="yes"/>
      <point x="642" y="884"/>
      <point x="556" y="782"/>
    </contour>
    <contour>
      <point x="1450" y="54" type="curve" smooth="yes"/>
      <point x="1640" y="60"/>
      <point x="1814" y="196"/>
      <point x="1814" y="450" type="curve" smooth="yes"/>
      <point x="1814" y="668"/>
      <point x="1712" y="848"/>
      <point x="1478" y="840" type="curve" smooth="yes"/>
      <point x="1286" y="834"/>
      <point x="1112" y="696"/>
      <point x="1112" y="442" type="curve" smooth="yes"/>
      <point x="1112" y="232"/>
      <point x="1236" y="50"/>
    </contour>
    <contour>
      <point x="1458" y="164" type="curve" smooth="yes"/>
      <point x="1332" y="164"/>
      <point x="1256" y="288"/>
      <point x="1256" y="448" type="curve" smooth="yes"/>
      <point x="1256" y="624"/>
      <point x="1342" y="730"/>
      <point x="1468" y="732" type="curve" smooth="yes"/>
      <point x="1600" y="734"/>
      <point x="1668" y="614"/>
      <point x="1668" y="446" type="curve" smooth="yes"/>
      <point x="1668" y="268"/>
      <point x="1584" y="166"/>
    </contour>
  </outline>
</glyph>
<glyph name="ampersand" format="2">
  <advance width="1494"/>
  <unicode hex="0026"/>
  <outline>
    <contour>
      <point x="976" y="168" type="curve"/>
      <point x="892" y="128"/>
      <point x="804" y="104"/>
      <point x="714" y="104" type="curve" smooth="yes"/>
      <point x="410" y="104"/>
      <point x="286" y="234"/>
      <point x="286" y="380" type="curve" smooth="yes"/>
      <point x="286" y="534"/>
      <point x="422" y="624"/>
      <point x="572" y="688" type="curve"/>
      <point x="586" y="696"/>
      <point x="630" y="706"/>
      <point x="646" y="712" type="curve"/>
      <point x="870" y="812"/>
      <point x="1036" y="940"/>
      <point x="1036" y="1186" type="curve" smooth="yes"/>
      <point x="1036" y="1354"/>
      <point x="902" y="1510"/>
      <point x="672" y="1510" type="curve" smooth="yes"/>
      <point x="436" y="1510"/>
      <point x="280" y="1382"/>
      <point x="280" y="1168" type="curve" smooth="yes"/>
      <point x="280" y="996"/>
      <point x="398" y="846"/>
      <point x="494" y="726" type="curve"/>
      <point x="518" y="696" type="line"/>
      <point x="624" y="548"/>
      <point x="840" y="268"/>
      <point x="972" y="130" type="curve" smooth="yes"/>
      <point x="1082" y="32"/>
      <point x="1160" y="-16"/>
      <point x="1284" y="-16" type="curve" smooth="yes"/>
      <point x="1336" y="-16"/>
      <point x="1366" y="-8"/>
      <point x="1394" y="0" type="curve"/>
      <point x="1394" y="84" type="line"/>
      <point x="1274" y="84"/>
      <point x="1194" y="112"/>
      <point x="1074" y="228" type="curve" smooth="yes"/>
      <point x="964" y="340"/>
      <point x="734" y="636"/>
      <point x="656" y="744" type="curve"/>
      <point x="632" y="776" type="line"/>
      <point x="514" y="942"/>
      <point x="430" y="1014"/>
      <point x="430" y="1172" type="curve" smooth="yes"/>
      <point x="430" y="1326"/>
      <point x="536" y="1394"/>
      <point x="668" y="1394" type="curve" smooth="yes"/>
      <point x="814" y="1394"/>
      <point x="896" y="1286"/>
      <point x="896" y="1184" type="curve" smooth="yes"/>
      <point x="896" y="978"/>
      <point x="744" y="872"/>
      <point x="548" y="800" type="curve"/>
      <point x="540" y="798"/>
      <point x="508" y="788"/>
      <point x="500" y="784" type="curve"/>
      <point x="310" y="708"/>
      <point x="132" y="590"/>
      <point x="132" y="376" type="curve" smooth="yes"/>
      <point x="132" y="122"/>
      <point x="370" y="-16"/>
      <point x="722" y="-16" type="curve" smooth="yes"/>
      <point x="852" y="-16"/>
      <point x="996" y="32"/>
      <point x="1086" y="88" type="curve"/>
      <point x="1098" y="96"/>
      <point x="1108" y="112"/>
      <point x="1118" y="120" type="curve"/>
      <point x="1248" y="206"/>
      <point x="1312" y="334"/>
      <point x="1312" y="502" type="curve" smooth="yes"/>
      <point x="1312" y="600"/>
      <point x="1288" y="678"/>
      <point x="1278" y="710" type="curve"/>
      <point x="1134" y="710" type="line"/>
      <point x="1146" y="682"/>
      <point x="1170" y="598"/>
      <point x="1170" y="502" type="curve" smooth="yes"/>
      <point x="1170" y="356"/>
      <point x="1114" y="268"/>
      <point x="1016" y="200" type="curve"/>
      <point x="1008" y="192"/>
      <point x="998" y="182"/>
    </contour>
  </outline>
</glyph>
<glyph name="quotesingle" format="2">
  <advance width="714"/>
  <unicode hex="0027"/>
  <outline>
    <contour>
      <point x="292" y="924" type="line"/>
      <point x="422" y="924" type="line"/>
      <point x="446" y="1646" type="line"/>
      <point x="268" y="1646" type="line"/>
    </contour>
  </outline>
</glyph>
<glyph name="parenleft" format="2">
  <advance width="798"/>
  <unicode hex="0028"/>
  <outline>
    <contour>
      <point x="586" y="-320" type="curve"/>
      <point x="698" y="-264" type="line"/>
      <point x="608" y="-198"/>
      <point x="288" y="104"/>
      <point x="300" y="708" type="curve" smooth="yes"/>
      <point x="312" y="1268"/>
      <point x="624" y="1582"/>
      <point x="698" y="1636" type="curve"/>
      <point x="586" y="1692" type="line"/>
      <point x="496" y="1642"/>
      <point x="140" y="1268"/>
      <point x="140" y="708" type="curve" smooth="yes"/>
      <point x="140" y="50"/>
      <point x="502" y="-266"/>
    </contour>
  </outline>
</glyph>
<glyph name="asterisk" format="2">
  <advance width="1198"/>
  <unicode hex="002A"/>
  <outline>
    <contour>
      <point x="532" y="632" type="line"/>
      <point x="674" y="634" type="line"/>
      <point x="658" y="908" type="line"/>
      <point x="658" y="914"/>
      <point x="632" y="1064"/>
      <point x="630" y="1068" type="curve"/>
      <point x="760" y="966" type="line"/>
      <point x="990" y="820" type="line"/>
      <point x="1062" y="946" type="line"/>
      <point x="818" y="1072" type="line"/>
      <point x="664" y="1126" type="line"/>
      <point x="816" y="1186" type="line"/>
      <point x="1058" y="1316" type="line"/>
      <point x="988" y="1438" type="line"/>
      <point x="754" y="1290" type="line"/>
      <point x="750" y="1286"/>
      <point x="632" y="1186"/>
      <point x="630" y="1184" type="curve"/>
      <point x="656" y="1344" type="line"/>
      <point x="666" y="1620" type="line"/>
      <point x="522" y="1620" type="line"/>
      <point x="536" y="1342" type="line"/>
      <point x="538" y="1336"/>
      <point x="564" y="1186"/>
      <point x="564" y="1182" type="curve"/>
      <point x="436" y="1284" type="line"/>
      <point x="206" y="1432" type="line"/>
      <point x="136" y="1308" type="line"/>
      <point x="378" y="1182" type="line"/>
      <point x="384" y="1180"/>
      <point x="528" y="1128"/>
      <point x="532" y="1126" type="curve"/>
      <point x="378" y="1068" type="line"/>
      <point x="138" y="936" type="line"/>
      <point x="210" y="814" type="line"/>
      <point x="440" y="962" type="line"/>
      <point x="566" y="1070" type="line"/>
      <point x="542" y="908" type="line"/>
    </contour>
  </outline>
</glyph>
<glyph name="plus" format="2">
  <advance width="1360"/>
  <unicode hex="002B"/>
  <outline>
    <contour>
      <point x="612" y="282" type="line"/>
      <point x="746" y="282" type="line"/>
      <point x="746" y="526" type="line"/>
      <point x="740" y="694" type="line"/>
      <point x="884" y="690" type="line"/>
      <point x="1134" y="690" type="line"/>
      <point x="1134" y="820" type="line"/>
      <point x="884" y="820" type="line"/>
      <point x="740" y="812" type="line"/>
      <point x="746" y="980" type="line"/>
      <point x="746" y="1218" type="line"/>
      <point x="612" y="1218" type="line"/>
      <point x="612" y="980" type="line"/>
      <point x="618" y="812" type="line"/>
      <point x="458" y="820" type="line"/>
      <point x="226" y="820" type="line"/>
      <point x="226" y="690" type="line"/>
      <point x="458" y="690" type="line"/>
      <point x="618" y="694" type="line"/>
      <point x="612" y="526" type="line"/>
    </contour>
  </outline>
</glyph>
<glyph name="comma" format="2">
  <advance width="586"/>
  <unicode hex="002C"/>
  <outline>
    <contour>
      <point x="162" y="-420" type="line"/>
      <point x="216" y="-488" type="line"/>
      <point x="340" y="-432"/>
      <point x="454" y="-264"/>
      <point x="454" y="-44" type="curve" smooth="yes"/>
      <point x="454" y="62"/>
      <point x="416" y="198"/>
      <point x="298" y="252" type="curve"/>
      <point x="196" y="156" type="line"/>
      <point x="196" y="108" type="line"/>
      <point x="252" y="88"/>
      <point x="300" y="-14"/>
      <point x="300" y="-94" type="curve" smooth="yes"/>
      <point x="300" y="-246"/>
      <point x="226" y="-362"/>
      <point x="160" y="-400" type="curve"/>
    </contour>
  </outline>
</glyph>
<glyph name="slash" format="2">
  <advance width="848"/>
  <unicode hex="002F"/>
  <outline>
    <contour>
      <point x="72" y="-354" type="line"/>
      <point x="218" y="-354" type="line"/>
      <point x="776" y="1562" type="line"/>
      <point x="630" y="1562" type="line"/>
    </contour>
  </outline>
</glyph>
<glyph name="zero" format="2">
  <advance width="1346"/>
  <unicode hex="0030"/>
  <outline>
    <contour>
      <point x="666" y="-12" type="curve" smooth="yes"/>
      <point x="992" y="-12"/>
      <point x="1194" y="304"/>
      <point x="1198" y="756" type="curve" smooth="yes"/>
      <point x="1202" y="1170"/>
      <point x="1056" y="1506"/>
      <point x="690" y="1506" type="curve" smooth="yes"/>
      <point x="372" y="1506"/>
      <point x="154" y="1218"/>
      <point x="148" y="764" type="curve" smooth="yes"/>
      <point x="142" y="358"/>
      <point x="308" y="-12"/>
    </contour>
    <contour>
      <point x="672" y="138" type="curve" smooth="yes"/>
      <point x="416" y="142"/>
      <point x="306" y="418"/>
      <point x="308" y="772" type="curve" smooth="yes"/>
      <point x="310" y="1140"/>
      <point x="454" y="1354"/>
      <point x="680" y="1354" type="curve" smooth="yes"/>
      <point x="938" y="1354"/>
      <point x="1040" y="1114"/>
      <point x="1038" y="750" type="curve" smooth="yes"/>
      <point x="1036" y="358"/>
      <point x="902" y="132"/>
    </contour>
  </outline>
</glyph>
<glyph name="one" format="2">
  <advance width="878"/>
  <unicode hex="0031"/>
  <outline>
    <contour>
      <point x="398" y="0" type="line"/>
      <point x="556" y="0" type="line"/>
      <point x="556" y="1486" type="line"/>
      <point x="480" y="1508" type="line"/>
      <point x="426" y="1462"/>
      <point x="240" y="1352"/>
      <point x="110" y="1312" type="curve"/>
      <point x="130" y="1204" type="line"/>
      <point x="216" y="1224"/>
      <point x="316" y="1258"/>
      <point x="398" y="1292" type="curve"/>
    </contour>
  </outline>
</glyph>
<glyph name="two" format="2">
  <advance width="1220"/>
  <unicode hex="0032"/>
  <outline>
    <contour>
      <point x="156" y="0" type="line"/>
      <point x="1086" y="0" type="line"/>
      <point x="1084" y="142" type="line"/>
      <point x="382" y="136" type="line"/>
      <point x="742" y="402"/>
      <point x="1040" y="722"/>
      <point x="1040" y="1068" type="curve" smooth="yes"/>
      <point x="1040" y="1308"/>
      <point x="906" y="1500"/>
      <point x="588" y="1500" type="curve" smooth="yes"/>
      <point x="402" y="1500"/>
      <point x="234" y="1414"/>
      <point x="142" y="1308" type="curve"/>
      <point x="198" y="1232" type="line"/>
      <point x="266" y="1308"/>
      <point x="420" y="1372"/>
      <point x="574" y="1372" type="curve" smooth="yes"/>
      <point x="774" y="1372"/>
      <point x="876" y="1252"/>
      <point x="876" y="1062" type="curve" smooth="yes"/>
      <point x="876" y="710"/>
      <point x="498" y="306"/>
      <point x="134" y="74" type="curve"/>
    </contour>
  </outline>
</glyph>
<glyph name="three" format="2">
  <advance width="1110"/>
  <unicode hex="0033"/>
  <outline>
    <contour>
      <point x="162" y="4" type="line"/>
      <point x="228" y="-8"/>
      <point x="292" y="-14"/>
      <point x="352" y="-14" type="curve" smooth="yes"/>
      <point x="760" y="-14"/>
      <point x="1000" y="154"/>
      <point x="1000" y="422" type="curve" smooth="yes"/>
      <point x="1000" y="610"/>
      <point x="848" y="798"/>
      <point x="578" y="790" type="curve"/>
      <point x="580" y="766" type="line"/>
      <point x="762" y="830"/>
      <point x="922" y="972"/>
      <point x="922" y="1164" type="curve" smooth="yes"/>
      <point x="922" y="1390"/>
      <point x="734" y="1500"/>
      <point x="514" y="1500" type="curve" smooth="yes"/>
      <point x="336" y="1500"/>
      <point x="176" y="1410"/>
      <point x="102" y="1346" type="curve"/>
      <point x="166" y="1252" type="line"/>
      <point x="228" y="1300"/>
      <point x="340" y="1372"/>
      <point x="500" y="1372" type="curve" smooth="yes"/>
      <point x="652" y="1372"/>
      <point x="764" y="1302"/>
      <point x="762" y="1144" type="curve" smooth="yes"/>
      <point x="760" y="1024"/>
      <point x="668" y="906"/>
      <point x="490" y="842" type="curve" smooth="yes"/>
      <point x="434" y="822"/>
      <point x="378" y="804"/>
      <point x="310" y="790" type="curve"/>
      <point x="344" y="676" type="line"/>
      <point x="454" y="704" type="line"/>
      <point x="716" y="734"/>
      <point x="834" y="586"/>
      <point x="834" y="410" type="curve" smooth="yes"/>
      <point x="834" y="212"/>
      <point x="646" y="104"/>
      <point x="322" y="104" type="curve" smooth="yes"/>
      <point x="270" y="104"/>
      <point x="216" y="108"/>
      <point x="160" y="116" type="curve"/>
    </contour>
  </outline>
</glyph>
<glyph name="four" format="2">
  <advance width="1310"/>
  <unicode hex="0034"/>
  <outline>
    <contour>
      <point x="142" y="368" type="line"/>
      <point x="1214" y="368" type="line"/>
      <point x="1214" y="494" type="line"/>
      <point x="284" y="494" type="line"/>
      <point x="348" y="606" type="line"/>
      <point x="392" y="690"/>
      <point x="732" y="1330"/>
      <point x="782" y="1448" type="curve"/>
      <point x="680" y="1510" type="line"/>
      <point x="622" y="1510" type="line"/>
      <point x="574" y="1392"/>
      <point x="148" y="534"/>
      <point x="102" y="446" type="curve"/>
    </contour>
    <contour>
      <point x="808" y="0" type="line"/>
      <point x="970" y="0" type="line"/>
      <point x="970" y="970" type="line"/>
      <point x="820" y="970" type="line"/>
      <point x="808" y="494" type="line"/>
    </contour>
  </outline>
</glyph>
<glyph name="five" format="2">
  <advance width="1176"/>
  <unicode hex="0035"/>
  <outline>
    <contour>
      <point x="302" y="-16" type="curve" smooth="yes"/>
      <point x="774" y="-16"/>
      <point x="1038" y="220"/>
      <point x="1038" y="532" type="curve" smooth="yes"/>
      <point x="1038" y="762"/>
      <point x="904" y="926"/>
      <point x="608" y="926" type="curve" smooth="yes"/>
      <point x="522" y="926"/>
      <point x="424" y="910"/>
      <point x="328" y="880" type="curve"/>
      <point x="376" y="1346" type="line"/>
      <point x="964" y="1346" type="line"/>
      <point x="980" y="1486" type="line"/>
      <point x="248" y="1486" type="line"/>
      <point x="188" y="768" type="line"/>
      <point x="228" y="744" type="line"/>
      <point x="334" y="782"/>
      <point x="448" y="804"/>
      <point x="536" y="804" type="curve" smooth="yes"/>
      <point x="774" y="804"/>
      <point x="872" y="698"/>
      <point x="872" y="520" type="curve" smooth="yes"/>
      <point x="872" y="238"/>
      <point x="614" y="102"/>
      <point x="260" y="102" type="curve" smooth="yes"/>
      <point x="228" y="102"/>
      <point x="208" y="104"/>
      <point x="182" y="108" type="curve"/>
      <point x="180" y="-4" type="line"/>
      <point x="214" y="-14"/>
      <point x="270" y="-16"/>
    </contour>
  </outline>
</glyph>
<glyph name="six" format="2">
  <advance width="1344"/>
  <unicode hex="0036"/>
  <outline>
    <contour>
      <point x="164" y="556" type="curve" smooth="yes"/>
      <point x="164" y="248"/>
      <point x="348" y="-16"/>
      <point x="664" y="-16" type="curve" smooth="yes"/>
      <point x="1006" y="-16"/>
      <point x="1176" y="254"/>
      <point x="1176" y="534" type="curve" smooth="yes"/>
      <point x="1176" y="756"/>
      <point x="1034" y="962"/>
      <point x="780" y="962" type="curve" smooth="yes"/>
      <point x="648" y="962"/>
      <point x="542" y="914"/>
      <point x="502" y="874" type="curve"/>
      <point x="548" y="776" type="line"/>
      <point x="580" y="800"/>
      <point x="652" y="834"/>
      <point x="746" y="834" type="curve" smooth="yes"/>
      <point x="880" y="834"/>
      <point x="1012" y="746"/>
      <point x="1012" y="500" type="curve" smooth="yes"/>
      <point x="1012" y="310"/>
      <point x="910" y="98"/>
      <point x="684" y="98" type="curve" smooth="yes"/>
      <point x="422" y="98"/>
      <point x="334" y="350"/>
      <point x="340" y="626" type="curve" smooth="yes"/>
      <point x="348" y="962"/>
      <point x="614" y="1322"/>
      <point x="1014" y="1426" type="curve"/>
      <point x="968" y="1532" type="line"/>
      <point x="594" y="1458"/>
      <point x="164" y="1078"/>
    </contour>
  </outline>
</glyph>
<glyph name="seven" format="2">
  <advance width="1238"/>
  <unicode hex="0037"/>
  <outline>
    <contour>
      <point x="392" y="0" type="curve"/>
      <point x="576" y="-2" type="line"/>
      <point x="1138" y="1440" type="line"/>
      <point x="1102" y="1486" type="line"/>
      <point x="148" y="1486" type="line"/>
      <point x="146" y="1352" type="line"/>
      <point x="958" y="1352" type="line"/>
      <point x="838" y="1030"/>
      <point x="542" y="320"/>
    </contour>
  </outline>
</glyph>
<glyph name="eight" format="2">
  <advance width="1242"/>
  <unicode hex="0038"/>
  <outline>
    <contour>
      <point x="628" y="-16" type="curve" smooth="yes"/>
      <point x="882" y="-16"/>
      <point x="1114" y="110"/>
      <point x="1112" y="382" type="curve" smooth="yes"/>
      <point x="1108" y="778"/>
      <point x="338" y="788"/>
      <point x="338" y="1154" type="curve" smooth="yes"/>
      <point x="338" y="1304"/>
      <point x="464" y="1390"/>
      <point x="626" y="1390" type="curve" smooth="yes"/>
      <point x="802" y="1390"/>
      <point x="906" y="1288"/>
      <point x="902" y="1142" type="curve" smooth="yes"/>
      <point x="898" y="990"/>
      <point x="790" y="860"/>
      <point x="644" y="812" type="curve"/>
      <point x="734" y="742" type="line"/>
      <point x="952" y="834"/>
      <point x="1052" y="1008"/>
      <point x="1052" y="1164" type="curve" smooth="yes"/>
      <point x="1052" y="1370"/>
      <point x="876" y="1504"/>
      <point x="632" y="1504" type="curve" smooth="yes"/>
      <point x="394" y="1504"/>
      <point x="188" y="1388"/>
      <point x="188" y="1144" type="curve" smooth="yes"/>
      <point x="188" y="680"/>
      <point x="950" y="712"/>
      <point x="950" y="362" type="curve" smooth="yes"/>
      <point x="950" y="198"/>
      <point x="806" y="98"/>
      <point x="634" y="98" type="curve" smooth="yes"/>
      <point x="408" y="98"/>
      <point x="286" y="208"/>
      <point x="286" y="388" type="curve" smooth="yes"/>
      <point x="286" y="524"/>
      <point x="420" y="658"/>
      <point x="586" y="714" type="curve"/>
      <point x="486" y="782" type="line"/>
      <point x="242" y="686"/>
      <point x="130" y="516"/>
      <point x="130" y="376" type="curve" smooth="yes"/>
      <point x="130" y="94"/>
      <point x="388" y="-16"/>
    </contour>
  </outline>
</glyph>
<glyph name="nine" format="2">
  <advance width="1364"/>
  <unicode hex="0039"/>
  <outline>
    <contour>
      <point x="176" y="976" type="curve" smooth="yes"/>
      <point x="176" y="742"/>
      <point x="320" y="518"/>
      <point x="578" y="518" type="curve" smooth="yes"/>
      <point x="722" y="518"/>
      <point x="818" y="564"/>
      <point x="854" y="606" type="curve"/>
      <point x="816" y="698" type="line"/>
      <point x="778" y="676"/>
      <point x="726" y="646"/>
      <point x="620" y="646" type="curve" smooth="yes"/>
      <point x="466" y="646"/>
      <point x="340" y="776"/>
      <point x="340" y="1028" type="curve" smooth="yes"/>
      <point x="340" y="1194"/>
      <point x="456" y="1388"/>
      <point x="668" y="1388" type="curve" smooth="yes"/>
      <point x="920" y="1388"/>
      <point x="1014" y="1152"/>
      <point x="1008" y="860" type="curve" smooth="yes"/>
      <point x="1002" y="536"/>
      <point x="732" y="110"/>
      <point x="304" y="6" type="curve"/>
      <point x="360" y="-94" type="line"/>
      <point x="736" y="-18"/>
      <point x="1182" y="386"/>
      <point x="1182" y="932" type="curve"/>
      <point x="1182" y="1240"/>
      <point x="1014" y="1504"/>
      <point x="694" y="1504" type="curve" smooth="yes"/>
      <point x="366" y="1504"/>
      <point x="176" y="1276"/>
    </contour>
  </outline>
</glyph>
<glyph name="less" format="2">
  <advance width="1336"/>
  <unicode hex="003C"/>
  <outline>
    <contour>
      <point x="166" y="696" type="line"/>
      <point x="1106" y="248" type="line"/>
      <point x="1106" y="404" type="line"/>
      <point x="324" y="760" type="line"/>
      <point x="324" y="750" type="line"/>
      <point x="1106" y="1110" type="line"/>
      <point x="1106" y="1262" type="line"/>
      <point x="166" y="814" type="line"/>
    </contour>
  </outline>
</glyph>
<glyph name="equal" format="2">
  <advance width="1364"/>
  <unicode hex="003D"/>
  <outline>
    <contour>
      <point x="236" y="962" type="line"/>
      <point x="1128" y="962" type="line"/>
      <point x="1128" y="1088" type="line"/>
      <point x="236" y="1088" type="line"/>
    </contour>
    <contour>
      <point x="236" y="418" type="line"/>
      <point x="1128" y="418" type="line"/>
      <point x="1128" y="542" type="line"/>
      <point x="236" y="542" type="line"/>
    </contour>
  </outline>
</glyph>
<glyph name="question" format="2">
  <advance width="1030"/>
  <unicode hex="003F"/>
  <outline>
    <contour>
      <point x="378" y="454" type="curve"/>
      <point x="502" y="456" type="line"/>
      <point x="472" y="544"/>
      <point x="438" y="632"/>
      <point x="446" y="724" type="curve" smooth="yes"/>
      <point x="458" y="912"/>
      <point x="870" y="948"/>
      <point x="904" y="1250" type="curve" smooth="yes"/>
      <point x="946" y="1528"/>
      <point x="786" y="1794"/>
      <point x="334" y="1794" type="curve" smooth="yes"/>
      <point x="246" y="1794"/>
      <point x="150" y="1768"/>
      <point x="130" y="1752" type="curve"/>
      <point x="130" y="1632" type="line"/>
      <point x="160" y="1644"/>
      <point x="222" y="1656"/>
      <point x="310" y="1656" type="curve" smooth="yes"/>
      <point x="620" y="1656"/>
      <point x="790" y="1500"/>
      <point x="742" y="1242" type="curve" smooth="yes"/>
      <point x="718" y="1026"/>
      <point x="282" y="958"/>
      <point x="288" y="742" type="curve" smooth="yes"/>
      <point x="290" y="628"/>
      <point x="338" y="506"/>
    </contour>
    <contour>
      <point x="486" y="-16" type="curve" smooth="yes"/>
      <point x="548" y="-16"/>
      <point x="604" y="40"/>
      <point x="602" y="120" type="curve" smooth="yes"/>
      <point x="600" y="184"/>
      <point x="566" y="236"/>
      <point x="496" y="236" type="curve" smooth="yes"/>
      <point x="436" y="236"/>
      <point x="378" y="176"/>
      <point x="380" y="102" type="curve" smooth="yes"/>
      <point x="382" y="32"/>
      <point x="430" y="-16"/>
    </contour>
  </outline>
</glyph>
<glyph name="at" format="2">
  <advance width="2074"/>
  <unicode hex="0040"/>
  <outline>
    <contour>
      <point x="990" y="-454" type="curve" smooth="yes"/>
      <point x="1174" y="-454"/>
      <point x="1356" y="-406"/>
      <point x="1438" y="-350" type="curve"/>
      <point x="1408" y="-252" type="line"/>
      <point x="1346" y="-290"/>
      <point x="1208" y="-344"/>
      <point x="1006" y="-344" type="curve" smooth="yes"/>
      <point x="626" y="-344"/>
      <point x="292" y="-132"/>
      <point x="292" y="430" type="curve" smooth="yes"/>
      <point x="292" y="1020"/>
      <point x="690" y="1398"/>
      <point x="1138" y="1398" type="curve" smooth="yes"/>
      <point x="1472" y="1398"/>
      <point x="1762" y="1266"/>
      <point x="1762" y="790" type="curve" smooth="yes"/>
      <point x="1762" y="416"/>
      <point x="1566" y="122"/>
      <point x="1388" y="122" type="curve" smooth="yes"/>
      <point x="1336" y="122"/>
      <point x="1334" y="212"/>
      <point x="1362" y="420" type="curve" smooth="yes"/>
      <point x="1388" y="620"/>
      <point x="1452" y="888"/>
      <point x="1488" y="1016" type="curve"/>
      <point x="1358" y="990" type="line"/>
      <point x="1296" y="1028"/>
      <point x="1208" y="1046"/>
      <point x="1118" y="1046" type="curve" smooth="yes"/>
      <point x="748" y="1046"/>
      <point x="584" y="698"/>
      <point x="578" y="424" type="curve" smooth="yes"/>
      <point x="572" y="132"/>
      <point x="722" y="-2"/>
      <point x="854" y="-2" type="curve" smooth="yes"/>
      <point x="1054" y="-2"/>
      <point x="1238" y="360"/>
      <point x="1318" y="602" type="curve"/>
      <point x="1316" y="602"/>
      <point x="1288" y="602"/>
      <point x="1284" y="602" type="curve"/>
      <point x="1224" y="410"/>
      <point x="1216" y="236"/>
      <point x="1220" y="178" type="curve" smooth="yes"/>
      <point x="1226" y="70"/>
      <point x="1260" y="2"/>
      <point x="1352" y="2" type="curve" smooth="yes"/>
      <point x="1616" y="2"/>
      <point x="1894" y="294"/>
      <point x="1894" y="816" type="curve" smooth="yes"/>
      <point x="1894" y="1256"/>
      <point x="1596" y="1508"/>
      <point x="1166" y="1508" type="curve" smooth="yes"/>
      <point x="608" y="1508"/>
      <point x="160" y="1080"/>
      <point x="160" y="416" type="curve" smooth="yes"/>
      <point x="160" y="-174"/>
      <point x="522" y="-454"/>
    </contour>
    <contour>
      <point x="886" y="130" type="curve" smooth="yes"/>
      <point x="776" y="130"/>
      <point x="714" y="254"/>
      <point x="718" y="454" type="curve" smooth="yes"/>
      <point x="724" y="674"/>
      <point x="856" y="934"/>
      <point x="1104" y="934" type="curve" smooth="yes"/>
      <point x="1174" y="934"/>
      <point x="1266" y="912"/>
      <point x="1302" y="864" type="curve"/>
      <point x="1264" y="626"/>
      <point x="1028" y="130"/>
    </contour>
  </outline>
</glyph>
<glyph name="A" format="2">
  <advance width="1360"/>
  <unicode hex="0041"/>
  <anchor x="680" y="0" name="bottom"/>
  <anchor x="660" y="-166" name="btm"/>
  <anchor x="1330" y="0" name="ogonek"/>
  <anchor x="682" y="1660" name="top"/>
  <outline>
    <contour>
      <point x="206" y="0" type="line"/>
      <point x="648" y="1210" type="line"/>
      <point x="688" y="1328" type="line"/>
      <point x="728" y="1210" type="line"/>
      <point x="1154" y="0" type="line"/>
      <point x="1330" y="0" type="line"/>
      <point x="768" y="1502" type="line"/>
      <point x="606" y="1502" type="line"/>
      <point x="32" y="0" type="line"/>
    </contour>
    <contour>
      <point x="290" y="408" type="line"/>
      <point x="1056" y="408" type="line"/>
      <point x="1024" y="532" type="line"/>
      <point x="320" y="532" type="line"/>
    </contour>
  </outline>
</glyph>
<glyph name="B" format="2">
  <advance width="1318"/>
  <unicode hex="0042"/>
  <anchor x="660" y="0" name="bottom"/>
  <anchor x="696" y="-166" name="btm"/>
  <anchor x="632" y="1660" name="top"/>
  <outline>
    <contour>
      <point x="202" y="0" type="line"/>
      <point x="288" y="0" type="line"/>
      <point x="386" y="-4"/>
      <point x="518" y="-14"/>
      <point x="626" y="-14" type="curve" smooth="yes"/>
      <point x="1062" y="-14"/>
      <point x="1212" y="160"/>
      <point x="1212" y="442" type="curve" smooth="yes"/>
      <point x="1212" y="636"/>
      <point x="1052" y="786"/>
      <point x="872" y="794" type="curve"/>
      <point x="1046" y="838"/>
      <point x="1110" y="1010"/>
      <point x="1110" y="1152" type="curve" smooth="yes"/>
      <point x="1110" y="1370"/>
      <point x="950" y="1500"/>
      <point x="624" y="1500" type="curve" smooth="yes"/>
      <point x="488" y="1500"/>
      <point x="416" y="1486"/>
      <point x="292" y="1486" type="curve"/>
      <point x="202" y="1488" type="line"/>
    </contour>
    <contour>
      <point x="366" y="828" type="curve"/>
      <point x="366" y="1370" type="line"/>
      <point x="418" y="1378"/>
      <point x="538" y="1382"/>
      <point x="592" y="1382" type="curve" smooth="yes"/>
      <point x="804" y="1382"/>
      <point x="950" y="1314"/>
      <point x="950" y="1128" type="curve" smooth="yes"/>
      <point x="950" y="950"/>
      <point x="858" y="836"/>
      <point x="704" y="824" type="curve" smooth="yes"/>
      <point x="630" y="824"/>
      <point x="428" y="820"/>
    </contour>
    <contour>
      <point x="366" y="126" type="curve"/>
      <point x="366" y="702" type="line"/>
      <point x="416" y="708"/>
      <point x="612" y="706"/>
      <point x="686" y="706" type="curve" smooth="yes"/>
      <point x="910" y="702"/>
      <point x="1044" y="620"/>
      <point x="1044" y="422" type="curve" smooth="yes"/>
      <point x="1044" y="188"/>
      <point x="900" y="108"/>
      <point x="644" y="108" type="curve" smooth="yes"/>
      <point x="554" y="108"/>
      <point x="448" y="112"/>
    </contour>
  </outline>
</glyph>
<glyph name="C" format="2">
  <advance width="1296"/>
  <unicode hex="0043"/>
  <anchor x="772" y="0" name="bottom"/>
  <anchor x="772" y="-166" name="btm"/>
  <anchor x="784" y="1660" name="top"/>
  <outline>
    <contour>
      <point x="104" y="736" type="curve" smooth="yes"/>
      <point x="104" y="286"/>
      <point x="368" y="-16"/>
      <point x="776" y="-16" type="curve" smooth="yes"/>
      <point x="988" y="-16"/>
      <point x="1082" y="34"/>
      <point x="1170" y="62" type="curve"/>
      <point x="1168" y="204" type="line"/>
      <point x="1116" y="168"/>
      <point x="968" y="116"/>
      <point x="784" y="116" type="curve" smooth="yes"/>
      <point x="458" y="116"/>
      <point x="268" y="386"/>
      <point x="268" y="748" type="curve" smooth="yes"/>
      <point x="268" y="1144"/>
      <point x="484" y="1368"/>
      <point x="792" y="1368" type="curve" smooth="yes"/>
      <point x="1016" y="1368"/>
      <point x="1104" y="1314"/>
      <point x="1148" y="1298" type="curve"/>
      <point x="1172" y="1446" type="line"/>
      <point x="1112" y="1458"/>
      <point x="1010" y="1502"/>
      <point x="784" y="1502" type="curve" smooth="yes"/>
      <point x="412" y="1502"/>
      <point x="104" y="1228"/>
    </contour>
  </outline>
</glyph>
<glyph name="D" format="2">
  <advance width="1430"/>
  <unicode hex="0044"/>
  <anchor x="708" y="0" name="bottom"/>
  <anchor x="612" y="-166" name="btm"/>
  <anchor x="708" y="744" name="center"/>
  <anchor x="682" y="1660" name="top"/>
  <outline>
    <contour>
      <point x="188" y="0" type="line"/>
      <point x="194" y="0"/>
      <point x="276" y="0"/>
      <point x="296" y="-2" type="curve" smooth="yes"/>
      <point x="396" y="-2"/>
      <point x="528" y="-14"/>
      <point x="612" y="-16" type="curve" smooth="yes"/>
      <point x="1074" y="-22"/>
      <point x="1338" y="298"/>
      <point x="1338" y="786" type="curve" smooth="yes"/>
      <point x="1338" y="1236"/>
      <point x="1106" y="1500"/>
      <point x="634" y="1500" type="curve" smooth="yes"/>
      <point x="518" y="1500"/>
      <point x="398" y="1488"/>
      <point x="304" y="1488" type="curve" smooth="yes"/>
      <point x="292" y="1486"/>
      <point x="198" y="1486"/>
      <point x="188" y="1486" type="curve"/>
    </contour>
    <contour>
      <point x="352" y="126" type="curve"/>
      <point x="352" y="1366" type="line"/>
      <point x="420" y="1374"/>
      <point x="502" y="1380"/>
      <point x="596" y="1380" type="curve" smooth="yes"/>
      <point x="974" y="1380"/>
      <point x="1168" y="1198"/>
      <point x="1166" y="762" type="curve" smooth="yes"/>
      <point x="1164" y="312"/>
      <point x="948" y="112"/>
      <point x="636" y="108" type="curve" smooth="yes"/>
      <point x="550" y="106"/>
      <point x="428" y="114"/>
    </contour>
  </outline>
</glyph>
<glyph name="E" format="2">
  <advance width="1160"/>
  <unicode hex="0045"/>
  <anchor x="642" y="0" name="bottom"/>
  <anchor x="640" y="-166" name="btm"/>
  <anchor x="1010" y="0" name="ogonek"/>
  <anchor x="604" y="1660" name="top"/>
  <anchor x="26" y="1486" name="topleft"/>
  <outline>
    <contour>
      <point x="188" y="0" type="line"/>
      <point x="1096" y="0" type="line"/>
      <point x="1096" y="130" type="line"/>
      <point x="352" y="130" type="line"/>
      <point x="352" y="704" type="line"/>
      <point x="844" y="704" type="line"/>
      <point x="844" y="832" type="line"/>
      <point x="352" y="832" type="line"/>
      <point x="352" y="1358" type="line"/>
      <point x="1026" y="1358" type="line"/>
      <point x="1026" y="1486" type="line"/>
      <point x="188" y="1486" type="line"/>
    </contour>
  </outline>
</glyph>
<glyph name="F" format="2">
  <advance width="1046"/>
  <unicode hex="0046"/>
  <anchor x="516" y="0" name="bottom"/>
  <anchor x="666" y="-166" name="btm"/>
  <anchor x="636" y="1660" name="top"/>
  <outline>
    <contour>
      <point x="188" y="0" type="line"/>
      <point x="352" y="0" type="line"/>
      <point x="352" y="682" type="line"/>
      <point x="850" y="682" type="line"/>
      <point x="850" y="810" type="line"/>
      <point x="352" y="810" type="line"/>
      <point x="352" y="1358" type="line"/>
      <point x="1018" y="1358" type="line"/>
      <point x="1018" y="1486" type="line"/>
      <point x="188" y="1486" type="line"/>
    </contour>
  </outline>
</glyph>
<glyph name="G" format="2">
  <advance width="1408"/>
  <unicode hex="0047"/>
  <anchor x="704" y="0" name="bottom"/>
  <anchor x="790" y="-166" name="btm"/>
  <anchor x="798" y="1660" name="top"/>
  <outline>
    <contour>
      <point x="108" y="732" type="curve" smooth="yes"/>
      <point x="108" y="304"/>
      <point x="358" y="-16"/>
      <point x="784" y="-16" type="curve" smooth="yes"/>
      <point x="1084" y="-16"/>
      <point x="1208" y="84"/>
      <point x="1290" y="88" type="curve"/>
      <point x="1290" y="732" type="line"/>
      <point x="822" y="732" type="line"/>
      <point x="822" y="614" type="line"/>
      <point x="1176" y="602" type="line"/>
      <point x="1130" y="634" type="line"/>
      <point x="1130" y="176" type="line"/>
      <point x="1074" y="148"/>
      <point x="940" y="112"/>
      <point x="782" y="112" type="curve" smooth="yes"/>
      <point x="458" y="112"/>
      <point x="280" y="380"/>
      <point x="280" y="752" type="curve" smooth="yes"/>
      <point x="280" y="1158"/>
      <point x="508" y="1372"/>
      <point x="786" y="1372" type="curve" smooth="yes"/>
      <point x="994" y="1372"/>
      <point x="1116" y="1332"/>
      <point x="1200" y="1294" type="curve"/>
      <point x="1206" y="1442" type="line"/>
      <point x="1090" y="1464"/>
      <point x="1008" y="1502"/>
      <point x="796" y="1502" type="curve" smooth="yes"/>
      <point x="412" y="1502"/>
      <point x="108" y="1240"/>
    </contour>
  </outline>
</glyph>
<glyph name="H" format="2">
  <advance width="1478"/>
  <unicode hex="0048"/>
  <anchor x="740" y="0" name="bottom"/>
  <anchor x="736" y="-166" name="btm"/>
  <anchor x="740" y="744" name="center"/>
  <anchor x="740" y="1660" name="top"/>
  <anchor x="26" y="1486" name="topleft"/>
  <outline>
    <contour>
      <point x="188" y="0" type="line"/>
      <point x="352" y="0" type="line"/>
      <point x="352" y="694" type="line"/>
      <point x="1126" y="694" type="line"/>
      <point x="1126" y="0" type="line"/>
      <point x="1290" y="0" type="line"/>
      <point x="1290" y="1486" type="line"/>
      <point x="1126" y="1486" type="line"/>
      <point x="1126" y="820" type="line"/>
      <point x="352" y="820" type="line"/>
      <point x="352" y="1486" type="line"/>
      <point x="188" y="1486" type="line"/>
    </contour>
  </outline>
</glyph>
<glyph name="I" format="2">
  <advance width="598"/>
  <unicode hex="0049"/>
  <anchor x="300" y="0" name="bottom"/>
  <anchor x="304" y="-166" name="btm"/>
  <anchor x="382" y="0" name="ogonek"/>
  <anchor x="300" y="1660" name="top"/>
  <anchor x="40" y="1486" name="topleft"/>
  <outline>
    <contour>
      <point x="216" y="0" type="line"/>
      <point x="382" y="0" type="line"/>
      <point x="382" y="1486" type="line"/>
      <point x="216" y="1486" type="line"/>
    </contour>
  </outline>
</glyph>
<glyph name="J" format="2">
  <advance width="678"/>
  <unicode hex="004A"/>
  <anchor x="340" y="0" name="bottom"/>
  <anchor x="274" y="-166" name="btm"/>
  <anchor x="368" y="1660" name="top"/>
  <outline>
    <contour>
      <point x="14" y="-324" type="line"/>
      <point x="184" y="-300"/>
      <point x="392" y="-174"/>
      <point x="436" y="64" type="curve" smooth="yes"/>
      <point x="458" y="194"/>
      <point x="454" y="352"/>
      <point x="454" y="524" type="curve" smooth="yes"/>
      <point x="454" y="1486" type="line"/>
      <point x="286" y="1486" type="line"/>
      <point x="286" y="542" type="line" smooth="yes"/>
      <point x="286" y="336"/>
      <point x="288" y="146"/>
      <point x="252" y="30" type="curve" smooth="yes"/>
      <point x="210" y="-116"/>
      <point x="84" y="-204"/>
      <point x="-38" y="-238" type="curve"/>
    </contour>
  </outline>
</glyph>
<glyph name="K" format="2">
  <advance width="1294"/>
  <unicode hex="004B"/>
  <anchor x="652" y="0" name="bottom"/>
  <anchor x="658" y="-166" name="btm"/>
  <anchor x="644" y="1660" name="top"/>
  <outline>
    <contour>
      <point x="188" y="0" type="line"/>
      <point x="348" y="0" type="line"/>
      <point x="348" y="572" type="line"/>
      <point x="308" y="430" type="line"/>
      <point x="600" y="762" type="line"/>
      <point x="618" y="784" type="line"/>
      <point x="1208" y="1486" type="line"/>
      <point x="1012" y="1486" type="line"/>
      <point x="348" y="678" type="line"/>
      <point x="348" y="1486" type="line"/>
      <point x="188" y="1486" type="line"/>
    </contour>
    <contour>
      <point x="986" y="110" type="curve" smooth="yes"/>
      <point x="1020" y="50"/>
      <point x="1030" y="24"/>
      <point x="1046" y="0" type="curve"/>
      <point x="1234" y="0" type="line"/>
      <point x="1228" y="10"/>
      <point x="1174" y="98"/>
      <point x="1168" y="108" type="curve"/>
      <point x="1042" y="330"/>
      <point x="736" y="760"/>
      <point x="660" y="886" type="curve"/>
      <point x="602" y="818" type="line"/>
      <point x="544" y="788" type="line"/>
      <point x="648" y="620"/>
      <point x="874" y="306"/>
    </contour>
  </outline>
</glyph>
<glyph name="L" format="2">
  <advance width="1028"/>
  <unicode hex="004C"/>
  <anchor x="508" y="0" name="bottom"/>
  <anchor x="558" y="-166" name="btm"/>
  <anchor x="508" y="744" name="center"/>
  <anchor x="270" y="1660" name="top"/>
  <anchor x="988" y="1486" name="topright"/>
  <outline>
    <contour>
      <point x="188" y="0" type="line"/>
      <point x="970" y="0" type="line"/>
      <point x="974" y="134" type="line"/>
      <point x="350" y="134" type="line"/>
      <point x="346" y="1486" type="line"/>
      <point x="188" y="1486" type="line"/>
    </contour>
  </outline>
</glyph>
<glyph name="M" format="2">
  <advance width="1880"/>
  <unicode hex="004D"/>
  <anchor x="940" y="0" name="bottom"/>
  <anchor x="942" y="-166" name="btm"/>
  <anchor x="940" y="1600" name="top"/>
  <outline>
    <contour>
      <point x="146" y="0" type="line"/>
      <point x="306" y="0" type="line"/>
      <point x="394" y="924" type="line"/>
      <point x="432" y="1364" type="line"/>
      <point x="564" y="924" type="line"/>
      <point x="896" y="-14" type="line"/>
      <point x="986" y="-14" type="line"/>
      <point x="1302" y="924" type="line"/>
      <point x="1422" y="1364" type="line"/>
      <point x="1466" y="924" type="line"/>
      <point x="1570" y="0" type="line"/>
      <point x="1736" y="0" type="line"/>
      <point x="1544" y="1486" type="line"/>
      <point x="1322" y="1486" type="line"/>
      <point x="1012" y="520" type="line"/>
      <point x="940" y="242" type="line"/>
      <point x="868" y="520" type="line"/>
      <point x="538" y="1486" type="line"/>
      <point x="304" y="1486" type="line"/>
    </contour>
  </outline>
</glyph>
<glyph name="N" format="2">
  <advance width="1492"/>
  <unicode hex="004E"/>
  <anchor x="746" y="0" name="bottom"/>
  <anchor x="720" y="-166" name="btm"/>
  <anchor x="756" y="1660" name="top"/>
  <outline>
    <contour>
      <point x="188" y="0" type="line"/>
      <point x="340" y="0" type="line"/>
      <point x="340" y="948" type="line"/>
      <point x="326" y="1388" type="line"/>
      <point x="260" y="1388" type="line"/>
      <point x="482" y="1010" type="line"/>
      <point x="1154" y="0" type="line"/>
      <point x="1304" y="0" type="line"/>
      <point x="1304" y="1486" type="line"/>
      <point x="1154" y="1486" type="line"/>
      <point x="1154" y="514" type="line"/>
      <point x="1168" y="102" type="line"/>
      <point x="1226" y="102" type="line"/>
      <point x="1026" y="452" type="line"/>
      <point x="342" y="1486" type="line"/>
      <point x="188" y="1486" type="line"/>
    </contour>
  </outline>
</glyph>
<glyph name="O" format="2">
  <advance width="1518"/>
  <unicode hex="004F"/>
  <anchor x="760" y="0" name="bottom"/>
  <anchor x="760" y="-166" name="btm"/>
  <anchor x="760" y="744" name="center"/>
  <anchor x="911" y="0" name="ogonek"/>
  <anchor x="782" y="1660" name="top"/>
  <anchor x="32" y="1486" name="topleft"/>
  <anchor x="980" y="1442" name="topright"/>
  <outline>
    <contour>
      <point x="754" y="-16" type="curve" smooth="yes"/>
      <point x="1130" y="-8"/>
      <point x="1408" y="252"/>
      <point x="1418" y="746" type="curve" smooth="yes"/>
      <point x="1428" y="1202"/>
      <point x="1176" y="1504"/>
      <point x="784" y="1502" type="curve" smooth="yes"/>
      <point x="408" y="1500"/>
      <point x="110" y="1246"/>
      <point x="100" y="750" type="curve" smooth="yes"/>
      <point x="92" y="302"/>
      <point x="344" y="-24"/>
    </contour>
    <contour>
      <point x="758" y="112" type="curve" smooth="yes"/>
      <point x="434" y="110"/>
      <point x="266" y="400"/>
      <point x="268" y="740" type="curve" smooth="yes"/>
      <point x="270" y="1164"/>
      <point x="492" y="1374"/>
      <point x="778" y="1376" type="curve" smooth="yes"/>
      <point x="1090" y="1378"/>
      <point x="1252" y="1096"/>
      <point x="1252" y="754" type="curve" smooth="yes"/>
      <point x="1248" y="338"/>
      <point x="1052" y="114"/>
    </contour>
  </outline>
</glyph>
<glyph name="P" format="2">
  <advance width="1236"/>
  <unicode hex="0050"/>
  <anchor x="612" y="0" name="bottom"/>
  <anchor x="672" y="-166" name="btm"/>
  <anchor x="648" y="1660" name="top"/>
  <outline>
    <contour>
      <point x="188" y="0" type="line"/>
      <point x="352" y="0" type="line"/>
      <point x="352" y="522" type="line"/>
      <point x="392" y="522"/>
      <point x="488" y="514"/>
      <point x="594" y="514" type="curve" smooth="yes"/>
      <point x="938" y="516"/>
      <point x="1152" y="698"/>
      <point x="1152" y="1020" type="curve" smooth="yes"/>
      <point x="1152" y="1368"/>
      <point x="950" y="1500"/>
      <point x="636" y="1500" type="curve" smooth="yes"/>
      <point x="506" y="1500"/>
      <point x="378" y="1486"/>
      <point x="268" y="1486" type="curve" smooth="yes"/>
      <point x="188" y="1486" type="line"/>
    </contour>
    <contour>
      <point x="352" y="648" type="curve"/>
      <point x="352" y="1366" type="line"/>
      <point x="422" y="1376"/>
      <point x="512" y="1378"/>
      <point x="588" y="1380" type="curve" smooth="yes"/>
      <point x="854" y="1386"/>
      <point x="986" y="1280"/>
      <point x="986" y="1020" type="curve" smooth="yes"/>
      <point x="986" y="736"/>
      <point x="810" y="640"/>
      <point x="584" y="636" type="curve" smooth="yes"/>
      <point x="524" y="636"/>
      <point x="412" y="640"/>
    </contour>
  </outline>
</glyph>
<glyph name="Q" format="2">
  <advance width="1534"/>
  <unicode hex="0051"/>
  <anchor x="768" y="0" name="bottom"/>
  <anchor x="770" y="-166" name="btm"/>
  <anchor x="782" y="1632" name="top"/>
  <outline>
    <contour>
      <point x="1222" y="-280" type="curve" smooth="yes"/>
      <point x="1294" y="-280"/>
      <point x="1324" y="-264"/>
      <point x="1354" y="-244" type="curve"/>
      <point x="1354" y="-124" type="line"/>
      <point x="1312" y="-140"/>
      <point x="1272" y="-146"/>
      <point x="1220" y="-146" type="curve" smooth="yes"/>
      <point x="1044" y="-146"/>
      <point x="986" y="-74"/>
      <point x="908" y="50" type="curve"/>
      <point x="830" y="50" type="line"/>
      <point x="756" y="22" type="line"/>
      <point x="918" y="-220"/>
      <point x="1008" y="-280"/>
    </contour>
    <component base="O"/>
  </outline>
</glyph>
<glyph name="R" format="2">
  <advance width="1314"/>
  <unicode hex="0052"/>
  <anchor x="650" y="0" name="bottom"/>
  <anchor x="658" y="-166" name="btm"/>
  <anchor x="612" y="1660" name="top"/>
  <outline>
    <contour>
      <point x="352" y="0" type="line"/>
      <point x="352" y="648" type="line"/>
      <point x="548" y="646"/>
      <point x="668" y="644"/>
      <point x="764" y="658" type="curve" smooth="yes"/>
      <point x="990" y="688"/>
      <point x="1146" y="834"/>
      <point x="1146" y="1090" type="curve" smooth="yes"/>
      <point x="1146" y="1392"/>
      <point x="938" y="1500"/>
      <point x="636" y="1500" type="curve" smooth="yes"/>
      <point x="508" y="1500"/>
      <point x="378" y="1488"/>
      <point x="284" y="1488" type="curve" smooth="yes"/>
      <point x="274" y="1488"/>
      <point x="188" y="1486"/>
      <point x="188" y="1486" type="curve"/>
      <point x="188" y="0" type="line"/>
    </contour>
    <contour>
      <point x="352" y="764" type="curve"/>
      <point x="352" y="1362" type="line"/>
      <point x="412" y="1374"/>
      <point x="522" y="1378"/>
      <point x="610" y="1378" type="curve" smooth="yes"/>
      <point x="864" y="1378"/>
      <point x="978" y="1294"/>
      <point x="978" y="1082" type="curve" smooth="yes"/>
      <point x="976" y="866"/>
      <point x="838" y="760"/>
      <point x="630" y="758" type="curve" smooth="yes"/>
      <point x="572" y="758"/>
      <point x="400" y="760"/>
    </contour>
    <contour>
      <point x="1062" y="0" type="curve"/>
      <point x="1250" y="0" type="line"/>
      <point x="1232" y="28"/>
      <point x="1214" y="62"/>
      <point x="1194" y="100" type="curve" smooth="yes"/>
      <point x="1088" y="290"/>
      <point x="974" y="638"/>
      <point x="808" y="690" type="curve"/>
      <point x="708" y="702" type="line"/>
      <point x="640" y="652" type="line"/>
      <point x="814" y="628"/>
      <point x="922" y="280"/>
      <point x="1010" y="100" type="curve" smooth="yes"/>
      <point x="1036" y="42"/>
      <point x="1046" y="20"/>
    </contour>
  </outline>
</glyph>
<glyph name="S" format="2">
  <advance width="1142"/>
  <unicode hex="0053"/>
  <anchor x="564" y="0" name="bottom"/>
  <anchor x="568" y="-166" name="btm"/>
  <anchor x="604" y="1660" name="top"/>
  <outline>
    <contour>
      <point x="554" y="-16" type="curve" smooth="yes"/>
      <point x="842" y="-16"/>
      <point x="1042" y="114"/>
      <point x="1042" y="376" type="curve" smooth="yes"/>
      <point x="1042" y="612"/>
      <point x="822" y="724"/>
      <point x="624" y="818" type="curve" smooth="yes"/>
      <point x="414" y="920"/>
      <point x="294" y="990"/>
      <point x="294" y="1156" type="curve" smooth="yes"/>
      <point x="294" y="1304"/>
      <point x="458" y="1372"/>
      <point x="616" y="1372" type="curve" smooth="yes"/>
      <point x="768" y="1372"/>
      <point x="862" y="1338"/>
      <point x="934" y="1292" type="curve"/>
      <point x="968" y="1422" type="line"/>
      <point x="916" y="1458"/>
      <point x="804" y="1502"/>
      <point x="616" y="1502" type="curve" smooth="yes"/>
      <point x="390" y="1502"/>
      <point x="136" y="1408"/>
      <point x="136" y="1134" type="curve" smooth="yes"/>
      <point x="136" y="916"/>
      <point x="332" y="778"/>
      <point x="526" y="690" type="curve" smooth="yes"/>
      <point x="734" y="594"/>
      <point x="880" y="528"/>
      <point x="880" y="358" type="curve" smooth="yes"/>
      <point x="880" y="194"/>
      <point x="750" y="116"/>
      <point x="544" y="116" type="curve" smooth="yes"/>
      <point x="404" y="116"/>
      <point x="252" y="160"/>
      <point x="172" y="208" type="curve"/>
      <point x="132" y="72" type="line"/>
      <point x="186" y="36"/>
      <point x="360" y="-16"/>
    </contour>
  </outline>
</glyph>
<glyph name="T" format="2">
  <advance width="1250"/>
  <unicode hex="0054"/>
  <anchor x="626" y="0" name="bottom"/>
  <anchor x="626" y="744" name="center"/>
  <anchor x="618" y="1660" name="top"/>
  <outline>
    <contour>
      <point x="540" y="0" type="line"/>
      <point x="708" y="0" type="line"/>
      <point x="708" y="1358" type="line"/>
      <point x="1194" y="1358" type="line"/>
      <point x="1194" y="1486" type="line"/>
      <point x="60" y="1486" type="line"/>
      <point x="60" y="1358" type="line"/>
      <point x="540" y="1358" type="line"/>
    </contour>
  </outline>
</glyph>
<glyph name="U" format="2">
  <advance width="1440"/>
  <unicode hex="0055"/>
  <anchor x="720" y="0" name="bottom"/>
  <anchor x="732" y="-166" name="btm"/>
  <anchor x="865" y="0" name="ogonek"/>
  <anchor x="730" y="1660" name="top"/>
  <anchor x="1150" y="1486" name="topright"/>
  <outline>
    <contour>
      <point x="726" y="-16" type="curve" smooth="yes"/>
      <point x="1092" y="-16"/>
      <point x="1274" y="202"/>
      <point x="1274" y="630" type="curve" smooth="yes"/>
      <point x="1274" y="1486" type="line"/>
      <point x="1110" y="1486" type="line"/>
      <point x="1110" y="668" type="line" smooth="yes"/>
      <point x="1110" y="242"/>
      <point x="966" y="114"/>
      <point x="732" y="114" type="curve" smooth="yes"/>
      <point x="480" y="114"/>
      <point x="332" y="236"/>
      <point x="332" y="668" type="curve" smooth="yes"/>
      <point x="332" y="1488" type="line"/>
      <point x="166" y="1488" type="line"/>
      <point x="166" y="628" type="line" smooth="yes"/>
      <point x="166" y="210"/>
      <point x="334" y="-16"/>
    </contour>
  </outline>
</glyph>
<glyph name="V" format="2">
  <advance width="1300"/>
  <unicode hex="0056"/>
  <anchor x="650" y="0" name="bottom"/>
  <anchor x="656" y="-166" name="btm"/>
  <anchor x="656" y="1660" name="top"/>
  <outline>
    <contour>
      <point x="590" y="-16" type="line"/>
      <point x="730" y="-16" type="line"/>
      <point x="1270" y="1486" type="line"/>
      <point x="1096" y="1486" type="line"/>
      <point x="736" y="426" type="line"/>
      <point x="662" y="188" type="line"/>
      <point x="586" y="426" type="line"/>
      <point x="206" y="1486" type="line"/>
      <point x="30" y="1486" type="line"/>
    </contour>
  </outline>
</glyph>
<glyph name="W" format="2">
  <advance width="1874"/>
  <unicode hex="0057"/>
  <anchor x="936" y="0" name="bottom"/>
  <anchor x="938" y="-166" name="btm"/>
  <anchor x="936" y="1660" name="top"/>
  <outline>
    <contour>
      <point x="438" y="-16" type="line"/>
      <point x="582" y="-16" type="line"/>
      <point x="904" y="1054" type="line"/>
      <point x="964" y="1358" type="line"/>
      <point x="914" y="1358" type="line"/>
      <point x="976" y="1054" type="line"/>
      <point x="1294" y="-16" type="line"/>
      <point x="1456" y="-16" type="line"/>
      <point x="1838" y="1486" type="line"/>
      <point x="1670" y="1486" type="line"/>
      <point x="1440" y="502" type="line"/>
      <point x="1366" y="116" type="line"/>
      <point x="1394" y="116" type="line"/>
      <point x="1296" y="504" type="line"/>
      <point x="1002" y="1486" type="line"/>
      <point x="880" y="1486" type="line"/>
      <point x="588" y="504" type="line"/>
      <point x="502" y="116" type="line"/>
      <point x="528" y="116" type="line"/>
      <point x="448" y="504" type="line"/>
      <point x="206" y="1486" type="line"/>
      <point x="36" y="1486" type="line"/>
    </contour>
  </outline>
</glyph>
<glyph name="X" format="2">
  <advance width="1298"/>
  <unicode hex="0058"/>
  <anchor x="650" y="0" name="bottom"/>
  <anchor x="638" y="-166" name="btm"/>
  <anchor x="638" y="1660" name="top"/>
  <outline>
    <contour>
      <point x="72" y="0" type="line"/>
      <point x="250" y="0" type="line"/>
      <point x="552" y="492" type="line"/>
      <point x="664" y="678" type="line"/>
      <point x="618" y="678" type="line"/>
      <point x="732" y="492" type="line"/>
      <point x="1040" y="0" type="line"/>
      <point x="1228" y="0" type="line"/>
      <point x="712" y="792" type="line"/>
      <point x="734" y="722" type="line"/>
      <point x="1214" y="1486" type="line"/>
      <point x="1036" y="1486" type="line"/>
      <point x="758" y="1034" type="line"/>
      <point x="638" y="830" type="line"/>
      <point x="676" y="830" type="line"/>
      <point x="552" y="1034" type="line"/>
      <point x="264" y="1488" type="line"/>
      <point x="78" y="1486" type="line"/>
      <point x="578" y="722" type="line"/>
      <point x="566" y="790" type="line"/>
    </contour>
  </outline>
</glyph>
<glyph name="Y" format="2">
  <advance width="1220"/>
  <unicode hex="0059"/>
  <anchor x="610" y="0" name="bottom"/>
  <anchor x="628" y="-166" name="btm"/>
  <anchor x="628" y="1660" name="top"/>
  <anchor x="40" y="1486" name="topleft"/>
  <outline>
    <contour>
      <point x="536" y="0" type="line"/>
      <point x="704" y="0" type="line"/>
      <point x="704" y="618" type="line"/>
      <point x="674" y="518" type="line"/>
      <point x="1190" y="1486" type="line"/>
      <point x="1016" y="1486" type="line"/>
      <point x="666" y="802" type="line"/>
      <point x="610" y="658" type="line"/>
      <point x="636" y="658" type="line"/>
      <point x="572" y="802" type="line"/>
      <point x="208" y="1486" type="line"/>
      <point x="30" y="1486" type="line"/>
      <point x="564" y="520" type="line"/>
      <point x="536" y="620" type="line"/>
    </contour>
  </outline>
</glyph>
<glyph name="Z" format="2">
  <advance width="1238"/>
  <unicode hex="005A"/>
  <anchor x="600" y="0" name="bottom"/>
  <anchor x="602" y="-166" name="btm"/>
  <anchor x="600" y="744" name="center"/>
  <anchor x="630" y="1660" name="top"/>
  <outline>
    <contour>
      <point x="104" y="0" type="line"/>
      <point x="1116" y="0" type="line"/>
      <point x="1116" y="130" type="line"/>
      <point x="288" y="130" type="line"/>
      <point x="372" y="234" type="line"/>
      <point x="1158" y="1424" type="line"/>
      <point x="1122" y="1486" type="line"/>
      <point x="150" y="1486" type="line"/>
      <point x="150" y="1354" type="line"/>
      <point x="942" y="1354" type="line"/>
      <point x="858" y="1246" type="line"/>
      <point x="70" y="64" type="line"/>
    </contour>
  </outline>
</glyph>
<glyph name="bracketleft" format="2">
  <advance width="822"/>
  <unicode hex="005B"/>
  <outline>
    <contour>
      <point x="220" y="2" type="line"/>
      <point x="220" y="-146"/>
      <point x="248" y="-186"/>
      <point x="368" y="-186" type="curve" smooth="yes"/>
      <point x="468" y="-186"/>
      <point x="584" y="-180"/>
      <point x="672" y="-166" type="curve"/>
      <point x="672" y="-82" type="line"/>
      <point x="376" y="-80" type="line"/>
      <point x="376" y="1588" type="line"/>
      <point x="672" y="1588" type="line"/>
      <point x="672" y="1676" type="line"/>
      <point x="584" y="1686"/>
      <point x="468" y="1696"/>
      <point x="368" y="1696" type="curve" smooth="yes"/>
      <point x="248" y="1696"/>
      <point x="220" y="1656"/>
      <point x="220" y="1508" type="curve" smooth="yes"/>
    </contour>
  </outline>
</glyph>
<glyph name="asciicircum" format="2">
  <advance width="1330"/>
  <unicode hex="005E"/>
  <outline>
    <contour>
      <point x="184" y="498" type="line"/>
      <point x="342" y="498" type="line"/>
      <point x="672" y="1334" type="line"/>
      <point x="658" y="1334" type="line"/>
      <point x="990" y="498" type="line"/>
      <point x="1146" y="498" type="line"/>
      <point x="740" y="1496" type="line"/>
      <point x="588" y="1496" type="line"/>
    </contour>
  </outline>
</glyph>
<glyph name="underscore" format="2">
  <advance width="1652"/>
  <unicode hex="005F"/>
  <outline>
    <contour>
      <point x="-40" y="-392" type="line"/>
      <point x="1692" y="-392" type="line"/>
      <point x="1692" y="-290" type="line"/>
      <point x="-40" y="-290" type="line"/>
    </contour>
  </outline>
</glyph>
<glyph name="grave" format="2">
  <advance width="544"/>
  <unicode hex="0060"/>
  <outline>
    <contour>
      <point x="496" y="1350" type="line"/>
      <point x="380" y="1480"/>
      <point x="264" y="1612"/>
      <point x="166" y="1740" type="curve"/>
      <point x="48" y="1638" type="line"/>
      <point x="126" y="1526"/>
      <point x="320" y="1346"/>
      <point x="412" y="1284" type="curve"/>
    </contour>
  </outline>
</glyph>
<glyph name="a" format="2">
  <advance width="1118"/>
  <unicode hex="0061"/>
  <anchor x="560" y="0" name="bottom"/>
  <anchor x="562" y="-200" name="btm"/>
  <anchor x="944" y="0" name="ogonek"/>
  <anchor x="548" y="1660" name="top"/>
  <outline>
    <contour>
      <point x="446" y="-16" type="curve" smooth="yes"/>
      <point x="606" y="-16"/>
      <point x="734" y="50"/>
      <point x="794" y="106" type="curve"/>
      <point x="820" y="172" type="line"/>
      <point x="784" y="204" type="line"/>
      <point x="760" y="178"/>
      <point x="636" y="106"/>
      <point x="494" y="106" type="curve" smooth="yes"/>
      <point x="334" y="106"/>
      <point x="268" y="190"/>
      <point x="268" y="306" type="curve" smooth="yes"/>
      <point x="268" y="406"/>
      <point x="326" y="468"/>
      <point x="438" y="510" type="curve" smooth="yes"/>
      <point x="532" y="548"/>
      <point x="702" y="562"/>
      <point x="782" y="562" type="curve"/>
      <point x="818" y="620" type="line"/>
      <point x="782" y="666" type="line"/>
      <point x="666" y="666"/>
      <point x="478" y="650"/>
      <point x="348" y="600" type="curve" smooth="yes"/>
      <point x="192" y="542"/>
      <point x="108" y="440"/>
      <point x="108" y="294" type="curve" smooth="yes"/>
      <point x="108" y="100"/>
      <point x="250" y="-16"/>
    </contour>
    <contour>
      <point x="944" y="0" type="line"/>
      <point x="944" y="776" type="line" smooth="yes"/>
      <point x="944" y="1056"/>
      <point x="792" y="1130"/>
      <point x="564" y="1130" type="curve" smooth="yes"/>
      <point x="384" y="1130"/>
      <point x="204" y="1044"/>
      <point x="166" y="1018" type="curve"/>
      <point x="206" y="902" type="line"/>
      <point x="264" y="944"/>
      <point x="410" y="996"/>
      <point x="522" y="996" type="curve" smooth="yes"/>
      <point x="696" y="996"/>
      <point x="782" y="952"/>
      <point x="782" y="782" type="curve" smooth="yes"/>
      <point x="782" y="160" type="line"/>
      <point x="792" y="158" type="line"/>
      <point x="792" y="0" type="line"/>
    </contour>
  </outline>
</glyph>
<glyph name="b" format="2">
  <advance width="1222"/>
  <unicode hex="0062"/>
  <anchor x="616" y="0" name="bottom"/>
  <anchor x="638" y="-166" name="btm"/>
  <anchor x="744" y="1660" name="top"/>
  <outline>
    <contour>
      <point x="188" y="1622" type="line"/>
      <point x="188" y="62" type="line"/>
      <point x="346" y="134" type="line"/>
      <point x="346" y="962" type="line"/>
      <point x="338" y="968" type="line"/>
      <point x="346" y="1158" type="line"/>
      <point x="346" y="1622" type="line"/>
    </contour>
    <contour>
      <point x="562" y="-16" type="curve" smooth="yes"/>
      <point x="896" y="-16"/>
      <point x="1122" y="234"/>
      <point x="1122" y="598" type="curve" smooth="yes"/>
      <point x="1122" y="954"/>
      <point x="926" y="1128"/>
      <point x="682" y="1128" type="curve" smooth="yes"/>
      <point x="482" y="1128"/>
      <point x="370" y="1024"/>
      <point x="318" y="970" type="curve"/>
      <point x="344" y="886" type="line"/>
      <point x="400" y="936"/>
      <point x="514" y="1000"/>
      <point x="638" y="1000" type="curve" smooth="yes"/>
      <point x="848" y="1000"/>
      <point x="958" y="852"/>
      <point x="956" y="576" type="curve" smooth="yes"/>
      <point x="954" y="258"/>
      <point x="776" y="104"/>
      <point x="580" y="104" type="curve" smooth="yes"/>
      <point x="476" y="104"/>
      <point x="384" y="124"/>
      <point x="346" y="152" type="curve"/>
      <point x="188" y="62" type="line"/>
      <point x="226" y="36"/>
      <point x="398" y="-16"/>
    </contour>
  </outline>
</glyph>
<glyph name="c" format="2">
  <advance width="996"/>
  <unicode hex="0063"/>
  <anchor x="494" y="0" name="bottom"/>
  <anchor x="560" y="-166" name="btm"/>
  <anchor x="602" y="1660" name="top"/>
  <outline>
    <contour>
      <point x="104" y="540" type="curve" smooth="yes"/>
      <point x="104" y="222"/>
      <point x="278" y="-16"/>
      <point x="584" y="-16" type="curve" smooth="yes"/>
      <point x="726" y="-16"/>
      <point x="854" y="26"/>
      <point x="924" y="90" type="curve"/>
      <point x="890" y="184" type="line"/>
      <point x="842" y="154"/>
      <point x="738" y="108"/>
      <point x="610" y="108" type="curve" smooth="yes"/>
      <point x="420" y="108"/>
      <point x="254" y="260"/>
      <point x="262" y="572" type="curve" smooth="yes"/>
      <point x="270" y="864"/>
      <point x="438" y="1002"/>
      <point x="620" y="1002" type="curve" smooth="yes"/>
      <point x="724" y="1002"/>
      <point x="816" y="982"/>
      <point x="872" y="942" type="curve"/>
      <point x="900" y="1072" type="line"/>
      <point x="860" y="1098"/>
      <point x="760" y="1128"/>
      <point x="628" y="1128" type="curve" smooth="yes"/>
      <point x="290" y="1128"/>
      <point x="102" y="876"/>
    </contour>
  </outline>
</glyph>
<glyph name="d" format="2">
  <advance width="1210"/>
  <unicode hex="0064"/>
  <anchor x="606" y="0" name="bottom"/>
  <anchor x="598" y="-166" name="btm"/>
  <anchor x="606" y="558" name="center"/>
  <anchor x="368" y="1660" name="top"/>
  <anchor x="1170" y="1114" name="topright"/>
  <outline>
    <contour>
      <point x="884" y="0" type="line"/>
      <point x="1034" y="0" type="line"/>
      <point x="1034" y="1626" type="line"/>
      <point x="876" y="1626" type="line"/>
      <point x="876" y="1158" type="line"/>
      <point x="882" y="982" type="line"/>
      <point x="876" y="978" type="line"/>
      <point x="876" y="158" type="line"/>
      <point x="884" y="154" type="line"/>
    </contour>
    <contour>
      <point x="540" y="-16" type="curve" smooth="yes"/>
      <point x="746" y="-16"/>
      <point x="856" y="94"/>
      <point x="904" y="142" type="curve"/>
      <point x="878" y="226" type="line"/>
      <point x="824" y="180"/>
      <point x="714" y="112"/>
      <point x="584" y="112" type="curve" smooth="yes"/>
      <point x="384" y="112"/>
      <point x="262" y="252"/>
      <point x="266" y="542" type="curve" smooth="yes"/>
      <point x="270" y="840"/>
      <point x="430" y="1010"/>
      <point x="642" y="1010" type="curve" smooth="yes"/>
      <point x="764" y="1010"/>
      <point x="842" y="986"/>
      <point x="878" y="954" type="curve"/>
      <point x="938" y="1060" type="line"/>
      <point x="914" y="1084"/>
      <point x="802" y="1128"/>
      <point x="658" y="1128" type="curve" smooth="yes"/>
      <point x="322" y="1128"/>
      <point x="100" y="876"/>
      <point x="100" y="520" type="curve" smooth="yes"/>
      <point x="100" y="144"/>
      <point x="312" y="-16"/>
    </contour>
  </outline>
</glyph>
<glyph name="e" format="2">
  <advance width="1110"/>
  <unicode hex="0065"/>
  <anchor x="556" y="0" name="bottom"/>
  <anchor x="596" y="-166" name="btm"/>
  <anchor x="746" y="0" name="ogonek"/>
  <anchor x="592" y="1660" name="top"/>
  <outline>
    <contour>
      <point x="590" y="-16" type="curve" smooth="yes"/>
      <point x="728" y="-16"/>
      <point x="894" y="26"/>
      <point x="966" y="86" type="curve"/>
      <point x="932" y="192" type="line"/>
      <point x="874" y="154"/>
      <point x="734" y="108"/>
      <point x="632" y="108" type="curve" smooth="yes"/>
      <point x="426" y="108"/>
      <point x="276" y="214"/>
      <point x="266" y="500" type="curve" smooth="yes"/>
      <point x="256" y="866"/>
      <point x="402" y="1012"/>
      <point x="594" y="1012" type="curve" smooth="yes"/>
      <point x="796" y="1012"/>
      <point x="862" y="854"/>
      <point x="850" y="650" type="curve"/>
      <point x="218" y="650" type="line"/>
      <point x="204" y="540" type="line"/>
      <point x="996" y="540" type="line"/>
      <point x="1004" y="586"/>
      <point x="1004" y="640"/>
      <point x="1004" y="710" type="curve" smooth="yes"/>
      <point x="998" y="964"/>
      <point x="840" y="1132"/>
      <point x="604" y="1128" type="curve" smooth="yes"/>
      <point x="284" y="1126"/>
      <point x="106" y="886"/>
      <point x="106" y="552" type="curve" smooth="yes"/>
      <point x="106" y="196"/>
      <point x="278" y="-16"/>
    </contour>
  </outline>
</glyph>
<glyph name="f" format="2">
  <advance width="782"/>
  <unicode hex="0066"/>
  <anchor x="392" y="0" name="bottom"/>
  <anchor x="376" y="-166" name="btm"/>
  <anchor x="318" y="2030" name="top"/>
  <outline>
    <contour>
      <point x="266" y="0" type="line"/>
      <point x="428" y="0" type="line"/>
      <point x="428" y="990" type="line"/>
      <point x="724" y="990" type="line"/>
      <point x="724" y="1114" type="line"/>
      <point x="428" y="1114" type="line"/>
      <point x="428" y="1238" type="line" smooth="yes"/>
      <point x="428" y="1418"/>
      <point x="508" y="1512"/>
      <point x="626" y="1512" type="curve" smooth="yes"/>
      <point x="704" y="1512"/>
      <point x="746" y="1504"/>
      <point x="782" y="1492" type="curve"/>
      <point x="782" y="1622" type="line"/>
      <point x="760" y="1630"/>
      <point x="708" y="1642"/>
      <point x="648" y="1642" type="curve" smooth="yes"/>
      <point x="470" y="1642"/>
      <point x="266" y="1534"/>
      <point x="266" y="1204" type="curve" smooth="yes"/>
      <point x="266" y="1114" type="line"/>
      <point x="74" y="1080" type="line"/>
      <point x="74" y="990" type="line"/>
      <point x="266" y="990" type="line"/>
    </contour>
  </outline>
</glyph>
<glyph name="g" format="2">
  <advance width="1196"/>
  <unicode hex="0067"/>
  <anchor x="598" y="-546" name="bottom"/>
  <anchor x="556" y="1660" name="top"/>
  <outline>
    <contour>
      <point x="568" y="-504" type="curve" smooth="yes"/>
      <point x="866" y="-504"/>
      <point x="1106" y="-368"/>
      <point x="1106" y="-148" type="curve" smooth="yes"/>
      <point x="1106" y="-8"/>
      <point x="1042" y="128"/>
      <point x="724" y="128" type="curve" smooth="yes"/>
      <point x="482" y="128" type="line" smooth="yes"/>
      <point x="364" y="128"/>
      <point x="322" y="158"/>
      <point x="322" y="252" type="curve" smooth="yes"/>
      <point x="322" y="320"/>
      <point x="392" y="386"/>
      <point x="436" y="406" type="curve"/>
      <point x="332" y="436" type="line"/>
      <point x="248" y="378"/>
      <point x="174" y="290"/>
      <point x="174" y="212" type="curve" smooth="yes"/>
      <point x="174" y="140"/>
      <point x="190" y="64"/>
      <point x="288" y="32" type="curve" smooth="yes"/>
      <point x="300" y="28"/>
      <point x="312" y="18"/>
      <point x="324" y="16" type="curve" smooth="yes"/>
      <point x="368" y="8"/>
      <point x="428" y="0"/>
      <point x="506" y="0" type="curve" smooth="yes"/>
      <point x="656" y="0" type="line" smooth="yes"/>
      <point x="876" y="0"/>
      <point x="950" y="-54"/>
      <point x="950" y="-182" type="curve" smooth="yes"/>
      <point x="950" y="-326"/>
      <point x="766" y="-392"/>
      <point x="574" y="-392" type="curve" smooth="yes"/>
      <point x="362" y="-392"/>
      <point x="262" y="-326"/>
      <point x="262" y="-170" type="curve" smooth="yes"/>
      <point x="262" y="-54"/>
      <point x="342" y="6"/>
      <point x="390" y="40" type="curve"/>
      <point x="280" y="56" type="line"/>
      <point x="210" y="26"/>
      <point x="102" y="-64"/>
      <point x="102" y="-190" type="curve" smooth="yes"/>
      <point x="102" y="-412"/>
      <point x="286" y="-504"/>
    </contour>
    <contour>
      <point x="564" y="372" type="curve" smooth="yes"/>
      <point x="808" y="372"/>
      <point x="1004" y="508"/>
      <point x="1004" y="760" type="curve" smooth="yes"/>
      <point x="1004" y="1016"/>
      <point x="802" y="1134"/>
      <point x="570" y="1128" type="curve" smooth="yes"/>
      <point x="332" y="1124"/>
      <point x="138" y="1004"/>
      <point x="138" y="740" type="curve" smooth="yes"/>
      <point x="138" y="516"/>
      <point x="324" y="372"/>
    </contour>
    <contour>
      <point x="566" y="480" type="curve" smooth="yes"/>
      <point x="392" y="480"/>
      <point x="300" y="596"/>
      <point x="300" y="748" type="curve" smooth="yes"/>
      <point x="300" y="956"/>
      <point x="434" y="1016"/>
      <point x="578" y="1018" type="curve" smooth="yes"/>
      <point x="742" y="1018"/>
      <point x="842" y="932"/>
      <point x="842" y="754" type="curve" smooth="yes"/>
      <point x="842" y="556"/>
      <point x="728" y="480"/>
    </contour>
    <contour>
      <point x="876" y="980" type="line"/>
      <point x="1150" y="980" type="line"/>
      <point x="1150" y="1110" type="line"/>
      <point x="1058" y="1110" type="line" smooth="yes"/>
      <point x="958" y="1110"/>
      <point x="848" y="1074"/>
      <point x="818" y="1044" type="curve"/>
    </contour>
  </outline>
</glyph>
<glyph name="h" format="2">
  <advance width="1280"/>
  <unicode hex="0068"/>
  <anchor x="640" y="0" name="bottom"/>
  <anchor x="656" y="-166" name="btm"/>
  <anchor x="640" y="984" name="center"/>
  <anchor x="270" y="1738" name="top"/>
  <outline>
    <contour>
      <point x="188" y="0" type="line"/>
      <point x="352" y="0" type="line"/>
      <point x="352" y="858" type="line"/>
      <point x="440" y="926"/>
      <point x="576" y="990"/>
      <point x="686" y="994" type="curve" smooth="yes"/>
      <point x="876" y="1000"/>
      <point x="934" y="914"/>
      <point x="934" y="672" type="curve" smooth="yes"/>
      <point x="934" y="0" type="line"/>
      <point x="1096" y="0" type="line"/>
      <point x="1096" y="662" type="line" smooth="yes"/>
      <point x="1098" y="1008"/>
      <point x="998" y="1134"/>
      <point x="752" y="1130" type="curve" smooth="yes"/>
      <point x="586" y="1126"/>
      <point x="414" y="1036"/>
      <point x="334" y="970" type="curve"/>
      <point x="342" y="958" type="line"/>
      <point x="352" y="1130" type="line"/>
      <point x="352" y="1626" type="line"/>
      <point x="188" y="1626" type="line"/>
    </contour>
  </outline>
</glyph>
<glyph name="k" format="2">
  <advance width="1142"/>
  <unicode hex="006B"/>
  <anchor x="574" y="0" name="bottom"/>
  <anchor x="598" y="-166" name="btm"/>
  <anchor x="660" y="1660" name="top"/>
  <outline>
    <contour>
      <point x="1064" y="1112" type="line"/>
      <point x="870" y="1112" type="line"/>
      <point x="294" y="524" type="line"/>
      <point x="338" y="496" type="line"/>
      <point x="344" y="692" type="line"/>
      <point x="344" y="1622" type="line"/>
      <point x="188" y="1622" type="line"/>
      <point x="188" y="546" type="line"/>
      <point x="188" y="0" type="line"/>
      <point x="344" y="0" type="line"/>
      <point x="344" y="218" type="line"/>
      <point x="340" y="416" type="line"/>
      <point x="322" y="374" type="line"/>
    </contour>
    <contour>
      <point x="506" y="588" type="line"/>
      <point x="924" y="0" type="line"/>
      <point x="1112" y="0" type="line"/>
      <point x="618" y="692" type="line"/>
    </contour>
  </outline>
</glyph>
<glyph name="l" format="2">
  <advance width="544"/>
  <unicode hex="006C"/>
  <anchor x="272" y="0" name="bottom"/>
  <anchor x="258" y="-166" name="btm"/>
  <anchor x="272" y="984" name="center"/>
  <anchor x="274" y="1742" name="top"/>
  <anchor x="522" y="1966" name="topright"/>
  <outline>
    <contour>
      <point x="190" y="0" type="line"/>
      <point x="354" y="0" type="line"/>
      <point x="354" y="1626" type="line"/>
      <point x="190" y="1626" type="line"/>
    </contour>
  </outline>
</glyph>
<glyph name="m" format="2">
  <advance width="1938"/>
  <unicode hex="006D"/>
  <anchor x="970" y="0" name="bottom"/>
  <anchor x="980" y="-166" name="btm"/>
  <anchor x="984" y="1660" name="top"/>
  <outline>
    <contour>
      <point x="192" y="0" type="line"/>
      <point x="356" y="0" type="line"/>
      <point x="356" y="858" type="line"/>
      <point x="444" y="930"/>
      <point x="584" y="988"/>
      <point x="682" y="992" type="curve" smooth="yes"/>
      <point x="866" y="1000"/>
      <point x="902" y="902"/>
      <point x="902" y="680" type="curve" smooth="yes"/>
      <point x="902" y="0" type="line"/>
      <point x="1064" y="0" type="line"/>
      <point x="1064" y="692" type="line" smooth="yes"/>
      <point x="1064" y="1034"/>
      <point x="972" y="1134"/>
      <point x="748" y="1130" type="curve" smooth="yes"/>
      <point x="594" y="1126"/>
      <point x="420" y="1036"/>
      <point x="338" y="970" type="curve"/>
      <point x="338" y="1112" type="line"/>
      <point x="192" y="1112" type="line"/>
    </contour>
    <contour>
      <point x="1048" y="872" type="line"/>
      <point x="1132" y="930"/>
      <point x="1260" y="992"/>
      <point x="1366" y="994" type="curve" smooth="yes"/>
      <point x="1562" y="1000"/>
      <point x="1592" y="886"/>
      <point x="1592" y="678" type="curve" smooth="yes"/>
      <point x="1592" y="0" type="line"/>
      <point x="1754" y="0" type="line"/>
      <point x="1754" y="686" type="line" smooth="yes"/>
      <point x="1754" y="1018"/>
      <point x="1664" y="1132"/>
      <point x="1428" y="1130" type="curve" smooth="yes"/>
      <point x="1262" y="1128"/>
      <point x="1094" y="1038"/>
      <point x="1012" y="972" type="curve"/>
    </contour>
  </outline>
</glyph>
<glyph name="n" format="2">
  <advance width="1266"/>
  <unicode hex="006E"/>
  <anchor x="634" y="0" name="bottom"/>
  <anchor x="638" y="-166" name="btm"/>
  <anchor x="646" y="1660" name="top"/>
  <outline>
    <contour>
      <point x="192" y="0" type="line"/>
      <point x="356" y="0" type="line"/>
      <point x="356" y="858" type="line"/>
      <point x="440" y="924"/>
      <point x="576" y="992"/>
      <point x="680" y="994" type="curve" smooth="yes"/>
      <point x="872" y="1002"/>
      <point x="918" y="910"/>
      <point x="918" y="690" type="curve" smooth="yes"/>
      <point x="918" y="0" type="line"/>
      <point x="1082" y="0" type="line"/>
      <point x="1082" y="688" type="line" smooth="yes"/>
      <point x="1082" y="1016"/>
      <point x="990" y="1134"/>
      <point x="748" y="1130" type="curve" smooth="yes"/>
      <point x="586" y="1126"/>
      <point x="418" y="1030"/>
      <point x="338" y="970" type="curve"/>
      <point x="338" y="1112" type="line"/>
      <point x="192" y="1112" type="line"/>
    </contour>
  </outline>
</glyph>
<glyph name="o" format="2">
  <advance width="1194"/>
  <unicode hex="006F"/>
  <anchor x="598" y="0" name="bottom"/>
  <anchor x="594" y="-166" name="btm"/>
  <anchor x="598" y="558" name="center"/>
  <anchor x="710" y="0" name="ogonek"/>
  <anchor x="600" y="1660" name="top"/>
  <anchor x="832" y="1054" name="topright"/>
  <outline>
    <contour>
      <point x="588" y="-16" type="curve" smooth="yes"/>
      <point x="876" y="-16"/>
      <point x="1086" y="186"/>
      <point x="1092" y="542" type="curve" smooth="yes"/>
      <point x="1096" y="856"/>
      <point x="956" y="1128"/>
      <point x="608" y="1128" type="curve" smooth="yes"/>
      <point x="326" y="1128"/>
      <point x="108" y="932"/>
      <point x="102" y="578" type="curve" smooth="yes"/>
      <point x="98" y="262"/>
      <point x="234" y="-16"/>
    </contour>
    <contour>
      <point x="592" y="100" type="curve" smooth="yes"/>
      <point x="366" y="104"/>
      <point x="268" y="322"/>
      <point x="268" y="576" type="curve" smooth="yes"/>
      <point x="270" y="854"/>
      <point x="396" y="1014"/>
      <point x="606" y="1010" type="curve" smooth="yes"/>
      <point x="828" y="1008"/>
      <point x="928" y="804"/>
      <point x="926" y="548" type="curve" smooth="yes"/>
      <point x="926" y="270"/>
      <point x="804" y="98"/>
    </contour>
  </outline>
</glyph>
<glyph name="p" format="2">
  <advance width="1218"/>
  <unicode hex="0070"/>
  <anchor x="610" y="0" name="bottom"/>
  <anchor x="616" y="-166" name="btm"/>
  <anchor x="680" y="1660" name="top"/>
  <outline>
    <contour>
      <point x="182" y="-494" type="line"/>
      <point x="344" y="-494" type="line"/>
      <point x="344" y="-136" type="line"/>
      <point x="342" y="48" type="line"/>
      <point x="344" y="70" type="line"/>
      <point x="344" y="952" type="line"/>
      <point x="330" y="972" type="line"/>
      <point x="330" y="1114" type="line"/>
      <point x="182" y="1114" type="line"/>
    </contour>
    <contour>
      <point x="560" y="-16" type="curve" smooth="yes"/>
      <point x="896" y="-16"/>
      <point x="1118" y="238"/>
      <point x="1118" y="592" type="curve" smooth="yes"/>
      <point x="1118" y="970"/>
      <point x="906" y="1128"/>
      <point x="678" y="1128" type="curve" smooth="yes"/>
      <point x="472" y="1128"/>
      <point x="366" y="1020"/>
      <point x="318" y="970" type="curve"/>
      <point x="344" y="886" type="line"/>
      <point x="398" y="934"/>
      <point x="504" y="1000"/>
      <point x="634" y="1000" type="curve" smooth="yes"/>
      <point x="834" y="1000"/>
      <point x="954" y="860"/>
      <point x="952" y="570" type="curve" smooth="yes"/>
      <point x="948" y="274"/>
      <point x="788" y="104"/>
      <point x="574" y="104" type="curve" smooth="yes"/>
      <point x="454" y="104"/>
      <point x="380" y="128"/>
      <point x="344" y="160" type="curve"/>
      <point x="284" y="52" type="line"/>
      <point x="308" y="30"/>
      <point x="416" y="-16"/>
    </contour>
  </outline>
</glyph>
<glyph name="q" format="2">
  <advance width="1208"/>
  <unicode hex="0071"/>
  <anchor x="604" y="0" name="bottom"/>
  <anchor x="592" y="-166" name="btm"/>
  <anchor x="568" y="1660" name="top"/>
  <outline>
    <contour>
      <point x="872" y="-136" type="line"/>
      <point x="872" y="-494" type="line"/>
      <point x="1036" y="-494" type="line"/>
      <point x="1036" y="1118" type="line"/>
      <point x="854" y="1080" type="line"/>
      <point x="888" y="1000" type="line"/>
      <point x="872" y="978" type="line"/>
      <point x="872" y="188" type="line"/>
      <point x="876" y="118" type="line"/>
    </contour>
    <contour>
      <point x="540" y="-16" type="curve" smooth="yes"/>
      <point x="746" y="-16"/>
      <point x="852" y="94"/>
      <point x="902" y="142" type="curve"/>
      <point x="876" y="226" type="line"/>
      <point x="822" y="180"/>
      <point x="714" y="112"/>
      <point x="584" y="112" type="curve" smooth="yes"/>
      <point x="384" y="112"/>
      <point x="262" y="252"/>
      <point x="266" y="542" type="curve" smooth="yes"/>
      <point x="270" y="840"/>
      <point x="430" y="1010"/>
      <point x="642" y="1010" type="curve" smooth="yes"/>
      <point x="764" y="1010"/>
      <point x="838" y="986"/>
      <point x="874" y="954" type="curve"/>
      <point x="946" y="1060" type="line"/>
      <point x="922" y="1084"/>
      <point x="802" y="1128"/>
      <point x="658" y="1128" type="curve" smooth="yes"/>
      <point x="322" y="1128"/>
      <point x="100" y="876"/>
      <point x="100" y="520" type="curve" smooth="yes"/>
      <point x="100" y="144"/>
      <point x="312" y="-16"/>
    </contour>
  </outline>
</glyph>
<glyph name="r" format="2">
  <advance width="798"/>
  <unicode hex="0072"/>
  <anchor x="254" y="0" name="bottom"/>
  <anchor x="264" y="-166" name="btm"/>
  <anchor x="470" y="1660" name="top"/>
  <outline>
    <contour>
      <point x="326" y="846" type="line"/>
      <point x="378" y="902"/>
      <point x="494" y="986"/>
      <point x="630" y="986" type="curve" smooth="yes"/>
      <point x="712" y="986"/>
      <point x="746" y="972"/>
      <point x="766" y="962" type="curve"/>
      <point x="766" y="1116" type="line"/>
      <point x="746" y="1124"/>
      <point x="710" y="1128"/>
      <point x="660" y="1128" type="curve" smooth="yes"/>
      <point x="506" y="1128"/>
      <point x="348" y="1010"/>
      <point x="314" y="954" type="curve"/>
    </contour>
    <contour>
      <point x="172" y="0" type="line"/>
      <point x="336" y="0" type="line"/>
      <point x="336" y="884" type="line"/>
      <point x="322" y="954" type="line"/>
      <point x="312" y="1112" type="line"/>
      <point x="172" y="1112" type="line"/>
    </contour>
  </outline>
</glyph>
<glyph name="s" format="2">
  <advance width="948"/>
  <unicode hex="0073"/>
  <anchor x="468" y="0" name="bottom"/>
  <anchor x="478" y="-166" name="btm"/>
  <anchor x="484" y="1660" name="top"/>
  <outline>
    <contour>
      <point x="108" y="64" type="line"/>
      <point x="172" y="22"/>
      <point x="320" y="-16"/>
      <point x="462" y="-16" type="curve" smooth="yes"/>
      <point x="698" y="-16"/>
      <point x="850" y="94"/>
      <point x="850" y="290" type="curve" smooth="yes"/>
      <point x="850" y="482"/>
      <point x="658" y="564"/>
      <point x="484" y="638" type="curve" smooth="yes"/>
      <point x="366" y="688"/>
      <point x="266" y="740"/>
      <point x="268" y="856" type="curve" smooth="yes"/>
      <point x="270" y="944"/>
      <point x="352" y="1008"/>
      <point x="512" y="1008" type="curve" smooth="yes"/>
      <point x="620" y="1008"/>
      <point x="726" y="976"/>
      <point x="764" y="948" type="curve"/>
      <point x="792" y="1072" type="line"/>
      <point x="752" y="1094"/>
      <point x="636" y="1130"/>
      <point x="506" y="1128" type="curve" smooth="yes"/>
      <point x="296" y="1128"/>
      <point x="120" y="1040"/>
      <point x="116" y="848" type="curve" smooth="yes"/>
      <point x="114" y="666"/>
      <point x="262" y="570"/>
      <point x="472" y="486" type="curve" smooth="yes"/>
      <point x="566" y="448"/>
      <point x="698" y="396"/>
      <point x="698" y="278" type="curve" smooth="yes"/>
      <point x="698" y="164"/>
      <point x="596" y="106"/>
      <point x="454" y="106" type="curve" smooth="yes"/>
      <point x="320" y="108"/>
      <point x="176" y="158"/>
      <point x="134" y="188" type="curve"/>
    </contour>
  </outline>
</glyph>
<glyph name="t" format="2">
  <advance width="838"/>
  <unicode hex="0074"/>
  <anchor x="412" y="0" name="bottom"/>
  <anchor x="478" y="-166" name="btm"/>
  <anchor x="412" y="558" name="center"/>
  <anchor x="340" y="1826" name="top"/>
  <anchor x="786" y="1114" name="topright"/>
  <outline>
    <contour>
      <point x="484" y="-16" type="curve" smooth="yes"/>
      <point x="586" y="-16"/>
      <point x="722" y="30"/>
      <point x="778" y="76" type="curve"/>
      <point x="750" y="170" type="line"/>
      <point x="712" y="146"/>
      <point x="608" y="116"/>
      <point x="540" y="116" type="curve" smooth="yes"/>
      <point x="430" y="116"/>
      <point x="392" y="134"/>
      <point x="392" y="356" type="curve" smooth="yes"/>
      <point x="392" y="990" type="line"/>
      <point x="738" y="990" type="line"/>
      <point x="738" y="1114" type="line"/>
      <point x="392" y="1114" type="line"/>
      <point x="392" y="1368" type="line"/>
      <point x="294" y="1368" type="line"/>
      <point x="274" y="1302"/>
      <point x="258" y="1184"/>
      <point x="246" y="1150" type="curve" smooth="yes"/>
      <point x="228" y="1104"/>
      <point x="148" y="1100"/>
      <point x="76" y="1080" type="curve"/>
      <point x="76" y="990" type="line"/>
      <point x="230" y="990" type="line"/>
      <point x="230" y="264" type="line" smooth="yes"/>
      <point x="230" y="26"/>
      <point x="348" y="-16"/>
    </contour>
  </outline>
</glyph>
<glyph name="u" format="2">
  <advance width="1196"/>
  <unicode hex="0075"/>
  <anchor x="586" y="0" name="bottom"/>
  <anchor x="568" y="-166" name="btm"/>
  <anchor x="1015" y="0" name="ogonek"/>
  <anchor x="604" y="1660" name="top"/>
  <anchor x="942" y="1114" name="topright"/>
  <outline>
    <contour>
      <point x="480" y="-16" type="curve" smooth="yes"/>
      <point x="612" y="-16"/>
      <point x="768" y="42"/>
      <point x="872" y="116" type="curve"/>
      <point x="870" y="144" type="line"/>
      <point x="870" y="54" type="line" smooth="yes"/>
      <point x="870" y="-4"/>
      <point x="900" y="-12"/>
      <point x="952" y="-12" type="curve" smooth="yes"/>
      <point x="1016" y="-12" type="line"/>
      <point x="1016" y="1114" type="line"/>
      <point x="852" y="1114" type="line"/>
      <point x="852" y="224" type="line"/>
      <point x="790" y="176"/>
      <point x="658" y="120"/>
      <point x="546" y="120" type="curve" smooth="yes"/>
      <point x="372" y="120"/>
      <point x="316" y="174"/>
      <point x="316" y="454" type="curve" smooth="yes"/>
      <point x="316" y="1114" type="line"/>
      <point x="154" y="1114" type="line"/>
      <point x="154" y="460" type="line" smooth="yes"/>
      <point x="154" y="178"/>
      <point x="194" y="-16"/>
    </contour>
  </outline>
</glyph>
<glyph name="v" format="2">
  <advance width="1088"/>
  <unicode hex="0076"/>
  <anchor x="544" y="0" name="bottom"/>
  <anchor x="544" y="1114" name="top"/>
  <outline>
    <contour>
      <point x="482" y="-18" type="line"/>
      <point x="620" y="-18" type="line"/>
      <point x="1052" y="1114" type="line"/>
      <point x="878" y="1114" type="line"/>
      <point x="634" y="422" type="line"/>
      <point x="530" y="76" type="line"/>
      <point x="578" y="76" type="line"/>
      <point x="464" y="422" type="line"/>
      <point x="212" y="1114" type="line"/>
      <point x="36" y="1114" type="line"/>
    </contour>
  </outline>
</glyph>
<glyph name="w" format="2">
  <advance width="1596"/>
  <unicode hex="0077"/>
  <anchor x="798" y="0" name="bottom"/>
  <anchor x="804" y="-162" name="btm"/>
  <anchor x="804" y="1668" name="top"/>
  <outline>
    <contour>
      <point x="388" y="-18" type="line"/>
      <point x="542" y="-18" type="line"/>
      <point x="770" y="800" type="line"/>
      <point x="820" y="1030" type="line"/>
      <point x="784" y="1030" type="line"/>
      <point x="830" y="800" type="line"/>
      <point x="1062" y="-18" type="line"/>
      <point x="1212" y="-18" type="line"/>
      <point x="1558" y="1114" type="line"/>
      <point x="1400" y="1114" type="line"/>
      <point x="1184" y="344" type="line"/>
      <point x="1120" y="78" type="line"/>
      <point x="1164" y="78" type="line"/>
      <point x="1100" y="348" type="line"/>
      <point x="882" y="1114" type="line"/>
      <point x="722" y="1114" type="line"/>
      <point x="506" y="348" type="line"/>
      <point x="446" y="74" type="line"/>
      <point x="492" y="74" type="line"/>
      <point x="424" y="348" type="line"/>
      <point x="202" y="1114" type="line"/>
      <point x="38" y="1114" type="line"/>
    </contour>
  </outline>
</glyph>
<glyph name="x" format="2">
  <advance width="1054"/>
  <unicode hex="0078"/>
  <anchor x="524" y="0" name="bottom"/>
  <anchor x="538" y="-166" name="btm"/>
  <anchor x="538" y="1660" name="top"/>
  <outline>
    <contour>
      <point x="40" y="0" type="line"/>
      <point x="226" y="0" type="line"/>
      <point x="482" y="390" type="line"/>
      <point x="548" y="514" type="line"/>
      <point x="482" y="516" type="line"/>
      <point x="556" y="398" type="line"/>
      <point x="826" y="0" type="line"/>
      <point x="1014" y="0" type="line"/>
      <point x="592" y="594" type="line"/>
      <point x="592" y="538" type="line"/>
      <point x="1010" y="1114" type="line"/>
      <point x="828" y="1114" type="line"/>
      <point x="562" y="730" type="line"/>
      <point x="502" y="614" type="line"/>
      <point x="558" y="614" type="line"/>
      <point x="490" y="724" type="line"/>
      <point x="224" y="1114" type="line"/>
      <point x="40" y="1114" type="line"/>
      <point x="456" y="536" type="line"/>
      <point x="454" y="588" type="line"/>
    </contour>
  </outline>
</glyph>
<glyph name="y" format="2">
  <advance width="1082"/>
  <unicode hex="0079"/>
  <anchor x="890" y="0" name="bottom"/>
  <anchor x="592" y="1660" name="top"/>
  <outline>
    <contour>
      <point x="142" y="-482" type="line"/>
      <point x="152" y="-490"/>
      <point x="220" y="-496"/>
      <point x="250" y="-496" type="curve" smooth="yes"/>
      <point x="280" y="-496"/>
      <point x="322" y="-490"/>
      <point x="350" y="-482" type="curve" smooth="yes"/>
      <point x="496" y="-442"/>
      <point x="596" y="-294"/>
      <point x="684" y="-28" type="curve" smooth="yes"/>
      <point x="1066" y="1114" type="line"/>
      <point x="890" y="1114" type="line"/>
      <point x="658" y="350" type="line"/>
      <point x="572" y="54" type="line"/>
      <point x="620" y="54" type="line"/>
      <point x="520" y="350" type="line"/>
      <point x="252" y="1114" type="line"/>
      <point x="78" y="1114" type="line"/>
      <point x="496" y="0" type="line"/>
      <point x="564" y="0" type="line"/>
      <point x="550" y="22" type="line"/>
      <point x="478" y="-284"/>
      <point x="354" y="-360"/>
      <point x="238" y="-360" type="curve" smooth="yes"/>
      <point x="210" y="-360"/>
      <point x="162" y="-354"/>
      <point x="142" y="-348" type="curve"/>
    </contour>
  </outline>
</glyph>
<glyph name="z" format="2">
  <advance width="1036"/>
  <unicode hex="007A"/>
  <anchor x="514" y="0" name="bottom"/>
  <anchor x="514" y="-166" name="btm"/>
  <anchor x="514" y="558" name="center"/>
  <anchor x="526" y="1660" name="top"/>
  <outline>
    <contour>
      <point x="114" y="0" type="line"/>
      <point x="940" y="0" type="line"/>
      <point x="940" y="120" type="line"/>
      <point x="300" y="120" type="line"/>
      <point x="370" y="214" type="line"/>
      <point x="950" y="1042" type="line"/>
      <point x="922" y="1114" type="line"/>
      <point x="128" y="1114" type="line"/>
      <point x="128" y="988" type="line"/>
      <point x="730" y="988" type="line"/>
      <point x="662" y="892" type="line"/>
      <point x="80" y="64" type="line"/>
    </contour>
  </outline>
</glyph>
<glyph name="braceleft" format="2">
  <advance width="988"/>
  <unicode hex="007B"/>
  <outline>
    <contour>
      <point x="364" y="2" type="line"/>
      <point x="364" y="-146"/>
      <point x="398" y="-190"/>
      <point x="518" y="-190" type="curve" smooth="yes"/>
      <point x="624" y="-190"/>
      <point x="724" y="-182"/>
      <point x="808" y="-164" type="curve"/>
      <point x="808" y="-80" type="line"/>
      <point x="520" y="-80" type="line"/>
      <point x="520" y="568" type="line" smooth="yes"/>
      <point x="520" y="596"/>
      <point x="508" y="622"/>
      <point x="486" y="642" type="curve" smooth="yes"/>
      <point x="450" y="682"/>
      <point x="320" y="748"/>
      <point x="256" y="768" type="curve"/>
      <point x="256" y="750" type="line"/>
      <point x="318" y="776"/>
      <point x="448" y="836"/>
      <point x="484" y="872" type="curve" smooth="yes"/>
      <point x="508" y="892"/>
      <point x="520" y="916"/>
      <point x="520" y="950" type="curve" smooth="yes"/>
      <point x="520" y="1590" type="line"/>
      <point x="808" y="1590" type="line"/>
      <point x="808" y="1680" type="line"/>
      <point x="728" y="1690"/>
      <point x="624" y="1700"/>
      <point x="518" y="1700" type="curve" smooth="yes"/>
      <point x="398" y="1700"/>
      <point x="364" y="1656"/>
      <point x="364" y="1508" type="curve" smooth="yes"/>
      <point x="364" y="946" type="line" smooth="yes"/>
      <point x="364" y="898"/>
      <point x="254" y="858"/>
      <point x="120" y="814" type="curve"/>
      <point x="120" y="708" type="line"/>
      <point x="244" y="670"/>
      <point x="364" y="616"/>
      <point x="364" y="572" type="curve" smooth="yes"/>
    </contour>
  </outline>
</glyph>
<glyph name="bar" format="2">
  <advance width="822"/>
  <unicode hex="007C"/>
  <outline>
    <contour>
      <point x="336" y="-182" type="line"/>
      <point x="486" y="-182" type="line"/>
      <point x="486" y="1738" type="line"/>
      <point x="336" y="1738" type="line"/>
    </contour>
  </outline>
</glyph>
<glyph name="asciitilde" format="2">
  <advance width="1404"/>
  <unicode hex="007E"/>
  <outline>
    <contour>
      <point x="302" y="690" type="line"/>
      <point x="348" y="754"/>
      <point x="412" y="814"/>
      <point x="510" y="814" type="curve" smooth="yes"/>
      <point x="664" y="814"/>
      <point x="696" y="644"/>
      <point x="886" y="644" type="curve" smooth="yes"/>
      <point x="1042" y="644"/>
      <point x="1148" y="742"/>
      <point x="1186" y="832" type="curve"/>
      <point x="1110" y="906" type="line"/>
      <point x="1064" y="842"/>
      <point x="994" y="784"/>
      <point x="894" y="784" type="curve" smooth="yes"/>
      <point x="746" y="784"/>
      <point x="706" y="952"/>
      <point x="516" y="952" type="curve" smooth="yes"/>
      <point x="364" y="952"/>
      <point x="250" y="834"/>
      <point x="216" y="758" type="curve"/>
    </contour>
  </outline>
</glyph>
<glyph name="cent" format="2">
  <advance width="1166"/>
  <unicode hex="00A2"/>
  <outline>
    <contour>
      <point x="624" y="1062" type="line"/>
      <point x="736" y="1062" type="line"/>
      <point x="742" y="1340" type="line"/>
      <point x="630" y="1340" type="line"/>
    </contour>
    <contour>
      <point x="584" y="-210" type="line"/>
      <point x="696" y="-210" type="line"/>
      <point x="700" y="66" type="line"/>
      <point x="588" y="66" type="line"/>
    </contour>
    <component base="c" xOffset="62"/>
  </outline>
</glyph>
<glyph name="sterling" format="2">
  <advance width="1510"/>
  <unicode hex="00A3"/>
  <outline>
    <contour>
      <point x="138" y="52" type="curve" smooth="yes"/>
      <point x="138" y="14"/>
      <point x="186" y="-10"/>
      <point x="222" y="-10" type="curve" smooth="yes"/>
      <point x="286" y="-10"/>
      <point x="348" y="28"/>
      <point x="382" y="66" type="curve"/>
      <point x="514" y="108"/>
      <point x="680" y="-24"/>
      <point x="958" y="-24" type="curve" smooth="yes"/>
      <point x="1246" y="-24"/>
      <point x="1360" y="114"/>
      <point x="1360" y="310" type="curve" smooth="yes"/>
      <point x="1360" y="414"/>
      <point x="1296" y="512"/>
      <point x="1236" y="548" type="curve"/>
      <point x="1120" y="488" type="line"/>
      <point x="1172" y="462"/>
      <point x="1206" y="382"/>
      <point x="1206" y="320" type="curve" smooth="yes"/>
      <point x="1206" y="184"/>
      <point x="1134" y="94"/>
      <point x="940" y="94" type="curve" smooth="yes"/>
      <point x="744" y="94"/>
      <point x="640" y="170"/>
      <point x="492" y="166" type="curve"/>
      <point x="552" y="228"/>
      <point x="598" y="368"/>
      <point x="596" y="644" type="curve" smooth="yes"/>
      <point x="594" y="1010" type="line" smooth="yes"/>
      <point x="592" y="1292"/>
      <point x="732" y="1378"/>
      <point x="868" y="1378" type="curve" smooth="yes"/>
      <point x="998" y="1378"/>
      <point x="1072" y="1340"/>
      <point x="1126" y="1292" type="curve"/>
      <point x="1206" y="1410" type="line"/>
      <point x="1136" y="1464"/>
      <point x="1038" y="1502"/>
      <point x="884" y="1502" type="curve" smooth="yes"/>
      <point x="604" y="1502"/>
      <point x="432" y="1306"/>
      <point x="432" y="1032" type="curve" smooth="yes"/>
      <point x="432" y="454" type="line" smooth="yes"/>
      <point x="432" y="314"/>
      <point x="366" y="228"/>
      <point x="344" y="190" type="curve"/>
      <point x="202" y="182"/>
      <point x="138" y="124"/>
    </contour>
    <contour>
      <point x="252" y="746" type="line"/>
      <point x="970" y="746" type="line"/>
      <point x="970" y="860" type="line"/>
      <point x="252" y="860" type="line"/>
    </contour>
  </outline>
</glyph>
<glyph name="currency" format="2">
  <advance width="1494"/>
  <unicode hex="00A4"/>
  <outline>
    <contour>
      <point x="746" y="302" type="curve" smooth="yes"/>
      <point x="984" y="302"/>
      <point x="1178" y="494"/>
      <point x="1178" y="734" type="curve" smooth="yes"/>
      <point x="1178" y="974"/>
      <point x="984" y="1164"/>
      <point x="746" y="1164" type="curve" smooth="yes"/>
      <point x="508" y="1164"/>
      <point x="314" y="974"/>
      <point x="314" y="734" type="curve"/>
      <point x="314" y="494"/>
      <point x="508" y="302"/>
    </contour>
    <contour>
      <point x="746" y="424" type="curve" smooth="yes"/>
      <point x="582" y="424"/>
      <point x="446" y="564"/>
      <point x="446" y="734" type="curve" smooth="yes"/>
      <point x="446" y="904"/>
      <point x="582" y="1042"/>
      <point x="746" y="1042" type="curve" smooth="yes"/>
      <point x="912" y="1042"/>
      <point x="1044" y="904"/>
      <point x="1044" y="734" type="curve" smooth="yes"/>
      <point x="1044" y="564"/>
      <point x="912" y="424"/>
    </contour>
    <contour>
      <point x="424" y="980" type="line"/>
      <point x="518" y="1074" type="line"/>
      <point x="304" y="1290" type="line"/>
      <point x="210" y="1194" type="line"/>
    </contour>
    <contour>
      <point x="1070" y="976" type="line"/>
      <point x="1288" y="1194" type="line"/>
      <point x="1192" y="1288" type="line"/>
      <point x="976" y="1072" type="line"/>
    </contour>
    <contour>
      <point x="306" y="176" type="line"/>
      <point x="520" y="392" type="line"/>
      <point x="424" y="484" type="line"/>
      <point x="210" y="270" type="line"/>
    </contour>
    <contour>
      <point x="1190" y="182" type="line"/>
      <point x="1284" y="276" type="line"/>
      <point x="1070" y="490" type="line"/>
      <point x="976" y="396" type="line"/>
    </contour>
  </outline>
</glyph>
<glyph name="yen" format="2">
  <advance width="1506"/>
  <unicode hex="00A5"/>
  <outline>
    <contour>
      <point x="672" y="0" type="line"/>
      <point x="834" y="0" type="line"/>
      <point x="834" y="804" type="line"/>
      <point x="800" y="690" type="line"/>
      <point x="1324" y="1486" type="line"/>
      <point x="1150" y="1486" type="line"/>
      <point x="822" y="970" type="line"/>
      <point x="738" y="794" type="line"/>
      <point x="750" y="794"/>
      <point x="762" y="794"/>
      <point x="774" y="794" type="curve"/>
      <point x="684" y="964" type="line"/>
      <point x="362" y="1486" type="line"/>
      <point x="184" y="1486" type="line"/>
      <point x="710" y="676" type="line"/>
      <point x="672" y="804" type="line"/>
    </contour>
    <contour>
      <point x="276" y="672" type="line"/>
      <point x="1216" y="672" type="line"/>
      <point x="1216" y="780" type="line"/>
      <point x="276" y="780" type="line"/>
    </contour>
    <contour>
      <point x="276" y="314" type="line"/>
      <point x="1216" y="314" type="line"/>
      <point x="1216" y="422" type="line"/>
      <point x="276" y="422" type="line"/>
    </contour>
  </outline>
</glyph>
<glyph name="brokenbar" format="2">
  <advance width="822"/>
  <unicode hex="00A6"/>
  <outline>
    <contour>
      <point x="336" y="-182" type="line"/>
      <point x="486" y="-182" type="line"/>
      <point x="486" y="630" type="line"/>
      <point x="336" y="630" type="line"/>
    </contour>
    <contour>
      <point x="336" y="924" type="line"/>
      <point x="486" y="924" type="line"/>
      <point x="486" y="1738" type="line"/>
      <point x="336" y="1738" type="line"/>
    </contour>
  </outline>
</glyph>
<glyph name="section" format="2">
  <advance width="1326"/>
  <unicode hex="00A7"/>
  <outline>
    <contour>
      <point x="224" y="1310" type="curve" smooth="yes"/>
      <point x="224" y="880"/>
      <point x="968" y="958"/>
      <point x="968" y="590" type="curve" smooth="yes"/>
      <point x="968" y="504"/>
      <point x="914" y="392"/>
      <point x="868" y="338" type="curve"/>
      <point x="942" y="292" type="line"/>
      <point x="1042" y="370"/>
      <point x="1118" y="484"/>
      <point x="1118" y="618" type="curve" smooth="yes"/>
      <point x="1118" y="1046"/>
      <point x="374" y="1002"/>
      <point x="374" y="1328" type="curve" smooth="yes"/>
      <point x="374" y="1464"/>
      <point x="522" y="1510"/>
      <point x="680" y="1510" type="curve" smooth="yes"/>
      <point x="854" y="1512"/>
      <point x="958" y="1468"/>
      <point x="1002" y="1438" type="curve"/>
      <point x="1036" y="1562" type="line"/>
      <point x="980" y="1596"/>
      <point x="864" y="1634"/>
      <point x="682" y="1634" type="curve" smooth="yes"/>
      <point x="480" y="1634"/>
      <point x="224" y="1568"/>
    </contour>
    <contour>
      <point x="1110" y="136" type="curve" smooth="yes"/>
      <point x="1110" y="528"/>
      <point x="362" y="456"/>
      <point x="362" y="792" type="curve" smooth="yes"/>
      <point x="362" y="890"/>
      <point x="428" y="1000"/>
      <point x="464" y="1046" type="curve"/>
      <point x="386" y="1092" type="line"/>
      <point x="290" y="1016"/>
      <point x="212" y="900"/>
      <point x="212" y="764" type="curve" smooth="yes"/>
      <point x="212" y="364"/>
      <point x="960" y="406"/>
      <point x="960" y="122" type="curve" smooth="yes"/>
      <point x="960" y="-16"/>
      <point x="802" y="-64"/>
      <point x="636" y="-66" type="curve" smooth="yes"/>
      <point x="448" y="-66"/>
      <point x="306" y="-12"/>
      <point x="254" y="26" type="curve"/>
      <point x="222" y="-98" type="line"/>
      <point x="284" y="-140"/>
      <point x="442" y="-188"/>
      <point x="632" y="-188" type="curve" smooth="yes"/>
      <point x="844" y="-188"/>
      <point x="1110" y="-116"/>
    </contour>
  </outline>
</glyph>
<glyph name="dieresis" format="2">
  <advance width="764"/>
  <unicode hex="00A8"/>
  <outline>
    <contour>
      <point x="154" y="1376" type="curve" smooth="yes"/>
      <point x="214" y="1376"/>
      <point x="268" y="1420"/>
      <point x="268" y="1492" type="curve" smooth="yes"/>
      <point x="268" y="1552"/>
      <point x="240" y="1594"/>
      <point x="170" y="1594" type="curve" smooth="yes"/>
      <point x="114" y="1594"/>
      <point x="56" y="1546"/>
      <point x="56" y="1478" type="curve" smooth="yes"/>
      <point x="56" y="1412"/>
      <point x="98" y="1376"/>
    </contour>
    <contour>
      <point x="594" y="1376" type="curve" smooth="yes"/>
      <point x="654" y="1376"/>
      <point x="708" y="1420"/>
      <point x="708" y="1492" type="curve" smooth="yes"/>
      <point x="708" y="1552"/>
      <point x="678" y="1594"/>
      <point x="612" y="1594" type="curve" smooth="yes"/>
      <point x="554" y="1594"/>
      <point x="498" y="1546"/>
      <point x="498" y="1478" type="curve" smooth="yes"/>
      <point x="498" y="1412"/>
      <point x="540" y="1376"/>
    </contour>
  </outline>
</glyph>
<glyph name="ordfeminine" format="2">
  <advance width="1008"/>
  <unicode hex="00AA"/>
  <outline>
    <contour>
      <point x="434" y="662" type="curve" smooth="yes"/>
      <point x="542" y="662"/>
      <point x="658" y="710"/>
      <point x="710" y="756" type="curve"/>
      <point x="734" y="802" type="line"/>
      <point x="702" y="842" type="line"/>
      <point x="660" y="814"/>
      <point x="550" y="772"/>
      <point x="460" y="772" type="curve" smooth="yes"/>
      <point x="348" y="772"/>
      <point x="280" y="824"/>
      <point x="280" y="912" type="curve" smooth="yes"/>
      <point x="280" y="1000"/>
      <point x="326" y="1034"/>
      <point x="386" y="1062" type="curve" smooth="yes"/>
      <point x="460" y="1098"/>
      <point x="588" y="1102"/>
      <point x="700" y="1102" type="curve"/>
      <point x="734" y="1152" type="line"/>
      <point x="700" y="1194" type="line"/>
      <point x="594" y="1194"/>
      <point x="426" y="1182"/>
      <point x="310" y="1138" type="curve" smooth="yes"/>
      <point x="206" y="1098"/>
      <point x="136" y="1030"/>
      <point x="136" y="902" type="curve" smooth="yes"/>
      <point x="136" y="746"/>
      <point x="260" y="662"/>
    </contour>
    <contour>
      <point x="848" y="668" type="line"/>
      <point x="848" y="1138" type="line"/>
      <point x="848" y="1274" type="line" smooth="yes"/>
      <point x="848" y="1494"/>
      <point x="720" y="1560"/>
      <point x="522" y="1560" type="curve" smooth="yes"/>
      <point x="372" y="1560"/>
      <point x="196" y="1486"/>
      <point x="160" y="1452" type="curve"/>
      <point x="202" y="1360" type="line"/>
      <point x="244" y="1390"/>
      <point x="384" y="1444"/>
      <point x="490" y="1444" type="curve" smooth="yes"/>
      <point x="636" y="1444"/>
      <point x="700" y="1410"/>
      <point x="700" y="1270" type="curve" smooth="yes"/>
      <point x="700" y="792" type="line"/>
      <point x="708" y="792" type="line"/>
      <point x="708" y="724" type="line" smooth="yes"/>
      <point x="708" y="666"/>
      <point x="740" y="668"/>
      <point x="794" y="668" type="curve" smooth="yes"/>
    </contour>
  </outline>
</glyph>
<glyph name="guillemetleft" format="2">
  <advance width="1884"/>
  <unicode hex="00AB"/>
  <outline>
    <contour>
      <point x="240" y="530" type="line"/>
      <point x="856" y="104" type="line"/>
      <point x="900" y="222" type="line"/>
      <point x="360" y="628" type="line"/>
      <point x="360" y="572" type="line"/>
      <point x="900" y="982" type="line"/>
      <point x="856" y="1104" type="line"/>
      <point x="240" y="666" type="line"/>
    </contour>
    <contour>
      <point x="948" y="530" type="line"/>
      <point x="1584" y="104" type="line"/>
      <point x="1628" y="222" type="line"/>
      <point x="1068" y="628" type="line"/>
      <point x="1068" y="572" type="line"/>
      <point x="1628" y="982" type="line"/>
      <point x="1584" y="1104" type="line"/>
      <point x="948" y="666" type="line"/>
    </contour>
  </outline>
</glyph>
<glyph name="logicalnot" format="2">
  <advance width="1436"/>
  <unicode hex="00AC"/>
  <outline>
    <contour>
      <point x="230" y="708" type="line"/>
      <point x="1048" y="708" type="line"/>
      <point x="1048" y="316" type="line"/>
      <point x="1196" y="316" type="line"/>
      <point x="1196" y="832" type="line"/>
      <point x="230" y="832" type="line"/>
    </contour>
  </outline>
</glyph>
<glyph name="registered" format="2">
  <advance width="2084"/>
  <unicode hex="00AE"/>
  <outline>
    <contour>
      <point x="200" y="942" type="curve" smooth="yes"/>
      <point x="200" y="472"/>
      <point x="572" y="92"/>
      <point x="1042" y="92" type="curve" smooth="yes"/>
      <point x="1510" y="92"/>
      <point x="1884" y="472"/>
      <point x="1884" y="942" type="curve" smooth="yes"/>
      <point x="1884" y="1412"/>
      <point x="1510" y="1788"/>
      <point x="1042" y="1788" type="curve" smooth="yes"/>
      <point x="572" y="1788"/>
      <point x="200" y="1412"/>
    </contour>
    <contour>
      <point x="306" y="942" type="curve" smooth="yes"/>
      <point x="306" y="1356"/>
      <point x="624" y="1694"/>
      <point x="1042" y="1694" type="curve" smooth="yes"/>
      <point x="1458" y="1694"/>
      <point x="1776" y="1356"/>
      <point x="1776" y="942" type="curve" smooth="yes"/>
      <point x="1776" y="526"/>
      <point x="1458" y="190"/>
      <point x="1042" y="190" type="curve" smooth="yes"/>
      <point x="624" y="190"/>
      <point x="306" y="526"/>
    </contour>
    <contour>
      <point x="734" y="470" type="line"/>
      <point x="866" y="470" type="line"/>
      <point x="866" y="842" type="line"/>
      <point x="902" y="842"/>
      <point x="1016" y="842"/>
      <point x="1034" y="842" type="curve"/>
      <point x="1138" y="812"/>
      <point x="1182" y="660"/>
      <point x="1228" y="574" type="curve" smooth="yes"/>
      <point x="1248" y="534"/>
      <point x="1264" y="502"/>
      <point x="1290" y="472" type="curve"/>
      <point x="1442" y="470" type="line"/>
      <point x="1396" y="538"/>
      <point x="1378" y="562"/>
      <point x="1360" y="594" type="curve" smooth="yes"/>
      <point x="1310" y="678"/>
      <point x="1270" y="808"/>
      <point x="1184" y="862" type="curve"/>
      <point x="1342" y="898"/>
      <point x="1400" y="1010"/>
      <point x="1400" y="1154" type="curve" smooth="yes"/>
      <point x="1400" y="1298"/>
      <point x="1294" y="1416"/>
      <point x="1050" y="1416" type="curve" smooth="yes"/>
      <point x="968" y="1416"/>
      <point x="888" y="1410"/>
      <point x="806" y="1410" type="curve" smooth="yes"/>
      <point x="800" y="1410"/>
      <point x="740" y="1410"/>
      <point x="734" y="1410" type="curve"/>
    </contour>
    <contour>
      <point x="866" y="942" type="curve"/>
      <point x="866" y="1308" type="line"/>
      <point x="932" y="1314"/>
      <point x="968" y="1316"/>
      <point x="1014" y="1318" type="curve" smooth="yes"/>
      <point x="1198" y="1322"/>
      <point x="1262" y="1250"/>
      <point x="1262" y="1136" type="curve" smooth="yes"/>
      <point x="1262" y="1000"/>
      <point x="1182" y="940"/>
      <point x="1036" y="938" type="curve" smooth="yes"/>
      <point x="1012" y="938"/>
      <point x="888" y="940"/>
    </contour>
  </outline>
</glyph>
<glyph name="macron" format="2">
  <advance width="628"/>
  <unicode hex="00AF"/>
  <anchor x="312" y="1660" name="_top"/>
  <outline>
    <contour>
      <point x="48" y="1418" type="line"/>
      <point x="580" y="1418" type="line"/>
      <point x="580" y="1540" type="line"/>
      <point x="48" y="1540" type="line"/>
    </contour>
  </outline>
</glyph>
<glyph name="degree" format="2">
  <advance width="888"/>
  <unicode hex="00B0"/>
  <outline>
    <contour>
      <point x="118" y="1248" type="curve" smooth="yes"/>
      <point x="118" y="1064"/>
      <point x="264" y="924"/>
      <point x="444" y="924" type="curve" smooth="yes"/>
      <point x="628" y="924"/>
      <point x="768" y="1060"/>
      <point x="768" y="1248" type="curve" smooth="yes"/>
      <point x="768" y="1432"/>
      <point x="626" y="1572"/>
      <point x="444" y="1572" type="curve" smooth="yes"/>
      <point x="260" y="1572"/>
      <point x="118" y="1434"/>
    </contour>
    <contour>
      <point x="250" y="1248" type="curve" smooth="yes"/>
      <point x="250" y="1362"/>
      <point x="336" y="1444"/>
      <point x="444" y="1444" type="curve" smooth="yes"/>
      <point x="550" y="1444"/>
      <point x="638" y="1360"/>
      <point x="638" y="1248" type="curve" smooth="yes"/>
      <point x="638" y="1134"/>
      <point x="552" y="1052"/>
      <point x="444" y="1052" type="curve" smooth="yes"/>
      <point x="338" y="1052"/>
      <point x="250" y="1136"/>
    </contour>
  </outline>
</glyph>
<glyph name="plusminus" format="2">
  <advance width="1360"/>
  <unicode hex="00B1"/>
  <outline>
    <contour>
      <point x="246" y="0" type="line"/>
      <point x="1114" y="0" type="line"/>
      <point x="1114" y="124" type="line"/>
      <point x="246" y="124" type="line"/>
    </contour>
    <component base="plus"/>
  </outline>
</glyph>
<glyph name="acute" format="2">
  <advance width="544"/>
  <unicode hex="00B4"/>
  <outline>
    <contour>
      <point x="132" y="1284" type="line"/>
      <point x="218" y="1340"/>
      <point x="428" y="1540"/>
      <point x="496" y="1638" type="curve"/>
      <point x="378" y="1740" type="line"/>
      <point x="278" y="1600"/>
      <point x="166" y="1478"/>
      <point x="48" y="1350" type="curve"/>
    </contour>
  </outline>
</glyph>
<glyph name="micro" format="2">
  <advance width="1328"/>
  <unicode hex="00B5"/>
  <outline>
    <contour>
      <point x="210" y="-362" type="line"/>
      <point x="364" y="-362" type="line"/>
      <point x="336" y="180" type="line"/>
      <point x="312" y="168" type="line"/>
      <point x="370" y="20"/>
      <point x="482" y="-16"/>
      <point x="616" y="-16" type="curve" smooth="yes"/>
      <point x="774" y="-16"/>
      <point x="882" y="84"/>
      <point x="932" y="134" type="curve"/>
      <point x="928" y="28"/>
      <point x="970" y="-12"/>
      <point x="1038" y="-12" type="curve" smooth="yes"/>
      <point x="1126" y="-12"/>
      <point x="1208" y="56"/>
      <point x="1224" y="84" type="curve"/>
      <point x="1202" y="160" type="line"/>
      <point x="1162" y="126"/>
      <point x="1128" y="118"/>
      <point x="1114" y="118" type="curve" smooth="yes"/>
      <point x="1086" y="118"/>
      <point x="1074" y="136"/>
      <point x="1074" y="222" type="curve" smooth="yes"/>
      <point x="1074" y="1114" type="line"/>
      <point x="912" y="1114" type="line"/>
      <point x="912" y="230" type="line"/>
      <point x="864" y="192"/>
      <point x="744" y="112"/>
      <point x="630" y="112" type="curve" smooth="yes"/>
      <point x="460" y="114"/>
      <point x="374" y="194"/>
      <point x="374" y="376" type="curve" smooth="yes"/>
      <point x="374" y="1114" type="line"/>
      <point x="210" y="1114" type="line"/>
    </contour>
  </outline>
</glyph>
<glyph name="paragraph" format="2">
  <advance width="1340"/>
  <unicode hex="00B6"/>
  <outline>
    <contour>
      <point x="572" y="0" type="line"/>
      <point x="708" y="0" type="line"/>
      <point x="708" y="1542" type="line"/>
      <point x="984" y="1542" type="line"/>
      <point x="984" y="0" type="line"/>
      <point x="1120" y="0" type="line"/>
      <point x="1120" y="1650" type="line"/>
      <point x="1008" y="1652"/>
      <point x="778" y="1670"/>
      <point x="686" y="1670" type="curve" smooth="yes"/>
      <point x="324" y="1670"/>
      <point x="140" y="1502"/>
      <point x="140" y="1248" type="curve" smooth="yes"/>
      <point x="140" y="946"/>
      <point x="282" y="812"/>
      <point x="572" y="812" type="curve"/>
    </contour>
  </outline>
</glyph>
<glyph name="cedilla" format="2">
  <advance width="458"/>
  <unicode hex="00B8"/>
  <outline>
    <contour>
      <point x="46" y="-426" type="line"/>
      <point x="70" y="-442"/>
      <point x="136" y="-454"/>
      <point x="184" y="-454" type="curve" smooth="yes"/>
      <point x="296" y="-454"/>
      <point x="398" y="-392"/>
      <point x="408" y="-226" type="curve" smooth="yes"/>
      <point x="414" y="-116"/>
      <point x="396" y="-30"/>
      <point x="358" y="20" type="curve"/>
      <point x="324" y="24" type="line"/>
      <point x="262" y="20" type="line"/>
      <point x="280" y="-20"/>
      <point x="294" y="-76"/>
      <point x="286" y="-176" type="curve" smooth="yes"/>
      <point x="280" y="-292"/>
      <point x="224" y="-336"/>
      <point x="146" y="-336" type="curve" smooth="yes"/>
      <point x="110" y="-336"/>
      <point x="76" y="-330"/>
      <point x="58" y="-320" type="curve"/>
    </contour>
  </outline>
</glyph>
<glyph name="ordmasculine" format="2">
  <advance width="1008"/>
  <unicode hex="00BA"/>
  <outline>
    <contour>
      <point x="112" y="1122" type="curve" smooth="yes"/>
      <point x="108" y="840"/>
      <point x="254" y="660"/>
      <point x="500" y="660" type="curve" smooth="yes"/>
      <point x="694" y="660"/>
      <point x="892" y="784"/>
      <point x="898" y="1104" type="curve" smooth="yes"/>
      <point x="902" y="1376"/>
      <point x="766" y="1560"/>
      <point x="520" y="1560" type="curve" smooth="yes"/>
      <point x="332" y="1560"/>
      <point x="116" y="1440"/>
    </contour>
    <contour>
      <point x="266" y="1122" type="curve" smooth="yes"/>
      <point x="268" y="1358"/>
      <point x="380" y="1448"/>
      <point x="512" y="1450" type="curve" smooth="yes"/>
      <point x="662" y="1452"/>
      <point x="744" y="1318"/>
      <point x="744" y="1102" type="curve" smooth="yes"/>
      <point x="742" y="866"/>
      <point x="644" y="772"/>
      <point x="506" y="770" type="curve" smooth="yes"/>
      <point x="356" y="768"/>
      <point x="266" y="906"/>
    </contour>
  </outline>
</glyph>
<glyph name="guillemetright" format="2">
  <advance width="1884"/>
  <unicode hex="00BB"/>
  <outline>
    <contour>
      <point x="1644" y="530" type="line"/>
      <point x="1644" y="666" type="line"/>
      <point x="1028" y="1104" type="line"/>
      <point x="984" y="982" type="line"/>
      <point x="1524" y="572" type="line"/>
      <point x="1524" y="628" type="line"/>
      <point x="984" y="222" type="line"/>
      <point x="1028" y="104" type="line"/>
    </contour>
    <contour>
      <point x="936" y="530" type="line"/>
      <point x="936" y="666" type="line"/>
      <point x="300" y="1104" type="line"/>
      <point x="256" y="982" type="line"/>
      <point x="816" y="572" type="line"/>
      <point x="816" y="628" type="line"/>
      <point x="256" y="222" type="line"/>
      <point x="300" y="104" type="line"/>
    </contour>
  </outline>
</glyph>
<glyph name="questiondown" format="2">
  <advance width="1030"/>
  <unicode hex="00BF"/>
  <outline>
    <contour>
      <point x="644" y="1034" type="curve"/>
      <point x="520" y="1032" type="line"/>
      <point x="550" y="944"/>
      <point x="584" y="856"/>
      <point x="576" y="764" type="curve" smooth="yes"/>
      <point x="564" y="576"/>
      <point x="152" y="540"/>
      <point x="118" y="238" type="curve" smooth="yes"/>
      <point x="76" y="-40"/>
      <point x="236" y="-306"/>
      <point x="688" y="-306" type="curve" smooth="yes"/>
      <point x="776" y="-306"/>
      <point x="872" y="-280"/>
      <point x="892" y="-264" type="curve"/>
      <point x="892" y="-144" type="line"/>
      <point x="862" y="-156"/>
      <point x="800" y="-168"/>
      <point x="712" y="-168" type="curve" smooth="yes"/>
      <point x="402" y="-168"/>
      <point x="232" y="-12"/>
      <point x="280" y="246" type="curve" smooth="yes"/>
      <point x="304" y="462"/>
      <point x="740" y="530"/>
      <point x="734" y="746" type="curve" smooth="yes"/>
      <point x="732" y="860"/>
      <point x="684" y="982"/>
    </contour>
    <contour>
      <point x="536" y="1504" type="curve" smooth="yes"/>
      <point x="474" y="1504"/>
      <point x="418" y="1448"/>
      <point x="420" y="1368" type="curve" smooth="yes"/>
      <point x="422" y="1304"/>
      <point x="456" y="1252"/>
      <point x="526" y="1252" type="curve" smooth="yes"/>
      <point x="586" y="1252"/>
      <point x="644" y="1312"/>
      <point x="642" y="1386" type="curve" smooth="yes"/>
      <point x="640" y="1456"/>
      <point x="592" y="1504"/>
    </contour>
  </outline>
</glyph>
<glyph name="AE" format="2">
  <advance width="1806"/>
  <unicode hex="00C6"/>
  <anchor x="904" y="0" name="bottom"/>
  <anchor x="1352" y="-166" name="btm"/>
  <anchor x="996" y="1660" name="top"/>
  <outline>
    <contour>
      <point x="-54" y="0" type="line"/>
      <point x="130" y="0" type="line"/>
      <point x="802" y="1404" type="line"/>
      <point x="660" y="1486" type="line"/>
    </contour>
    <contour>
      <point x="820" y="1486" type="line"/>
      <point x="660" y="1486" type="line"/>
      <point x="682" y="1376" type="line"/>
      <point x="884" y="1376" type="line"/>
    </contour>
    <contour>
      <point x="232" y="408" type="line"/>
      <point x="948" y="408" type="line"/>
      <point x="918" y="532" type="line"/>
      <point x="264" y="532" type="line"/>
    </contour>
    <contour>
      <point x="820" y="0" type="line"/>
      <point x="1742" y="0" type="line"/>
      <point x="1742" y="130" type="line"/>
      <point x="984" y="130" type="line"/>
      <point x="984" y="702" type="line"/>
      <point x="1498" y="702" type="line"/>
      <point x="1498" y="830" type="line"/>
      <point x="984" y="830" type="line"/>
      <point x="984" y="1358" type="line"/>
      <point x="1670" y="1358" type="line"/>
      <point x="1670" y="1486" type="line"/>
      <point x="820" y="1486" type="line"/>
    </contour>
  </outline>
</glyph>
<glyph name="Eth" format="2">
  <advance width="1444"/>
  <unicode hex="00D0"/>
  <outline>
    <contour>
      <point x="60" y="720" type="line"/>
      <point x="790" y="720" type="line"/>
      <point x="790" y="832" type="line"/>
      <point x="60" y="832" type="line"/>
    </contour>
    <component base="D"/>
  </outline>
</glyph>
<glyph name="multiply" format="2">
  <advance width="1338"/>
  <unicode hex="00D7"/>
  <outline>
    <contour>
      <point x="244" y="414" type="line"/>
      <point x="340" y="318" type="line"/>
      <point x="670" y="664" type="line"/>
      <point x="998" y="318" type="line"/>
      <point x="1094" y="414" type="line"/>
      <point x="754" y="756" type="line"/>
      <point x="1094" y="1100" type="line"/>
      <point x="998" y="1196" type="line"/>
      <point x="670" y="842" type="line"/>
      <point x="340" y="1196" type="line"/>
      <point x="244" y="1100" type="line"/>
      <point x="584" y="752" type="line"/>
    </contour>
  </outline>
</glyph>
<glyph name="Oslash" format="2">
  <advance width="1536"/>
  <unicode hex="00D8"/>
  <anchor x="768" y="0" name="bottom"/>
  <anchor x="752" y="1660" name="top"/>
  <outline>
    <contour>
      <point x="352" y="-190" type="line"/>
      <point x="1278" y="1662" type="line"/>
      <point x="1188" y="1690" type="line"/>
      <point x="262" y="-164" type="line"/>
    </contour>
    <contour>
      <point x="762" y="-16" type="curve" smooth="yes"/>
      <point x="1138" y="-8"/>
      <point x="1416" y="252"/>
      <point x="1426" y="746" type="curve" smooth="yes"/>
      <point x="1436" y="1202"/>
      <point x="1184" y="1504"/>
      <point x="792" y="1502" type="curve" smooth="yes"/>
      <point x="416" y="1500"/>
      <point x="118" y="1246"/>
      <point x="108" y="750" type="curve" smooth="yes"/>
      <point x="100" y="302"/>
      <point x="352" y="-24"/>
    </contour>
    <contour>
      <point x="766" y="112" type="curve" smooth="yes"/>
      <point x="442" y="110"/>
      <point x="274" y="400"/>
      <point x="276" y="740" type="curve" smooth="yes"/>
      <point x="278" y="1164"/>
      <point x="500" y="1374"/>
      <point x="786" y="1376" type="curve" smooth="yes"/>
      <point x="1098" y="1378"/>
      <point x="1260" y="1096"/>
      <point x="1260" y="754" type="curve" smooth="yes"/>
      <point x="1256" y="338"/>
      <point x="1060" y="114"/>
    </contour>
  </outline>
</glyph>
<glyph name="Thorn" format="2">
  <advance width="1226"/>
  <unicode hex="00DE"/>
  <anchor x="606" y="0" name="bottom"/>
  <anchor x="606" y="1486" name="top"/>
  <outline>
    <contour>
      <point x="588" y="286" type="curve" smooth="yes"/>
      <point x="934" y="286"/>
      <point x="1144" y="450"/>
      <point x="1144" y="774" type="curve" smooth="yes"/>
      <point x="1144" y="1084"/>
      <point x="950" y="1218"/>
      <point x="638" y="1218" type="curve" smooth="yes"/>
      <point x="522" y="1218"/>
      <point x="378" y="1200"/>
      <point x="284" y="1198" type="curve"/>
      <point x="340" y="1076" type="line"/>
      <point x="400" y="1088"/>
      <point x="510" y="1098"/>
      <point x="584" y="1100" type="curve" smooth="yes"/>
      <point x="846" y="1104"/>
      <point x="978" y="1000"/>
      <point x="978" y="772" type="curve" smooth="yes"/>
      <point x="978" y="494"/>
      <point x="812" y="406"/>
      <point x="572" y="406" type="curve" smooth="yes"/>
      <point x="506" y="406"/>
      <point x="406" y="412"/>
      <point x="340" y="420" type="curve"/>
      <point x="340" y="298" type="line"/>
      <point x="380" y="296"/>
      <point x="486" y="286"/>
    </contour>
    <contour>
      <point x="188" y="0" type="line"/>
      <point x="352" y="0" type="line"/>
      <point x="352" y="1486" type="line"/>
      <point x="188" y="1486" type="line"/>
    </contour>
  </outline>
</glyph>
<glyph name="germandbls" format="2">
  <advance width="1250"/>
  <unicode hex="00DF"/>
  <anchor x="622" y="0" name="bottom"/>
  <anchor x="622" y="1114" name="top"/>
  <outline>
    <contour>
      <point x="186" y="0" type="line"/>
      <point x="344" y="0" type="line"/>
      <point x="344" y="952" type="line" smooth="yes"/>
      <point x="344" y="1298"/>
      <point x="486" y="1426"/>
      <point x="672" y="1426" type="curve" smooth="yes"/>
      <point x="792" y="1426"/>
      <point x="894" y="1380"/>
      <point x="894" y="1256" type="curve" smooth="yes"/>
      <point x="894" y="1062"/>
      <point x="684" y="1012"/>
      <point x="684" y="834" type="curve" smooth="yes"/>
      <point x="684" y="552"/>
      <point x="1032" y="528"/>
      <point x="1034" y="286" type="curve" smooth="yes"/>
      <point x="1034" y="156"/>
      <point x="928" y="100"/>
      <point x="820" y="100" type="curve" smooth="yes"/>
      <point x="702" y="100"/>
      <point x="626" y="126"/>
      <point x="588" y="146" type="curve"/>
      <point x="588" y="16" type="line"/>
      <point x="626" y="0"/>
      <point x="716" y="-16"/>
      <point x="814" y="-16" type="curve" smooth="yes"/>
      <point x="994" y="-16"/>
      <point x="1198" y="70"/>
      <point x="1198" y="304" type="curve" smooth="yes"/>
      <point x="1198" y="628"/>
      <point x="836" y="654"/>
      <point x="836" y="854" type="curve" smooth="yes"/>
      <point x="836" y="992"/>
      <point x="1056" y="1046"/>
      <point x="1056" y="1278" type="curve" smooth="yes"/>
      <point x="1056" y="1458"/>
      <point x="882" y="1542"/>
      <point x="700" y="1542" type="curve" smooth="yes"/>
      <point x="418" y="1542"/>
      <point x="186" y="1370"/>
      <point x="186" y="962" type="curve" smooth="yes"/>
    </contour>
    <contour>
      <point x="42" y="990" type="line"/>
      <point x="198" y="990" type="line"/>
      <point x="238" y="1042" type="line"/>
      <point x="212" y="1120" type="line"/>
      <point x="42" y="1086" type="line"/>
    </contour>
  </outline>
</glyph>
<glyph name="ae" format="2">
  <advance width="1784"/>
  <unicode hex="00E6"/>
  <anchor x="892" y="0" name="bottom"/>
  <anchor x="898" y="1660" name="top"/>
  <outline>
    <contour>
      <point x="1268" y="-16" type="curve" smooth="yes"/>
      <point x="1406" y="-16"/>
      <point x="1572" y="26"/>
      <point x="1646" y="86" type="curve"/>
      <point x="1614" y="182" type="line"/>
      <point x="1556" y="144"/>
      <point x="1408" y="108"/>
      <point x="1308" y="108" type="curve" smooth="yes"/>
      <point x="1102" y="108"/>
      <point x="954" y="210"/>
      <point x="944" y="500" type="curve"/>
      <point x="934" y="866"/>
      <point x="1080" y="1012"/>
      <point x="1272" y="1012" type="curve" smooth="yes"/>
      <point x="1474" y="1012"/>
      <point x="1540" y="854"/>
      <point x="1528" y="650" type="curve"/>
      <point x="896" y="650" type="line"/>
      <point x="882" y="540" type="line"/>
      <point x="1672" y="540" type="line"/>
      <point x="1682" y="586"/>
      <point x="1680" y="640"/>
      <point x="1680" y="710" type="curve"/>
      <point x="1674" y="964"/>
      <point x="1518" y="1132"/>
      <point x="1282" y="1128" type="curve" smooth="yes"/>
      <point x="962" y="1126"/>
      <point x="782" y="886"/>
      <point x="782" y="552" type="curve" smooth="yes"/>
      <point x="782" y="184"/>
      <point x="956" y="-16"/>
    </contour>
    <contour>
      <point x="108" y="294" type="curve" smooth="yes"/>
      <point x="108" y="100"/>
      <point x="252" y="-16"/>
      <point x="450" y="-16" type="curve" smooth="yes"/>
      <point x="646" y="-16"/>
      <point x="798" y="84"/>
      <point x="890" y="212" type="curve"/>
      <point x="866" y="262" type="line"/>
      <point x="832" y="288" type="line"/>
      <point x="790" y="212"/>
      <point x="644" y="106"/>
      <point x="492" y="106" type="curve" smooth="yes"/>
      <point x="332" y="106"/>
      <point x="272" y="192"/>
      <point x="272" y="306" type="curve" smooth="yes"/>
      <point x="272" y="402"/>
      <point x="322" y="466"/>
      <point x="438" y="510" type="curve" smooth="yes"/>
      <point x="524" y="546"/>
      <point x="668" y="562"/>
      <point x="782" y="562" type="curve"/>
      <point x="818" y="620" type="line"/>
      <point x="780" y="666" type="line"/>
      <point x="652" y="666"/>
      <point x="478" y="652"/>
      <point x="348" y="600" type="curve" smooth="yes"/>
      <point x="198" y="542"/>
      <point x="108" y="440"/>
    </contour>
    <contour>
      <point x="200" y="910" type="line"/>
      <point x="262" y="952"/>
      <point x="422" y="1006"/>
      <point x="534" y="1006" type="curve" smooth="yes"/>
      <point x="682" y="1006"/>
      <point x="780" y="980"/>
      <point x="780" y="782" type="curve" smooth="yes"/>
      <point x="780" y="568" type="line"/>
      <point x="926" y="568" type="line"/>
      <point x="926" y="776" type="line" smooth="yes"/>
      <point x="926" y="1064"/>
      <point x="792" y="1130"/>
      <point x="574" y="1130" type="curve" smooth="yes"/>
      <point x="396" y="1130"/>
      <point x="198" y="1044"/>
      <point x="158" y="1018" type="curve"/>
    </contour>
  </outline>
</glyph>
<glyph name="eth" format="2">
  <advance width="1178"/>
  <unicode hex="00F0"/>
  <outline>
    <contour>
      <point x="602" y="-26" type="curve" smooth="yes"/>
      <point x="888" y="-22"/>
      <point x="1090" y="178"/>
      <point x="1090" y="598" type="curve" smooth="yes"/>
      <point x="1090" y="992"/>
      <point x="928" y="1320"/>
      <point x="646" y="1530" type="curve" smooth="yes"/>
      <point x="634" y="1540"/>
      <point x="620" y="1550"/>
      <point x="606" y="1560" type="curve" smooth="yes"/>
      <point x="522" y="1618"/>
      <point x="400" y="1680"/>
      <point x="278" y="1718" type="curve"/>
      <point x="240" y="1624" type="line"/>
      <point x="324" y="1596"/>
      <point x="430" y="1540"/>
      <point x="510" y="1484" type="curve" smooth="yes"/>
      <point x="522" y="1476"/>
      <point x="536" y="1466"/>
      <point x="546" y="1458" type="curve" smooth="yes"/>
      <point x="724" y="1324"/>
      <point x="860" y="1118"/>
      <point x="896" y="882" type="curve"/>
      <point x="954" y="860" type="line"/>
      <point x="910" y="1016"/>
      <point x="772" y="1126"/>
      <point x="606" y="1128" type="curve" smooth="yes"/>
      <point x="314" y="1128"/>
      <point x="106" y="914"/>
      <point x="106" y="544" type="curve" smooth="yes"/>
      <point x="106" y="190"/>
      <point x="302" y="-32"/>
    </contour>
    <contour>
      <point x="608" y="86" type="curve" smooth="yes"/>
      <point x="410" y="86"/>
      <point x="268" y="252"/>
      <point x="268" y="550" type="curve" smooth="yes"/>
      <point x="268" y="826"/>
      <point x="394" y="1006"/>
      <point x="612" y="1006" type="curve" smooth="yes"/>
      <point x="780" y="1006"/>
      <point x="890" y="926"/>
      <point x="918" y="832" type="curve"/>
      <point x="928" y="736"/>
      <point x="926" y="640"/>
      <point x="926" y="560" type="curve" smooth="yes"/>
      <point x="926" y="236"/>
      <point x="774" y="86"/>
    </contour>
    <contour>
      <point x="420" y="1292" type="line"/>
      <point x="580" y="1472" type="line"/>
      <point x="598" y="1498" type="line"/>
      <point x="640" y="1534"/>
      <point x="770" y="1684"/>
      <point x="770" y="1684" type="curve"/>
      <point x="682" y="1750" type="line"/>
      <point x="682" y="1750"/>
      <point x="554" y="1594"/>
      <point x="518" y="1562" type="curve"/>
      <point x="498" y="1540" type="line"/>
      <point x="334" y="1360" type="line"/>
    </contour>
  </outline>
</glyph>
<glyph name="divide" format="2">
  <advance width="1360"/>
  <unicode hex="00F7"/>
  <outline>
    <contour>
      <point x="678" y="1034" type="curve" smooth="yes"/>
      <point x="742" y="1034"/>
      <point x="800" y="1082"/>
      <point x="800" y="1158" type="curve" smooth="yes"/>
      <point x="800" y="1222"/>
      <point x="766" y="1268"/>
      <point x="694" y="1268" type="curve" smooth="yes"/>
      <point x="632" y="1268"/>
      <point x="574" y="1216"/>
      <point x="574" y="1142" type="curve" smooth="yes"/>
      <point x="574" y="1072"/>
      <point x="620" y="1034"/>
    </contour>
    <contour>
      <point x="676" y="254" type="curve" smooth="yes"/>
      <point x="742" y="254"/>
      <point x="798" y="302"/>
      <point x="798" y="380" type="curve" smooth="yes"/>
      <point x="798" y="444"/>
      <point x="764" y="490"/>
      <point x="694" y="490" type="curve" smooth="yes"/>
      <point x="632" y="490"/>
      <point x="572" y="438"/>
      <point x="572" y="364" type="curve" smooth="yes"/>
      <point x="572" y="294"/>
      <point x="620" y="254"/>
    </contour>
    <contour>
      <point x="226" y="692" type="line"/>
      <point x="1134" y="692" type="line"/>
      <point x="1134" y="820" type="line"/>
      <point x="226" y="820" type="line"/>
    </contour>
  </outline>
</glyph>
<glyph name="oslash" format="2">
  <advance width="1196"/>
  <unicode hex="00F8"/>
  <anchor x="644" y="1660" name="top"/>
  <outline>
    <contour>
      <point x="304" y="-164" type="line"/>
      <point x="398" y="-190" type="line"/>
      <point x="892" y="1278" type="line"/>
      <point x="798" y="1304" type="line"/>
    </contour>
    <contour>
      <point x="588" y="-16" type="curve" smooth="yes"/>
      <point x="876" y="-16"/>
      <point x="1090" y="186"/>
      <point x="1096" y="542" type="curve" smooth="yes"/>
      <point x="1098" y="856"/>
      <point x="958" y="1128"/>
      <point x="610" y="1128" type="curve" smooth="yes"/>
      <point x="324" y="1128"/>
      <point x="106" y="932"/>
      <point x="100" y="578" type="curve"/>
      <point x="96" y="262"/>
      <point x="234" y="-16"/>
    </contour>
    <contour>
      <point x="592" y="100" type="curve" smooth="yes"/>
      <point x="364" y="104"/>
      <point x="266" y="322"/>
      <point x="266" y="576" type="curve" smooth="yes"/>
      <point x="268" y="854"/>
      <point x="394" y="1014"/>
      <point x="606" y="1010" type="curve"/>
      <point x="830" y="1008"/>
      <point x="930" y="804"/>
      <point x="930" y="548" type="curve" smooth="yes"/>
      <point x="928" y="270"/>
      <point x="806" y="98"/>
    </contour>
  </outline>
</glyph>
<glyph name="thorn" format="2">
  <advance width="1230"/>
  <unicode hex="00FE"/>
  <anchor x="616" y="0" name="bottom"/>
  <anchor x="616" y="1114" name="top"/>
  <outline>
    <contour>
      <point x="188" y="62" type="line"/>
      <point x="188" y="-496" type="line"/>
      <point x="346" y="-496" type="line"/>
      <point x="346" y="-148" type="line"/>
      <point x="340" y="28" type="line"/>
    </contour>
    <component base="b" xOffset="8"/>
  </outline>
</glyph>
<glyph name="Aogonek" format="2">
  <advance width="1360"/>
  <unicode hex="0104"/>
  <outline>
    <contour>
      <point x="880" y="-304" type="curve"/>
      <point x="882" y="-438"/>
      <point x="986" y="-500"/>
      <point x="1116" y="-500" type="curve" smooth="yes"/>
      <point x="1198" y="-500"/>
      <point x="1292" y="-480"/>
      <point x="1344" y="-440" type="curve"/>
      <point x="1344" y="-350" type="line"/>
      <point x="1292" y="-376"/>
      <point x="1238" y="-388"/>
      <point x="1188" y="-390" type="curve" smooth="yes"/>
      <point x="1106" y="-390"/>
      <point x="1042" y="-364"/>
      <point x="1042" y="-274" type="curve"/>
      <point x="1040" y="-154"/>
      <point x="1208" y="-44"/>
      <point x="1308" y="8" type="curve"/>
      <point x="1284" y="22" type="line"/>
      <point x="1174" y="6" type="line"/>
      <point x="1058" y="-50"/>
      <point x="878" y="-164"/>
    </contour>
    <component base="A"/>
  </outline>
</glyph>
<glyph name="dcroat" format="2">
  <advance width="1210"/>
  <unicode hex="0111"/>
  <outline>
    <contour>
      <point x="584" y="1294" type="line"/>
      <point x="1186" y="1294" type="line"/>
      <point x="1186" y="1400" type="line"/>
      <point x="584" y="1400" type="line"/>
    </contour>
    <component base="d"/>
  </outline>
</glyph>
<glyph name="Hbar" format="2">
  <advance width="1514"/>
  <unicode hex="0126"/>
  <outline>
    <contour>
      <point x="202" y="0" type="line"/>
      <point x="366" y="0" type="line"/>
      <point x="366" y="686" type="line"/>
      <point x="1148" y="686" type="line"/>
      <point x="1148" y="0" type="line"/>
      <point x="1312" y="0" type="line"/>
      <point x="1312" y="1486" type="line"/>
      <point x="1148" y="1486" type="line"/>
      <point x="1148" y="814" type="line"/>
      <point x="366" y="814" type="line"/>
      <point x="366" y="1486" type="line"/>
      <point x="202" y="1486" type="line"/>
    </contour>
    <contour>
      <point x="10" y="1060" type="line"/>
      <point x="1522" y="1060" type="line"/>
      <point x="1522" y="1166" type="line"/>
      <point x="10" y="1166" type="line"/>
    </contour>
  </outline>
</glyph>
<glyph name="hbar" format="2">
  <advance width="1278"/>
  <unicode hex="0127"/>
  <outline>
    <contour>
      <point x="42" y="1278" type="line"/>
      <point x="616" y="1278" type="line"/>
      <point x="616" y="1376" type="line"/>
      <point x="42" y="1376" type="line"/>
    </contour>
    <component base="h"/>
  </outline>
</glyph>
<glyph name="idotless" format="2">
  <advance width="554"/>
  <unicode hex="0131"/>
  <anchor x="278" y="0" name="bottom"/>
  <anchor x="276" y="-166" name="btm"/>
  <anchor x="358" y="0" name="ogonek"/>
  <anchor x="276" y="1660" name="top"/>
  <outline>
    <contour>
      <point x="196" y="0" type="line"/>
      <point x="358" y="0" type="line"/>
      <point x="358" y="1112" type="line"/>
      <point x="196" y="1112" type="line"/>
    </contour>
  </outline>
</glyph>
<glyph name="kgreenlandic" format="2">
  <advance width="1144"/>
  <unicode hex="0138"/>
  <anchor x="572" y="0" name="bottom"/>
  <anchor x="572" y="1114" name="top"/>
  <outline>
    <contour>
      <point x="1082" y="1112" type="line"/>
      <point x="894" y="1112" type="line"/>
      <point x="308" y="480" type="line"/>
      <point x="350" y="454" type="line"/>
      <point x="356" y="626" type="line"/>
      <point x="356" y="1114" type="line"/>
      <point x="192" y="1114" type="line"/>
      <point x="194" y="0" type="line"/>
      <point x="358" y="0" type="line"/>
      <point x="358" y="196" type="line"/>
      <point x="352" y="374" type="line"/>
      <point x="334" y="332" type="line"/>
    </contour>
    <contour>
      <point x="522" y="562" type="line"/>
      <point x="932" y="0" type="line"/>
      <point x="1120" y="0" type="line"/>
      <point x="632" y="664" type="line"/>
    </contour>
  </outline>
</glyph>
<glyph name="Lslash" format="2">
  <advance width="1028"/>
  <unicode hex="0141"/>
  <outline>
    <contour>
      <point x="12" y="656" type="line"/>
      <point x="52" y="554" type="line"/>
      <point x="828" y="838" type="line"/>
      <point x="788" y="942" type="line"/>
    </contour>
    <component base="L"/>
  </outline>
</glyph>
<glyph name="lslash" format="2">
  <advance width="646"/>
  <unicode hex="0142"/>
  <outline>
    <contour>
      <point x="50" y="792" type="line"/>
      <point x="596" y="1000" type="line"/>
      <point x="596" y="1122" type="line"/>
      <point x="50" y="904" type="line"/>
    </contour>
    <component base="l" xOffset="36"/>
  </outline>
</glyph>
<glyph name="Eng" format="2">
  <advance width="1542"/>
  <unicode hex="014A"/>
  <outline>
    <contour>
      <point x="362" y="0" type="line"/>
      <point x="362" y="950" type="line"/>
      <point x="350" y="1382" type="line"/>
      <point x="280" y="1382" type="line"/>
      <point x="494" y="1016" type="line"/>
      <point x="1162" y="34" type="line"/>
      <point x="1158" y="-96"/>
      <point x="954" y="-260"/>
      <point x="760" y="-316" type="curve"/>
      <point x="802" y="-394" type="line"/>
      <point x="984" y="-366"/>
      <point x="1222" y="-232"/>
      <point x="1290" y="-8" type="curve" smooth="yes"/>
      <point x="1332" y="112"/>
      <point x="1336" y="248"/>
      <point x="1336" y="396" type="curve" smooth="yes"/>
      <point x="1336" y="1486" type="line"/>
      <point x="1174" y="1486" type="line"/>
      <point x="1174" y="510" type="line"/>
      <point x="1194" y="102" type="line"/>
      <point x="1250" y="102" type="line"/>
      <point x="1058" y="444" type="line"/>
      <point x="354" y="1486" type="line"/>
      <point x="200" y="1486" type="line"/>
      <point x="202" y="0" type="line"/>
    </contour>
  </outline>
</glyph>
<glyph name="eng" format="2">
  <advance width="1264"/>
  <unicode hex="014B"/>
  <outline>
    <contour>
      <point x="188" y="0" type="line"/>
      <point x="352" y="0" type="line"/>
      <point x="352" y="858" type="line"/>
      <point x="438" y="924"/>
      <point x="584" y="990"/>
      <point x="690" y="994" type="curve" smooth="yes"/>
      <point x="860" y="1000"/>
      <point x="920" y="928"/>
      <point x="920" y="688" type="curve" smooth="yes"/>
      <point x="920" y="-36" type="line" smooth="yes"/>
      <point x="920" y="-288"/>
      <point x="872" y="-378"/>
      <point x="740" y="-380" type="curve" smooth="yes"/>
      <point x="710" y="-380"/>
      <point x="654" y="-376"/>
      <point x="634" y="-368" type="curve"/>
      <point x="634" y="-482" type="line"/>
      <point x="650" y="-488"/>
      <point x="736" y="-496"/>
      <point x="772" y="-496" type="curve" smooth="yes"/>
      <point x="982" y="-496"/>
      <point x="1082" y="-316"/>
      <point x="1082" y="-14" type="curve" smooth="yes"/>
      <point x="1082" y="692" type="line" smooth="yes"/>
      <point x="1082" y="1020"/>
      <point x="994" y="1134"/>
      <point x="754" y="1130" type="curve"/>
      <point x="588" y="1126"/>
      <point x="416" y="1030"/>
      <point x="334" y="970" type="curve"/>
      <point x="334" y="1112" type="line"/>
      <point x="188" y="1112" type="line"/>
    </contour>
  </outline>
</glyph>
<glyph name="OE" format="2">
  <advance width="2008"/>
  <unicode hex="0152"/>
  <anchor x="1004" y="0" name="bottom"/>
  <anchor x="1038" y="-166" name="btm"/>
  <anchor x="1060" y="1660" name="top"/>
  <outline>
    <contour>
      <point x="108" y="746" type="curve" smooth="yes"/>
      <point x="98" y="302"/>
      <point x="358" y="-24"/>
      <point x="768" y="-16" type="curve" smooth="yes"/>
      <point x="922" y="-12"/>
      <point x="1028" y="34"/>
      <point x="1126" y="116" type="curve"/>
      <point x="1126" y="276" type="line"/>
      <point x="1064" y="188"/>
      <point x="942" y="110"/>
      <point x="774" y="110" type="curve" smooth="yes"/>
      <point x="444" y="110"/>
      <point x="274" y="400"/>
      <point x="274" y="738" type="curve" smooth="yes"/>
      <point x="274" y="1182"/>
      <point x="532" y="1376"/>
      <point x="792" y="1376" type="curve" smooth="yes"/>
      <point x="960" y="1376"/>
      <point x="1070" y="1312"/>
      <point x="1128" y="1230" type="curve"/>
      <point x="1114" y="1408" type="line"/>
      <point x="1024" y="1480"/>
      <point x="900" y="1504"/>
      <point x="796" y="1502" type="curve" smooth="yes"/>
      <point x="404" y="1490"/>
      <point x="116" y="1238"/>
    </contour>
    <contour>
      <point x="1068" y="0" type="line"/>
      <point x="1944" y="0" type="line"/>
      <point x="1944" y="130" type="line"/>
      <point x="1234" y="130" type="line"/>
      <point x="1234" y="704" type="line"/>
      <point x="1708" y="704" type="line"/>
      <point x="1708" y="832" type="line"/>
      <point x="1234" y="832" type="line"/>
      <point x="1234" y="1358" type="line"/>
      <point x="1872" y="1358" type="line"/>
      <point x="1872" y="1486" type="line"/>
      <point x="1068" y="1486" type="line"/>
    </contour>
  </outline>
</glyph>
<glyph name="oe" format="2">
  <advance width="1932"/>
  <unicode hex="0153"/>
  <anchor x="966" y="0" name="bottom"/>
  <anchor x="988" y="-166" name="btm"/>
  <anchor x="988" y="1660" name="top"/>
  <outline>
    <contour>
      <point x="1416" y="-16" type="curve" smooth="yes"/>
      <point x="1554" y="-16"/>
      <point x="1720" y="26"/>
      <point x="1794" y="86" type="curve"/>
      <point x="1762" y="182" type="line"/>
      <point x="1704" y="144"/>
      <point x="1558" y="108"/>
      <point x="1458" y="108" type="curve" smooth="yes"/>
      <point x="1252" y="108"/>
      <point x="1102" y="214"/>
      <point x="1092" y="500" type="curve"/>
      <point x="1084" y="866"/>
      <point x="1228" y="1012"/>
      <point x="1420" y="1012" type="curve" smooth="yes"/>
      <point x="1622" y="1012"/>
      <point x="1688" y="854"/>
      <point x="1676" y="650" type="curve"/>
      <point x="1046" y="650" type="line"/>
      <point x="1032" y="540" type="line"/>
      <point x="1822" y="540" type="line"/>
      <point x="1830" y="586"/>
      <point x="1830" y="640"/>
      <point x="1830" y="710" type="curve" smooth="yes"/>
      <point x="1824" y="964"/>
      <point x="1666" y="1132"/>
      <point x="1430" y="1128" type="curve" smooth="yes"/>
      <point x="1112" y="1126"/>
      <point x="932" y="886"/>
      <point x="932" y="552" type="curve" smooth="yes"/>
      <point x="932" y="196"/>
      <point x="1104" y="-16"/>
    </contour>
    <contour>
      <point x="592" y="100" type="curve" smooth="yes"/>
      <point x="366" y="104"/>
      <point x="268" y="322"/>
      <point x="268" y="576" type="curve" smooth="yes"/>
      <point x="270" y="854"/>
      <point x="398" y="1014"/>
      <point x="608" y="1010" type="curve"/>
      <point x="830" y="1008"/>
      <point x="934" y="804"/>
      <point x="932" y="548" type="curve" smooth="yes"/>
      <point x="932" y="270"/>
      <point x="806" y="98"/>
    </contour>
    <contour>
      <point x="588" y="-16" type="curve" smooth="yes"/>
      <point x="876" y="-16"/>
      <point x="1086" y="186"/>
      <point x="1092" y="542" type="curve" smooth="yes"/>
      <point x="1094" y="856"/>
      <point x="958" y="1128"/>
      <point x="612" y="1128" type="curve" smooth="yes"/>
      <point x="328" y="1128"/>
      <point x="108" y="932"/>
      <point x="102" y="578" type="curve" smooth="yes"/>
      <point x="98" y="262"/>
      <point x="234" y="-16"/>
    </contour>
  </outline>
</glyph>
<glyph name="Tbar" format="2">
  <advance width="1250"/>
  <unicode hex="0166"/>
  <outline>
    <contour>
      <point x="248" y="650" type="line"/>
      <point x="1000" y="650" type="line"/>
      <point x="1000" y="760" type="line"/>
      <point x="248" y="760" type="line"/>
    </contour>
    <component base="T"/>
  </outline>
</glyph>
<glyph name="tbar" format="2">
  <advance width="830"/>
  <unicode hex="0167"/>
  <outline>
    <contour>
      <point x="78" y="602" type="line"/>
      <point x="742" y="602" type="line"/>
      <point x="742" y="724" type="line"/>
      <point x="78" y="724" type="line"/>
    </contour>
    <component base="t"/>
  </outline>
</glyph>
<glyph name="Schwa" format="2">
  <advance width="1456"/>
  <unicode hex="018F"/>
  <anchor x="730" y="0" name="bottom"/>
  <anchor x="714" y="-166" name="btm"/>
  <anchor x="706" y="1662" name="top"/>
  <outline>
    <contour>
      <point x="658" y="-16" type="curve" smooth="yes"/>
      <point x="1114" y="-16"/>
      <point x="1356" y="280"/>
      <point x="1356" y="744" type="curve" smooth="yes"/>
      <point x="1356" y="1246"/>
      <point x="1056" y="1508"/>
      <point x="682" y="1504" type="curve" smooth="yes"/>
      <point x="462" y="1502"/>
      <point x="284" y="1418"/>
      <point x="176" y="1304" type="curve"/>
      <point x="220" y="1174" type="line"/>
      <point x="322" y="1292"/>
      <point x="484" y="1372"/>
      <point x="708" y="1372" type="curve" smooth="yes"/>
      <point x="978" y="1372"/>
      <point x="1190" y="1158"/>
      <point x="1190" y="752" type="curve" smooth="yes"/>
      <point x="1190" y="380"/>
      <point x="1010" y="112"/>
      <point x="692" y="112" type="curve" smooth="yes"/>
      <point x="384" y="112"/>
      <point x="252" y="380"/>
      <point x="264" y="626" type="curve"/>
      <point x="1214" y="626" type="line"/>
      <point x="1240" y="754" type="line"/>
      <point x="114" y="754" type="line"/>
      <point x="106" y="692"/>
      <point x="100" y="662"/>
      <point x="100" y="626" type="curve" smooth="yes"/>
      <point x="100" y="172"/>
      <point x="396" y="-16"/>
    </contour>
  </outline>
</glyph>
<glyph name="florin" format="2">
  <advance width="1142"/>
  <unicode hex="0192"/>
  <outline>
    <contour>
      <point x="318" y="-348" type="line"/>
      <point x="478" y="-348" type="line"/>
      <point x="588" y="990" type="line"/>
      <point x="902" y="990" type="line"/>
      <point x="910" y="1114" type="line"/>
      <point x="598" y="1114" type="line"/>
      <point x="612" y="1226" type="line" smooth="yes"/>
      <point x="634" y="1440"/>
      <point x="734" y="1514"/>
      <point x="858" y="1514" type="curve" smooth="yes"/>
      <point x="946" y="1514"/>
      <point x="998" y="1506"/>
      <point x="1012" y="1496" type="curve"/>
      <point x="1022" y="1630" type="line"/>
      <point x="1008" y="1636"/>
      <point x="966" y="1646"/>
      <point x="878" y="1646" type="curve" smooth="yes"/>
      <point x="666" y="1646"/>
      <point x="488" y="1518"/>
      <point x="448" y="1180" type="curve" smooth="yes"/>
      <point x="440" y="1114" type="line"/>
      <point x="220" y="1076" type="line"/>
      <point x="214" y="990" type="line"/>
      <point x="430" y="990" type="line"/>
    </contour>
  </outline>
</glyph>
<glyph name="Ezh" format="2">
  <advance width="1090"/>
  <unicode hex="01B7"/>
  <anchor x="536" y="0" name="bottom"/>
  <anchor x="550" y="1660" name="top"/>
  <outline>
    <contour>
      <point x="320" y="-14" type="curve" smooth="yes"/>
      <point x="768" y="-14"/>
      <point x="1006" y="198"/>
      <point x="1006" y="456" type="curve" smooth="yes"/>
      <point x="1006" y="682"/>
      <point x="824" y="864"/>
      <point x="514" y="848" type="curve"/>
      <point x="932" y="1336" type="line"/>
      <point x="936" y="1486" type="line"/>
      <point x="124" y="1486" type="line"/>
      <point x="124" y="1354" type="line"/>
      <point x="778" y="1354" type="line"/>
      <point x="680" y="1258" type="line"/>
      <point x="332" y="846" type="line"/>
      <point x="332" y="674" type="line"/>
      <point x="360" y="708"/>
      <point x="430" y="728"/>
      <point x="510" y="730" type="curve" smooth="yes"/>
      <point x="656" y="732"/>
      <point x="832" y="662"/>
      <point x="832" y="464" type="curve" smooth="yes"/>
      <point x="832" y="280"/>
      <point x="670" y="124"/>
      <point x="292" y="112" type="curve" smooth="yes"/>
      <point x="236" y="110"/>
      <point x="176" y="114"/>
      <point x="114" y="124" type="curve"/>
      <point x="116" y="6" type="line"/>
      <point x="186" y="-8"/>
      <point x="252" y="-14"/>
    </contour>
  </outline>
</glyph>
<glyph name="jdotless" format="2">
  <advance width="548"/>
  <unicode hex="0237"/>
  <anchor x="274" y="-546" name="bottom"/>
  <anchor x="296" y="1660" name="top"/>
  <outline>
    <contour>
      <point x="-92" y="-482" type="line"/>
      <point x="-78" y="-490"/>
      <point x="2" y="-496"/>
      <point x="38" y="-496" type="curve" smooth="yes"/>
      <point x="258" y="-496"/>
      <point x="368" y="-340"/>
      <point x="368" y="22" type="curve" smooth="yes"/>
      <point x="368" y="1112" type="line"/>
      <point x="206" y="1112" type="line"/>
      <point x="206" y="-40" type="line" smooth="yes"/>
      <point x="206" y="-278"/>
      <point x="152" y="-380"/>
      <point x="20" y="-380" type="curve" smooth="yes"/>
      <point x="-18" y="-380"/>
      <point x="-72" y="-370"/>
      <point x="-92" y="-362" type="curve"/>
    </contour>
  </outline>
</glyph>
<glyph name="schwa" format="2">
  <advance width="1102"/>
  <unicode hex="0259"/>
  <anchor x="513" y="-546" name="bottom"/>
  <anchor x="516" y="-166" name="btm"/>
  <anchor x="518" y="1662" name="top"/>
  <outline>
    <contour>
      <point x="516" y="1130" type="curve" smooth="yes"/>
      <point x="378" y="1130"/>
      <point x="212" y="1088"/>
      <point x="140" y="1028" type="curve"/>
      <point x="170" y="932" type="line"/>
      <point x="228" y="970"/>
      <point x="372" y="1006"/>
      <point x="474" y="1006" type="curve" smooth="yes"/>
      <point x="680" y="1006"/>
      <point x="830" y="900"/>
      <point x="840" y="614" type="curve" smooth="yes"/>
      <point x="850" y="248"/>
      <point x="704" y="102"/>
      <point x="512" y="102" type="curve" smooth="yes"/>
      <point x="310" y="102"/>
      <point x="244" y="260"/>
      <point x="256" y="464" type="curve"/>
      <point x="888" y="464" type="line"/>
      <point x="902" y="574" type="line"/>
      <point x="110" y="574" type="line"/>
      <point x="102" y="528"/>
      <point x="102" y="474"/>
      <point x="102" y="404" type="curve" smooth="yes"/>
      <point x="108" y="150"/>
      <point x="266" y="-18"/>
      <point x="502" y="-14" type="curve" smooth="yes"/>
      <point x="822" y="-12"/>
      <point x="1000" y="228"/>
      <point x="1000" y="562" type="curve" smooth="yes"/>
      <point x="1000" y="918"/>
      <point x="828" y="1130"/>
    </contour>
  </outline>
</glyph>
<glyph name="ezh" format="2">
  <advance width="964"/>
  <unicode hex="0292"/>
  <anchor x="474" y="0" name="bottom"/>
  <anchor x="452" y="1662" name="top"/>
  <outline>
    <contour>
      <point x="336" y="-294" type="curve" smooth="yes"/>
      <point x="692" y="-294"/>
      <point x="874" y="-96"/>
      <point x="874" y="170" type="curve" smooth="yes"/>
      <point x="874" y="378"/>
      <point x="688" y="518"/>
      <point x="450" y="524" type="curve"/>
      <point x="856" y="1032" type="line"/>
      <point x="810" y="1114" type="line"/>
      <point x="110" y="1114" type="line"/>
      <point x="110" y="978" type="line"/>
      <point x="656" y="978" type="line"/>
      <point x="578" y="904" type="line"/>
      <point x="264" y="504" type="line"/>
      <point x="360" y="430" type="line"/>
      <point x="548" y="432"/>
      <point x="710" y="342"/>
      <point x="710" y="148" type="curve" smooth="yes"/>
      <point x="710" y="-50"/>
      <point x="580" y="-178"/>
      <point x="308" y="-178" type="curve" smooth="yes"/>
      <point x="242" y="-178"/>
      <point x="168" y="-178"/>
      <point x="110" y="-168" type="curve"/>
      <point x="112" y="-286" type="line"/>
      <point x="178" y="-288"/>
      <point x="266" y="-294"/>
    </contour>
  </outline>
</glyph>
<glyph name="ringhalfright" format="2">
  <unicode hex="02BE"/>
  <outline>
    <contour>
      <point x="0" y="1300" type="line"/>
      <point x="176" y="1300"/>
      <point x="304" y="1396"/>
      <point x="302" y="1564" type="curve" smooth="yes"/>
      <point x="300" y="1744"/>
      <point x="148" y="1814"/>
      <point x="0" y="1814" type="curve"/>
      <point x="0" y="1722" type="line"/>
      <point x="90" y="1722"/>
      <point x="186" y="1682"/>
      <point x="186" y="1564" type="curve" smooth="yes"/>
      <point x="186" y="1464"/>
      <point x="118" y="1396"/>
      <point x="0" y="1396" type="curve"/>
    </contour>
  </outline>
</glyph>
<glyph name="ringhalfleft" format="2">
  <advance width="420"/>
  <unicode hex="02BF"/>
  <outline>
    <contour>
      <point x="348" y="1300" type="curve"/>
      <point x="348" y="1396" type="line"/>
      <point x="230" y="1396"/>
      <point x="162" y="1464"/>
      <point x="162" y="1564" type="curve" smooth="yes"/>
      <point x="162" y="1682"/>
      <point x="258" y="1722"/>
      <point x="348" y="1722" type="curve"/>
      <point x="348" y="1814" type="line"/>
      <point x="200" y="1814"/>
      <point x="48" y="1744"/>
      <point x="46" y="1564" type="curve" smooth="yes"/>
      <point x="44" y="1396"/>
      <point x="172" y="1300"/>
    </contour>
  </outline>
</glyph>
<glyph name="circumflex" format="2">
  <advance width="814"/>
  <unicode hex="02C6"/>
  <outline>
    <contour>
      <point x="142" y="1272" type="line"/>
      <point x="410" y="1528" type="line"/>
      <point x="666" y="1272" type="line"/>
      <point x="766" y="1314" type="line"/>
      <point x="482" y="1652" type="line"/>
      <point x="336" y="1652" type="line"/>
      <point x="46" y="1314" type="line"/>
    </contour>
  </outline>
</glyph>
<glyph name="caron" format="2">
  <advance width="804"/>
  <unicode hex="02C7"/>
  <outline>
    <contour>
      <point x="46" y="1610" type="line"/>
      <point x="336" y="1270" type="line"/>
      <point x="482" y="1270" type="line"/>
      <point x="766" y="1608" type="line"/>
      <point x="666" y="1652" type="line"/>
      <point x="410" y="1394" type="line"/>
      <point x="142" y="1652" type="line"/>
    </contour>
  </outline>
</glyph>
<glyph name="verticallinemod" format="2">
  <unicode hex="02C8"/>
  <outline>
    <contour>
      <point x="90" y="2080" type="line"/>
      <point x="-90" y="2080" type="line"/>
      <point x="-54" y="1374" type="line"/>
      <point x="52" y="1374" type="line"/>
    </contour>
  </outline>
</glyph>
<glyph name="firsttonechinese" format="2">
  <advance width="628"/>
  <unicode hex="02C9"/>
  <outline>
    <contour>
      <point x="48" y="1702" type="line"/>
      <point x="580" y="1702" type="line"/>
      <point x="580" y="1824" type="line"/>
      <point x="48" y="1824" type="line"/>
    </contour>
  </outline>
</glyph>
<glyph name="verticallinelowmod" format="2">
  <advance width="716"/>
  <unicode hex="02CC"/>
  <outline>
    <contour>
      <point x="448" y="190" type="line"/>
      <point x="268" y="190" type="line"/>
      <point x="304" y="-516" type="line"/>
      <point x="410" y="-516" type="line"/>
    </contour>
  </outline>
</glyph>
<glyph name="breve" format="2">
  <unicode hex="02D8"/>
  <outline>
    <contour>
      <point x="0" y="1304" type="curve" smooth="yes"/>
      <point x="206" y="1304"/>
      <point x="342" y="1480"/>
      <point x="330" y="1654" type="curve"/>
      <point x="218" y="1654" type="line"/>
      <point x="218" y="1606"/>
      <point x="188" y="1430"/>
      <point x="0" y="1430" type="curve" smooth="yes"/>
      <point x="-190" y="1430"/>
      <point x="-214" y="1604"/>
      <point x="-214" y="1654" type="curve"/>
      <point x="-330" y="1654" type="line"/>
      <point x="-342" y="1480"/>
      <point x="-216" y="1304"/>
    </contour>
  </outline>
</glyph>
<glyph name="dotaccent" format="2">
  <advance width="322"/>
  <unicode hex="02D9"/>
  <outline>
    <contour>
      <point x="154" y="1356" type="curve" smooth="yes"/>
      <point x="216" y="1356"/>
      <point x="274" y="1406"/>
      <point x="274" y="1482" type="curve" smooth="yes"/>
      <point x="274" y="1544"/>
      <point x="240" y="1592"/>
      <point x="168" y="1592" type="curve" smooth="yes"/>
      <point x="110" y="1592"/>
      <point x="48" y="1540"/>
      <point x="48" y="1466" type="curve" smooth="yes"/>
      <point x="48" y="1396"/>
      <point x="96" y="1356"/>
    </contour>
  </outline>
</glyph>
<glyph name="ring" format="2">
  <advance width="696"/>
  <unicode hex="02DA"/>
  <outline>
    <contour>
      <point x="344" y="1300" type="curve" smooth="yes"/>
      <point x="504" y="1300"/>
      <point x="648" y="1382"/>
      <point x="650" y="1562" type="curve" smooth="yes"/>
      <point x="652" y="1722"/>
      <point x="534" y="1814"/>
      <point x="350" y="1814" type="curve" smooth="yes"/>
      <point x="202" y="1814"/>
      <point x="48" y="1744"/>
      <point x="46" y="1564" type="curve" smooth="yes"/>
      <point x="42" y="1406"/>
      <point x="160" y="1300"/>
    </contour>
    <contour>
      <point x="346" y="1396" type="curve" smooth="yes"/>
      <point x="230" y="1398"/>
      <point x="162" y="1464"/>
      <point x="162" y="1564" type="curve" smooth="yes"/>
      <point x="164" y="1682"/>
      <point x="258" y="1722"/>
      <point x="348" y="1722" type="curve" smooth="yes"/>
      <point x="458" y="1720"/>
      <point x="536" y="1664"/>
      <point x="536" y="1562" type="curve" smooth="yes"/>
      <point x="536" y="1446"/>
      <point x="452" y="1396"/>
    </contour>
  </outline>
</glyph>
<glyph name="ogonek" format="2">
  <advance width="604"/>
  <unicode hex="02DB"/>
  <outline>
    <contour>
      <point x="288" y="-500" type="curve" smooth="yes"/>
      <point x="410" y="-500"/>
      <point x="502" y="-458"/>
      <point x="550" y="-428" type="curve"/>
      <point x="536" y="-338" type="line"/>
      <point x="494" y="-360"/>
      <point x="414" y="-392"/>
      <point x="342" y="-392" type="curve" smooth="yes"/>
      <point x="250" y="-392"/>
      <point x="196" y="-350"/>
      <point x="196" y="-272" type="curve" smooth="yes"/>
      <point x="194" y="-160"/>
      <point x="370" y="-34"/>
      <point x="466" y="4" type="curve"/>
      <point x="394" y="6" type="line"/>
      <point x="322" y="0" type="line"/>
      <point x="194" y="-50"/>
      <point x="48" y="-174"/>
      <point x="50" y="-300" type="curve" smooth="yes"/>
      <point x="52" y="-430"/>
      <point x="166" y="-500"/>
    </contour>
  </outline>
</glyph>
<glyph name="tilde" format="2">
  <advance width="896"/>
  <unicode hex="02DC"/>
  <outline>
    <contour>
      <point x="112" y="1376" type="line"/>
      <point x="148" y="1418"/>
      <point x="214" y="1476"/>
      <point x="298" y="1476" type="curve" smooth="yes"/>
      <point x="418" y="1476"/>
      <point x="424" y="1332"/>
      <point x="596" y="1332" type="curve" smooth="yes"/>
      <point x="712" y="1332"/>
      <point x="804" y="1414"/>
      <point x="850" y="1502" type="curve"/>
      <point x="784" y="1556" type="line"/>
      <point x="748" y="1512"/>
      <point x="688" y="1456"/>
      <point x="596" y="1456" type="curve" smooth="yes"/>
      <point x="478" y="1456"/>
      <point x="464" y="1600"/>
      <point x="300" y="1600" type="curve" smooth="yes"/>
      <point x="184" y="1600"/>
      <point x="86" y="1510"/>
      <point x="46" y="1428" type="curve"/>
    </contour>
  </outline>
</glyph>
<glyph name="hungarumlaut" format="2">
  <advance width="994"/>
  <unicode hex="02DD"/>
  <anchor x="388" y="1640" name="_top"/>
  <outline>
    <contour>
      <point x="124" y="1302" type="line"/>
      <point x="206" y="1374"/>
      <point x="356" y="1556"/>
      <point x="424" y="1670" type="curve"/>
      <point x="304" y="1754" type="line"/>
      <point x="46" y="1354" type="line"/>
    </contour>
    <contour>
      <point x="602" y="1302" type="line"/>
      <point x="690" y="1372"/>
      <point x="846" y="1552"/>
      <point x="908" y="1662" type="curve"/>
      <point x="792" y="1746" type="line"/>
      <point x="526" y="1354" type="line"/>
    </contour>
  </outline>
</glyph>
<glyph name="gravecomb" format="2">
  <unicode hex="0300"/>
  <anchor x="2" y="1660" name="_top"/>
  <anchor x="-118" y="1740" name="top"/>
  <outline>
    <contour>
      <point x="106" y="1350" type="line"/>
      <point x="-10" y="1480"/>
      <point x="-126" y="1612"/>
      <point x="-224" y="1740" type="curve"/>
      <point x="-342" y="1638" type="line"/>
      <point x="-264" y="1526"/>
      <point x="-70" y="1346"/>
      <point x="22" y="1284" type="curve"/>
    </contour>
  </outline>
</glyph>
<glyph name="acutecomb" format="2">
  <unicode hex="0301"/>
  <anchor x="0" y="1660" name="_top"/>
  <anchor x="-134" y="1932" name="top"/>
  <outline>
    <contour>
      <point x="-76" y="1310" type="line"/>
      <point x="10" y="1366"/>
      <point x="220" y="1566"/>
      <point x="288" y="1664" type="curve"/>
      <point x="170" y="1766" type="line"/>
      <point x="70" y="1626"/>
      <point x="-42" y="1504"/>
      <point x="-160" y="1376" type="curve"/>
    </contour>
  </outline>
</glyph>
<glyph name="circumflexcomb" format="2">
  <unicode hex="0302"/>
  <anchor x="0" y="1660" name="_top"/>
  <anchor x="0" y="2140" name="top"/>
  <outline>
    <contour>
      <point x="-264" y="1276" type="line"/>
      <point x="0" y="1532" type="line"/>
      <point x="260" y="1276" type="line"/>
      <point x="360" y="1318" type="line"/>
      <point x="76" y="1656" type="line"/>
      <point x="-70" y="1656" type="line"/>
      <point x="-360" y="1318" type="line"/>
    </contour>
  </outline>
</glyph>
<glyph name="tildecomb" format="2">
  <unicode hex="0303"/>
  <anchor x="0" y="1660" name="_top"/>
  <anchor x="0" y="2018" name="top"/>
  <outline>
    <contour>
      <point x="124" y="1304" type="curve" smooth="yes"/>
      <point x="246" y="1304"/>
      <point x="302" y="1402"/>
      <point x="332" y="1506" type="curve"/>
      <point x="248" y="1548" type="line"/>
      <point x="242" y="1512"/>
      <point x="208" y="1424"/>
      <point x="132" y="1424" type="curve" smooth="yes"/>
      <point x="42" y="1424"/>
      <point x="38" y="1562"/>
      <point x="-110" y="1562" type="curve" smooth="yes"/>
      <point x="-240" y="1562"/>
      <point x="-302" y="1452"/>
      <point x="-322" y="1364" type="curve"/>
      <point x="-246" y="1318" type="line"/>
      <point x="-228" y="1358"/>
      <point x="-202" y="1442"/>
      <point x="-116" y="1442" type="curve" smooth="yes"/>
      <point x="-22" y="1442"/>
      <point x="-22" y="1304"/>
    </contour>
  </outline>
</glyph>
<glyph name="macroncomb" format="2">
  <unicode hex="0304"/>
  <anchor x="0" y="1660" name="_top"/>
  <anchor x="0" y="1930" name="top"/>
  <outline>
    <contour>
      <point x="-264" y="1320" type="line"/>
      <point x="268" y="1320" type="line"/>
      <point x="268" y="1442" type="line"/>
      <point x="-264" y="1442" type="line"/>
    </contour>
  </outline>
</glyph>
<glyph name="brevecomb" format="2">
  <unicode hex="0306"/>
  <anchor x="0" y="1660" name="_top"/>
  <anchor x="0" y="1966" name="top"/>
  <outline>
    <contour>
      <point x="0" y="1304" type="curve" smooth="yes"/>
      <point x="206" y="1304"/>
      <point x="322" y="1446"/>
      <point x="310" y="1620" type="curve"/>
      <point x="198" y="1620" type="line"/>
      <point x="198" y="1572"/>
      <point x="188" y="1430"/>
      <point x="0" y="1430" type="curve" smooth="yes"/>
      <point x="-190" y="1430"/>
      <point x="-194" y="1570"/>
      <point x="-194" y="1620" type="curve"/>
      <point x="-310" y="1620" type="line"/>
      <point x="-322" y="1446"/>
      <point x="-216" y="1304"/>
    </contour>
  </outline>
</glyph>
<glyph name="dotaccentcomb" format="2">
  <unicode hex="0307"/>
  <anchor x="0" y="1660" name="_top"/>
  <anchor x="0" y="1970" name="top"/>
  <outline>
    <contour>
      <point x="-8" y="1296" type="curve" smooth="yes"/>
      <point x="54" y="1296"/>
      <point x="112" y="1346"/>
      <point x="112" y="1422" type="curve" smooth="yes"/>
      <point x="112" y="1484"/>
      <point x="78" y="1532"/>
      <point x="6" y="1532" type="curve" smooth="yes"/>
      <point x="-52" y="1532"/>
      <point x="-114" y="1480"/>
      <point x="-114" y="1406" type="curve" smooth="yes"/>
      <point x="-114" y="1336"/>
      <point x="-66" y="1296"/>
    </contour>
  </outline>
</glyph>
<glyph name="dieresiscomb" format="2">
  <unicode hex="0308"/>
  <anchor x="0" y="1660" name="_top"/>
  <anchor x="0" y="2004" name="top"/>
  <outline>
    <contour>
      <point x="-228" y="1316" type="curve" smooth="yes"/>
      <point x="-168" y="1316"/>
      <point x="-114" y="1360"/>
      <point x="-114" y="1432" type="curve" smooth="yes"/>
      <point x="-114" y="1492"/>
      <point x="-142" y="1534"/>
      <point x="-212" y="1534" type="curve" smooth="yes"/>
      <point x="-268" y="1534"/>
      <point x="-326" y="1486"/>
      <point x="-326" y="1418" type="curve" smooth="yes"/>
      <point x="-326" y="1352"/>
      <point x="-284" y="1316"/>
    </contour>
    <contour>
      <point x="212" y="1316" type="curve" smooth="yes"/>
      <point x="272" y="1316"/>
      <point x="326" y="1360"/>
      <point x="326" y="1432" type="curve" smooth="yes"/>
      <point x="326" y="1492"/>
      <point x="296" y="1534"/>
      <point x="230" y="1534" type="curve" smooth="yes"/>
      <point x="172" y="1534"/>
      <point x="116" y="1486"/>
      <point x="116" y="1418" type="curve" smooth="yes"/>
      <point x="116" y="1352"/>
      <point x="158" y="1316"/>
    </contour>
  </outline>
</glyph>
<glyph name="hookabovecomb" format="2">
  <unicode hex="0309"/>
  <anchor x="0" y="1660" name="_top"/>
  <anchor x="0" y="1966" name="top"/>
  <outline>
    <contour>
      <point x="-48" y="1278" type="curve"/>
      <point x="54" y="1278" type="line"/>
      <point x="36" y="1328"/>
      <point x="54" y="1370"/>
      <point x="70" y="1384" type="curve" smooth="yes"/>
      <point x="126" y="1434"/>
      <point x="204" y="1462"/>
      <point x="204" y="1574" type="curve" smooth="yes"/>
      <point x="204" y="1690"/>
      <point x="112" y="1760"/>
      <point x="-20" y="1760" type="curve" smooth="yes"/>
      <point x="-70" y="1760"/>
      <point x="-124" y="1746"/>
      <point x="-160" y="1730" type="curve"/>
      <point x="-152" y="1620" type="line"/>
      <point x="-130" y="1632"/>
      <point x="-96" y="1640"/>
      <point x="-64" y="1640" type="curve" smooth="yes"/>
      <point x="18" y="1640"/>
      <point x="56" y="1616"/>
      <point x="56" y="1556" type="curve" smooth="yes"/>
      <point x="56" y="1484"/>
      <point x="-74" y="1462"/>
      <point x="-74" y="1364" type="curve" smooth="yes"/>
      <point x="-74" y="1328"/>
      <point x="-60" y="1306"/>
    </contour>
  </outline>
</glyph>
<glyph name="ringcomb" format="2">
  <unicode hex="030A"/>
  <anchor x="0" y="1660" name="_top"/>
  <anchor x="226" y="2094" name="top"/>
  <outline>
    <contour>
      <point x="-4" y="1300" type="curve" smooth="yes"/>
      <point x="156" y="1300"/>
      <point x="300" y="1382"/>
      <point x="302" y="1562" type="curve" smooth="yes"/>
      <point x="304" y="1722"/>
      <point x="186" y="1814"/>
      <point x="2" y="1814" type="curve" smooth="yes"/>
      <point x="-146" y="1814"/>
      <point x="-300" y="1744"/>
      <point x="-302" y="1564" type="curve" smooth="yes"/>
      <point x="-304" y="1406"/>
      <point x="-188" y="1300"/>
    </contour>
    <contour>
      <point x="-2" y="1396" type="curve" smooth="yes"/>
      <point x="-118" y="1396"/>
      <point x="-186" y="1464"/>
      <point x="-186" y="1564" type="curve" smooth="yes"/>
      <point x="-186" y="1682"/>
      <point x="-90" y="1722"/>
      <point x="0" y="1722" type="curve" smooth="yes"/>
      <point x="110" y="1722"/>
      <point x="188" y="1664"/>
      <point x="188" y="1562" type="curve" smooth="yes"/>
      <point x="188" y="1446"/>
      <point x="104" y="1396"/>
    </contour>
  </outline>
</glyph>
<glyph name="hungarumlautcomb" format="2">
  <unicode hex="030B"/>
  <anchor x="0" y="1640" name="_top"/>
  <anchor x="90" y="1754" name="top"/>
  <outline>
    <contour>
      <point x="-264" y="1302" type="line"/>
      <point x="-182" y="1374"/>
      <point x="-32" y="1556"/>
      <point x="36" y="1670" type="curve"/>
      <point x="-84" y="1754" type="line"/>
      <point x="-108" y="1714"/>
      <point x="-314" y="1392"/>
      <point x="-342" y="1354" type="curve"/>
    </contour>
    <contour>
      <point x="214" y="1302" type="line"/>
      <point x="302" y="1372"/>
      <point x="458" y="1552"/>
      <point x="520" y="1662" type="curve"/>
      <point x="404" y="1746" type="line"/>
      <point x="380" y="1706"/>
      <point x="166" y="1392"/>
      <point x="138" y="1354" type="curve"/>
    </contour>
  </outline>
</glyph>
<glyph name="caroncomb" format="2">
  <unicode hex="030C"/>
  <anchor x="0" y="1660" name="_top"/>
  <anchor x="2" y="2064" name="top"/>
  <outline>
    <contour>
      <point x="-364" y="1666" type="line"/>
      <point x="-74" y="1326" type="line"/>
      <point x="72" y="1326" type="line"/>
      <point x="356" y="1664" type="line"/>
      <point x="256" y="1708" type="line"/>
      <point x="0" y="1450" type="line"/>
      <point x="-268" y="1708" type="line"/>
    </contour>
  </outline>
</glyph>
<glyph name="dblgravecomb" format="2">
  <unicode hex="030F"/>
  <anchor x="0" y="1640" name="_top"/>
  <anchor x="-96" y="1966" name="top"/>
  <outline>
    <contour>
      <point x="282" y="1302" type="curve"/>
      <point x="360" y="1354" type="line"/>
      <point x="332" y="1392"/>
      <point x="124" y="1714"/>
      <point x="102" y="1754" type="curve"/>
      <point x="-20" y="1670" type="line"/>
      <point x="48" y="1556"/>
      <point x="198" y="1374"/>
    </contour>
    <contour>
      <point x="-198" y="1302" type="curve"/>
      <point x="-122" y="1354" type="line"/>
      <point x="-150" y="1392"/>
      <point x="-364" y="1706"/>
      <point x="-388" y="1746" type="curve"/>
      <point x="-504" y="1662" type="line"/>
      <point x="-440" y="1552"/>
      <point x="-284" y="1372"/>
    </contour>
  </outline>
</glyph>
<glyph name="breveinvertedcomb" format="2">
  <unicode hex="0311"/>
  <anchor x="0" y="1660" name="_top"/>
  <anchor x="0" y="1966" name="top"/>
  <outline>
    <contour>
      <point x="0" y="1654" type="curve" smooth="yes"/>
      <point x="-216" y="1654"/>
      <point x="-342" y="1478"/>
      <point x="-330" y="1304" type="curve"/>
      <point x="-214" y="1304" type="line"/>
      <point x="-214" y="1354"/>
      <point x="-190" y="1528"/>
      <point x="0" y="1528" type="curve" smooth="yes"/>
      <point x="188" y="1528"/>
      <point x="218" y="1352"/>
      <point x="218" y="1304" type="curve"/>
      <point x="330" y="1304" type="line"/>
      <point x="342" y="1478"/>
      <point x="206" y="1654"/>
    </contour>
  </outline>
</glyph>
<glyph name="horncomb" format="2">
  <unicode hex="031B"/>
  <anchor x="0" y="1114" name="_topright"/>
  <anchor x="164" y="1114" name="topright"/>
  <outline>
    <contour>
      <point x="-10" y="1000" type="line"/>
      <point x="264" y="1000"/>
      <point x="398" y="1172"/>
      <point x="398" y="1344" type="curve" smooth="yes"/>
      <point x="398" y="1358"/>
      <point x="396" y="1372"/>
      <point x="394" y="1388" type="curve"/>
      <point x="254" y="1388" type="line"/>
      <point x="256" y="1380"/>
      <point x="254" y="1368"/>
      <point x="252" y="1354" type="curve" smooth="yes"/>
      <point x="240" y="1272"/>
      <point x="234" y="1114"/>
      <point x="-10" y="1114" type="curve"/>
    </contour>
  </outline>
</glyph>
<glyph name="dotbelowcomb" format="2">
  <unicode hex="0323"/>
  <anchor x="-10" y="0" name="_bottom"/>
  <anchor x="-2" y="-166" name="_btm"/>
  <anchor x="-10" y="-384" name="bottom"/>
  <outline>
    <contour>
      <point x="-16" y="-394" type="curve" smooth="yes"/>
      <point x="46" y="-394"/>
      <point x="104" y="-344"/>
      <point x="104" y="-268" type="curve" smooth="yes"/>
      <point x="104" y="-206"/>
      <point x="70" y="-158"/>
      <point x="-2" y="-158" type="curve" smooth="yes"/>
      <point x="-60" y="-158"/>
      <point x="-122" y="-210"/>
      <point x="-122" y="-284" type="curve" smooth="yes"/>
      <point x="-122" y="-354"/>
      <point x="-74" y="-394"/>
    </contour>
  </outline>
</glyph>
<glyph name="dieresisbelowcomb" format="2">
  <unicode hex="0324"/>
  <anchor x="0" y="0" name="_bottom"/>
  <anchor x="0" y="-166" name="_btm"/>
  <anchor x="0" y="1660" name="_top"/>
  <anchor x="0" y="-344" name="bottom"/>
  <outline>
    <contour>
      <point x="-228" y="-344" type="curve" smooth="yes"/>
      <point x="-168" y="-344"/>
      <point x="-114" y="-300"/>
      <point x="-114" y="-228" type="curve" smooth="yes"/>
      <point x="-114" y="-168"/>
      <point x="-142" y="-126"/>
      <point x="-212" y="-126" type="curve" smooth="yes"/>
      <point x="-268" y="-126"/>
      <point x="-326" y="-174"/>
      <point x="-326" y="-242" type="curve" smooth="yes"/>
      <point x="-326" y="-308"/>
      <point x="-284" y="-344"/>
    </contour>
    <contour>
      <point x="212" y="-344" type="curve" smooth="yes"/>
      <point x="272" y="-344"/>
      <point x="326" y="-300"/>
      <point x="326" y="-228" type="curve" smooth="yes"/>
      <point x="326" y="-168"/>
      <point x="296" y="-126"/>
      <point x="230" y="-126" type="curve" smooth="yes"/>
      <point x="172" y="-126"/>
      <point x="116" y="-174"/>
      <point x="116" y="-242" type="curve" smooth="yes"/>
      <point x="116" y="-308"/>
      <point x="158" y="-344"/>
    </contour>
  </outline>
</glyph>
<glyph name="commaaccentcomb" format="2">
  <unicode hex="0326"/>
  <anchor x="162" y="0" name="_bottom"/>
  <anchor x="152" y="-166" name="_btm"/>
  <anchor x="162" y="-546" name="bottom"/>
  <outline>
    <contour>
      <point x="170" y="-540" type="line"/>
      <point x="202" y="-522"/>
      <point x="266" y="-428"/>
      <point x="266" y="-318" type="curve" smooth="yes"/>
      <point x="266" y="-200"/>
      <point x="226" y="-162"/>
      <point x="192" y="-130" type="curve"/>
      <point x="56" y="-184" type="line"/>
      <point x="56" y="-220" type="line"/>
      <point x="92" y="-230"/>
      <point x="126" y="-288"/>
      <point x="126" y="-342" type="curve" smooth="yes"/>
      <point x="126" y="-416"/>
      <point x="100" y="-474"/>
      <point x="74" y="-496" type="curve"/>
      <point x="74" y="-516" type="line"/>
    </contour>
  </outline>
</glyph>
<glyph name="cedillacomb" format="2">
  <unicode hex="0327"/>
  <anchor x="-96" y="0" name="_bottom"/>
  <anchor x="0" y="-166" name="_btm"/>
  <anchor x="-96" y="-454" name="bottom"/>
  <outline>
    <contour>
      <point x="-356" y="-426" type="line"/>
      <point x="-332" y="-442"/>
      <point x="-266" y="-454"/>
      <point x="-218" y="-454" type="curve" smooth="yes"/>
      <point x="-86" y="-454"/>
      <point x="6" y="-372"/>
      <point x="6" y="-206" type="curve" smooth="yes"/>
      <point x="6" y="-96"/>
      <point x="-6" y="-30"/>
      <point x="-44" y="20" type="curve"/>
      <point x="-78" y="24" type="line"/>
      <point x="-140" y="20" type="line"/>
      <point x="-122" y="-20"/>
      <point x="-116" y="-76"/>
      <point x="-116" y="-176" type="curve" smooth="yes"/>
      <point x="-116" y="-278"/>
      <point x="-160" y="-332"/>
      <point x="-256" y="-332" type="curve" smooth="yes"/>
      <point x="-292" y="-332"/>
      <point x="-326" y="-326"/>
      <point x="-344" y="-316" type="curve"/>
    </contour>
  </outline>
</glyph>
<glyph name="ogonekcomb" format="2">
  <unicode hex="0328"/>
  <anchor x="536" y="0" name="_ogonek"/>
  <outline>
    <contour>
      <point x="398" y="-500" type="curve" smooth="yes"/>
      <point x="520" y="-500"/>
      <point x="612" y="-458"/>
      <point x="660" y="-428" type="curve"/>
      <point x="646" y="-338" type="line"/>
      <point x="604" y="-360"/>
      <point x="524" y="-392"/>
      <point x="452" y="-392" type="curve" smooth="yes"/>
      <point x="360" y="-392"/>
      <point x="306" y="-350"/>
      <point x="306" y="-272" type="curve" smooth="yes"/>
      <point x="306" y="-160"/>
      <point x="480" y="-34"/>
      <point x="576" y="4" type="curve"/>
      <point x="504" y="6" type="line"/>
      <point x="432" y="0" type="line"/>
      <point x="304" y="-50"/>
      <point x="158" y="-174"/>
      <point x="160" y="-300" type="curve" smooth="yes"/>
      <point x="162" y="-430"/>
      <point x="276" y="-500"/>
    </contour>
  </outline>
</glyph>
<glyph name="brevebelowcomb" format="2">
  <unicode hex="032E"/>
  <anchor x="0" y="0" name="_bottom"/>
  <anchor x="0" y="-166" name="_btm"/>
  <anchor x="0" y="-436" name="bottom"/>
  <outline>
    <contour>
      <point x="0" y="-436" type="curve" smooth="yes"/>
      <point x="206" y="-436"/>
      <point x="342" y="-260"/>
      <point x="330" y="-86" type="curve"/>
      <point x="218" y="-86" type="line"/>
      <point x="218" y="-134"/>
      <point x="188" y="-310"/>
      <point x="0" y="-310" type="curve" smooth="yes"/>
      <point x="-190" y="-310"/>
      <point x="-214" y="-136"/>
      <point x="-214" y="-86" type="curve"/>
      <point x="-330" y="-86" type="line"/>
      <point x="-342" y="-260"/>
      <point x="-216" y="-436"/>
    </contour>
  </outline>
</glyph>
<glyph name="strokeshortcomb" format="2">
  <unicode hex="0335"/>
  <anchor x="0" y="562" name="_center"/>
  <outline>
    <contour>
      <point x="402" y="622" type="line"/>
      <point x="-402" y="622" type="line"/>
      <point x="-402" y="502" type="line"/>
      <point x="402" y="502" type="line"/>
    </contour>
  </outline>
</glyph>
<glyph name="strokelongcomb" format="2">
  <unicode hex="0336"/>
  <anchor x="0" y="558" name="_center"/>
  <outline>
    <contour>
      <point x="574" y="620" type="line"/>
      <point x="-574" y="620" type="line"/>
      <point x="-574" y="496" type="line"/>
      <point x="574" y="496" type="line"/>
    </contour>
  </outline>
</glyph>
<glyph name="slashshortcomb" format="2">
  <unicode hex="0337"/>
  <anchor x="0" y="454" name="_center"/>
  <outline>
    <contour>
      <point x="322" y="1110" type="line"/>
      <point x="-440" y="-202" type="line"/>
      <point x="-318" y="-202" type="line"/>
      <point x="440" y="1110" type="line"/>
    </contour>
  </outline>
</glyph>
<glyph name="pi" format="2">
  <advance width="1530"/>
  <unicode hex="03C0"/>
  <outline>
    <contour>
      <point x="126" y="894" type="curve"/>
      <point x="210" y="856" type="line"/>
      <point x="232" y="922"/>
      <point x="310" y="976"/>
      <point x="418" y="976" type="curve" smooth="yes"/>
      <point x="1146" y="976" type="line" smooth="yes"/>
      <point x="1316" y="976"/>
      <point x="1398" y="1042"/>
      <point x="1410" y="1186" type="curve"/>
      <point x="1302" y="1186" type="line"/>
      <point x="1280" y="1130"/>
      <point x="1232" y="1114"/>
      <point x="1152" y="1114" type="curve" smooth="yes"/>
      <point x="446" y="1114" type="line" smooth="yes"/>
      <point x="312" y="1114"/>
      <point x="218" y="1082"/>
      <point x="166" y="1002" type="curve" smooth="yes"/>
      <point x="144" y="968"/>
      <point x="126" y="916"/>
    </contour>
    <contour>
      <point x="918" y="244" type="line"/>
      <point x="910" y="78"/>
      <point x="966" y="-24"/>
      <point x="1106" y="-24" type="curve" smooth="yes"/>
      <point x="1266" y="-24"/>
      <point x="1386" y="114"/>
      <point x="1406" y="234" type="curve"/>
      <point x="1324" y="268" type="line"/>
      <point x="1298" y="200"/>
      <point x="1228" y="104"/>
      <point x="1152" y="104" type="curve" smooth="yes"/>
      <point x="1090" y="104"/>
      <point x="1064" y="162"/>
      <point x="1068" y="246" type="curve" smooth="yes"/>
      <point x="1106" y="1070" type="line"/>
      <point x="974" y="1068" type="line"/>
    </contour>
    <contour>
      <point x="194" y="68" type="curve"/>
      <point x="294" y="-24" type="line"/>
      <point x="354" y="-8"/>
      <point x="400" y="16"/>
      <point x="438" y="50" type="curve" smooth="yes"/>
      <point x="528" y="132"/>
      <point x="582" y="194"/>
      <point x="594" y="418" type="curve" smooth="yes"/>
      <point x="630" y="1068" type="line"/>
      <point x="496" y="1068" type="line"/>
      <point x="452" y="476" type="line" smooth="yes"/>
      <point x="440" y="318"/>
      <point x="430" y="216"/>
      <point x="314" y="128" type="curve" smooth="yes"/>
      <point x="262" y="90"/>
      <point x="212" y="72"/>
    </contour>
  </outline>
</glyph>
<glyph name="dram-arm" format="2">
  <advance width="1724"/>
  <unicode hex="058F"/>
  <anchor x="682" y="-166" name="btm"/>
  <anchor x="680" y="1660" name="top"/>
  <outline>
    <contour>
      <point x="676" y="1488" type="curve" smooth="yes"/>
      <point x="356" y="1488"/>
      <point x="116" y="1262"/>
      <point x="116" y="844" type="curve" smooth="yes"/>
      <point x="116" y="738" type="line"/>
      <point x="282" y="738" type="line"/>
      <point x="282" y="804" type="line" smooth="yes"/>
      <point x="282" y="1236"/>
      <point x="484" y="1358"/>
      <point x="682" y="1358" type="curve" smooth="yes"/>
      <point x="916" y="1358"/>
      <point x="1060" y="1230"/>
      <point x="1060" y="804" type="curve" smooth="yes"/>
      <point x="1060" y="-14" type="line"/>
      <point x="1224" y="-14" type="line"/>
      <point x="1224" y="842" type="line" smooth="yes"/>
      <point x="1224" y="1270"/>
      <point x="1042" y="1488"/>
    </contour>
    <contour>
      <point x="702" y="616" type="line"/>
      <point x="1576" y="616" type="line"/>
      <point x="1576" y="722" type="line"/>
      <point x="702" y="722" type="line"/>
    </contour>
    <contour>
      <point x="672" y="252" type="line"/>
      <point x="1542" y="252" type="line"/>
      <point x="1542" y="360" type="line"/>
      <point x="672" y="360" type="line"/>
    </contour>
  </outline>
</glyph>
<glyph name="Germandbls" format="2">
  <advance width="1428"/>
  <unicode hex="1E9E"/>
  <anchor x="714" y="0" name="bottom"/>
  <anchor x="714" y="1486" name="top"/>
  <outline>
    <contour>
      <point x="102" y="0" type="line" name="hr01"/>
      <point x="268" y="0" type="line"/>
      <point x="268" y="818" type="line" smooth="yes"/>
      <point x="268" y="1190"/>
      <point x="474" y="1382"/>
      <point x="752" y="1382" type="curve" smooth="yes"/>
      <point x="876" y="1382"/>
      <point x="962" y="1350"/>
      <point x="1016" y="1310" type="curve"/>
      <point x="724" y="848" type="line"/>
      <point x="716" y="790" type="line"/>
      <point x="1044" y="790"/>
      <point x="1182" y="706"/>
      <point x="1182" y="454" type="curve" smooth="yes"/>
      <point x="1182" y="240"/>
      <point x="1042" y="104"/>
      <point x="862" y="104" type="curve" smooth="yes"/>
      <point x="738" y="104"/>
      <point x="618" y="144"/>
      <point x="562" y="190" type="curve"/>
      <point x="502" y="62" type="line"/>
      <point x="578" y="16"/>
      <point x="672" y="-22"/>
      <point x="882" y="-22" type="curve" smooth="yes"/>
      <point x="1186" y="-22"/>
      <point x="1338" y="208"/>
      <point x="1338" y="454" type="curve" smooth="yes" name="hr02"/>
      <point x="1338" y="756"/>
      <point x="1138" y="884"/>
      <point x="898" y="884" type="curve"/>
      <point x="1206" y="1344" type="line"/>
      <point x="1208" y="1412" type="line"/>
      <point x="1108" y="1412"/>
      <point x="1014" y="1502"/>
      <point x="750" y="1502" type="curve" smooth="yes"/>
      <point x="312" y="1502"/>
      <point x="102" y="1210"/>
      <point x="102" y="736" type="curve" smooth="yes"/>
    </contour>
  </outline>
</glyph>
<glyph name="quoteleft" format="2">
  <advance width="486"/>
  <unicode hex="2018"/>
  <outline>
    <contour>
      <point x="288" y="940" type="curve"/>
      <point x="372" y="1034" type="line"/>
      <point x="372" y="1080" type="line"/>
      <point x="306" y="1108"/>
      <point x="252" y="1208"/>
      <point x="252" y="1306" type="curve" smooth="yes"/>
      <point x="252" y="1448"/>
      <point x="318" y="1582"/>
      <point x="374" y="1626" type="curve"/>
      <point x="374" y="1650" type="line"/>
      <point x="304" y="1696" type="line"/>
      <point x="224" y="1642"/>
      <point x="98" y="1490"/>
      <point x="98" y="1276" type="curve" smooth="yes"/>
      <point x="98" y="1122"/>
      <point x="170" y="980"/>
    </contour>
  </outline>
</glyph>
<glyph name="quoteright" format="2">
  <advance width="486"/>
  <unicode hex="2019"/>
  <outline>
    <contour>
      <point x="190" y="940" type="line"/>
      <point x="264" y="994"/>
      <point x="380" y="1144"/>
      <point x="380" y="1390" type="curve" smooth="yes"/>
      <point x="380" y="1544"/>
      <point x="322" y="1656"/>
      <point x="228" y="1696" type="curve"/>
      <point x="124" y="1610" type="line"/>
      <point x="124" y="1564" type="line"/>
      <point x="180" y="1536"/>
      <point x="228" y="1432"/>
      <point x="228" y="1330" type="curve" smooth="yes"/>
      <point x="228" y="1190"/>
      <point x="166" y="1056"/>
      <point x="120" y="1010" type="curve"/>
      <point x="120" y="986" type="line"/>
    </contour>
  </outline>
</glyph>
<glyph name="quotereversed" format="2">
  <advance width="486"/>
  <unicode hex="201B"/>
  <outline>
    <contour>
      <point x="282" y="1696" type="line"/>
      <point x="166" y="1656"/>
      <point x="94" y="1516"/>
      <point x="94" y="1360" type="curve" smooth="yes"/>
      <point x="94" y="1146"/>
      <point x="222" y="994"/>
      <point x="304" y="940" type="curve"/>
      <point x="374" y="986" type="line"/>
      <point x="374" y="1010" type="line"/>
      <point x="316" y="1056"/>
      <point x="248" y="1190"/>
      <point x="248" y="1330" type="curve" smooth="yes"/>
      <point x="248" y="1428"/>
      <point x="302" y="1530"/>
      <point x="366" y="1558" type="curve"/>
      <point x="366" y="1602" type="line"/>
    </contour>
  </outline>
</glyph>
<glyph name="dagger" format="2">
  <advance width="1002"/>
  <unicode hex="2020"/>
  <outline>
    <contour>
      <point x="436" y="196" type="line"/>
      <point x="566" y="196" type="line"/>
      <point x="574" y="1122" type="line"/>
      <point x="878" y="1120" type="line"/>
      <point x="878" y="1242" type="line"/>
      <point x="574" y="1240" type="line"/>
      <point x="578" y="1620" type="line"/>
      <point x="424" y="1620" type="line"/>
      <point x="428" y="1240" type="line"/>
      <point x="124" y="1242" type="line"/>
      <point x="124" y="1120" type="line"/>
      <point x="428" y="1122" type="line"/>
    </contour>
  </outline>
</glyph>
<glyph name="daggerdbl" format="2">
  <advance width="1002"/>
  <unicode hex="2021"/>
  <outline>
    <contour>
      <point x="438" y="-348" type="line"/>
      <point x="562" y="-348" type="line"/>
      <point x="574" y="488" type="line"/>
      <point x="878" y="486" type="line"/>
      <point x="878" y="608" type="line"/>
      <point x="574" y="606" type="line"/>
      <point x="574" y="1122" type="line"/>
      <point x="878" y="1120" type="line"/>
      <point x="878" y="1242" type="line"/>
      <point x="574" y="1240" type="line"/>
      <point x="578" y="1620" type="line"/>
      <point x="424" y="1620" type="line"/>
      <point x="426" y="1240" type="line"/>
      <point x="124" y="1242" type="line"/>
      <point x="124" y="1120" type="line"/>
      <point x="426" y="1122" type="line"/>
      <point x="426" y="606" type="line"/>
      <point x="124" y="608" type="line"/>
      <point x="124" y="486" type="line"/>
      <point x="426" y="488" type="line"/>
    </contour>
  </outline>
</glyph>
<glyph name="bullet" format="2">
  <advance width="832"/>
  <unicode hex="2022"/>
  <outline>
    <contour>
      <point x="408" y="536" type="curve" smooth="yes"/>
      <point x="500" y="536"/>
      <point x="580" y="614"/>
      <point x="584" y="710" type="curve" smooth="yes"/>
      <point x="588" y="806"/>
      <point x="516" y="880"/>
      <point x="424" y="880" type="curve" smooth="yes"/>
      <point x="334" y="880"/>
      <point x="254" y="804"/>
      <point x="250" y="708" type="curve" smooth="yes"/>
      <point x="244" y="614"/>
      <point x="316" y="536"/>
    </contour>
  </outline>
</glyph>
